<svg width="40" height="40" viewBox="0 0 40 40" fill="none" xmlns="http://www.w3.org/2000/svg">
<circle cx="20" cy="20" r="19.5" stroke="white"/>
<path d="M13.5 20.75C13.5 20.6006 13.5445 20.4556 13.626 20.333L13.7197 20.2187L18.7187 15.2197C18.7884 15.1501 18.8709 15.0943 18.9619 15.0566C19.0529 15.019 19.1505 15 19.249 15C19.3475 15 19.4451 15.0189 19.5361 15.0566C19.6271 15.0943 19.7096 15.1501 19.7793 15.2197C19.8489 15.2894 19.9047 15.3719 19.9424 15.4629C19.98 15.5538 19.999 15.6516 19.999 15.75C19.999 15.8485 19.9801 15.9461 19.9424 16.0371C19.9047 16.1281 19.8489 16.2106 19.7793 16.2803L16.0596 20L26.249 20C26.4479 20 26.6387 20.0791 26.7793 20.2197C26.9199 20.3604 26.999 20.5511 26.999 20.75C26.999 20.9489 26.9199 21.1397 26.7793 21.2803C26.6387 21.4209 26.4479 21.5 26.249 21.5L16.0596 21.5L19.7793 25.2197C19.9199 25.3604 19.999 25.5511 19.999 25.75C19.999 25.9489 19.9199 26.1396 19.7793 26.2803C19.6386 26.4209 19.4479 26.5 19.249 26.5C19.1506 26.5 19.0529 26.481 18.9619 26.4434C18.8709 26.4057 18.7884 26.3499 18.7187 26.2803L13.7197 21.2812C13.5793 21.1402 13.5 20.9491 13.5 20.75Z" fill="white" stroke="white"/>
</svg>
