<svg width="18" height="17" viewBox="0 0 18 17" fill="none" xmlns="http://www.w3.org/2000/svg">
<path fill-rule="evenodd" clip-rule="evenodd" d="M7.44033 1.62413e-08C6.26501 9.78541e-05 5.10675 0.274828 4.0622 0.80127C3.01764 1.32771 2.11707 2.0906 1.43563 3.02628C0.754184 3.96197 0.311625 5.04332 0.144873 6.18012C-0.0218781 7.31691 0.0920137 8.47619 0.477047 9.56123C0.86208 10.6463 1.50709 11.6256 2.35826 12.4175C3.20943 13.2095 4.24208 13.791 5.37006 14.1137C6.49803 14.4364 7.68863 14.4908 8.8425 14.2724C9.99638 14.054 11.0801 13.5692 12.0032 12.8584L15.9984 16.7622C16.162 16.9165 16.381 17.0019 16.6084 17C16.8357 16.998 17.0532 16.9089 17.214 16.7518C17.3748 16.5947 17.466 16.3822 17.4679 16.1601C17.4699 15.9379 17.3825 15.7239 17.2246 15.5641L13.2293 11.6603C14.086 10.5983 14.6195 9.32214 14.7686 7.97778C14.9177 6.63342 14.6764 5.2752 14.0724 4.05856C13.4683 2.84193 12.526 1.81603 11.3531 1.09827C10.1802 0.38052 8.82425 -9.07807e-05 7.44033 1.62413e-08ZM1.80396 7.2019C1.80396 5.74126 2.39779 4.34045 3.45481 3.30763C4.51184 2.2748 5.94547 1.69456 7.44033 1.69456C8.93519 1.69456 10.3688 2.2748 11.4259 3.30763C12.4829 4.34045 13.0767 5.74126 13.0767 7.2019C13.0767 8.66254 12.4829 10.0633 11.4259 11.0962C10.3688 12.129 8.93519 12.7092 7.44033 12.7092C5.94547 12.7092 4.51184 12.129 3.45481 11.0962C2.39779 10.0633 1.80396 8.66254 1.80396 7.2019Z" fill="white"/>
</svg>
