<svg width="12" height="23" viewBox="0 0 12 23" fill="none" xmlns="http://www.w3.org/2000/svg">
<path d="M7.91155 15.1961C8.50064 14.4775 9.05686 13.7996 9.61243 13.1218C9.89843 12.7726 10.1838 12.4235 10.4698 12.0751C10.855 11.605 10.8149 11.2421 10.3317 10.8607C9.59796 10.2815 8.85962 9.70818 8.1318 9.12106C8.02727 9.03624 7.91878 8.89028 7.91352 8.768C7.90826 8.64965 8.00688 8.46687 8.10879 8.41954C8.22319 8.36694 8.42569 8.38601 8.53286 8.45898C8.87803 8.69304 9.19756 8.96524 9.5263 9.22362C9.97798 9.57866 10.429 9.93303 10.8794 10.2887C11.6295 10.8811 11.7288 11.772 11.1226 12.5156C10.2153 13.628 9.30802 14.7398 8.3915 15.8443C8.26461 15.9975 8.24883 16.1205 8.31984 16.3046C8.77021 17.4736 9.21531 18.6445 9.6453 19.8214C10.024 20.8569 9.40335 21.8674 8.31327 22.0213C7.57295 22.1258 6.84185 21.6603 6.5782 20.8996C6.16465 19.7083 5.76097 18.5137 5.35334 17.3204C5.17122 16.7878 4.9891 16.2553 4.78528 15.6603C4.50388 16.8095 4.23892 17.8904 3.97396 18.9713C3.82406 19.584 3.68468 20.1988 3.52097 20.8082C3.31978 21.5591 2.72214 21.9989 1.98446 21.9647C1.22705 21.9299 0.602458 21.4447 0.509097 20.73C0.460445 20.3579 0.526192 19.9634 0.587336 19.586C1.0548 16.6984 1.53409 13.8128 2.0101 10.9271C2.06007 10.626 2.23496 10.4787 2.48808 10.5215C2.72674 10.5616 2.83786 10.7562 2.78657 11.0757C2.58867 12.2973 2.38617 13.5176 2.18433 14.7385C1.88189 16.5656 1.57814 18.392 1.27702 20.2191C1.19944 20.6899 1.44007 21.0758 1.85428 21.1593C2.30531 21.2501 2.66757 20.9983 2.78855 20.5058C3.29611 18.4381 3.80434 16.3703 4.3073 14.3013C4.36187 14.0771 4.43879 13.8877 4.70244 13.8726C4.98252 13.8568 5.07523 14.0567 5.15084 14.2783C5.8655 16.3789 6.58149 18.4795 7.29879 20.5788C7.47105 21.0824 7.86027 21.3276 8.30669 21.2224C8.83858 21.0975 9.09828 20.5952 8.89513 20.0528C8.3159 18.5038 7.72286 16.9594 7.14954 15.4078C6.76098 14.3565 6.3757 13.3026 6.02724 12.2375C5.84249 11.6727 5.81948 11.0764 5.94046 10.486C6.06669 9.86663 6.72811 9.59772 7.23107 9.97708C7.78071 10.3919 8.31458 10.8278 8.8445 11.2684C9.15811 11.5294 9.17455 11.8936 8.9017 12.2269C8.4658 12.7602 8.02529 13.2901 7.57953 13.8154C7.48288 13.9291 7.45724 14.0232 7.51707 14.1658C7.65251 14.4886 7.76888 14.8193 7.91221 15.1961H7.91155ZM6.75966 10.603C6.55125 11.5169 6.7715 12.3104 7.1456 13.1126C7.52101 12.6589 7.87736 12.2289 8.24226 11.7884C7.73929 11.386 7.26329 11.0054 6.76032 10.603H6.75966Z" fill="white"/>
<path d="M4.88592 4.53981C4.86357 3.88958 5.17784 3.41685 5.79849 3.20515C6.64268 2.91718 7.4895 2.63578 8.33501 2.35044C8.45138 2.31099 8.56907 2.27351 8.67886 2.2196C9.0385 2.04077 9.19432 1.62919 9.04902 1.26101C8.90503 0.894799 8.53554 0.698873 8.15092 0.812615C6.81691 1.20775 5.48356 1.6075 4.1535 2.0171C3.6433 2.17424 3.34021 2.62066 3.33889 3.18017C3.33495 4.62331 3.36388 6.06712 3.3218 7.50895C3.30339 8.15064 3.15414 8.78904 3.04698 9.42613C3.01016 9.64507 2.80832 9.76473 2.61107 9.73185C2.40003 9.69701 2.25999 9.52081 2.29154 9.28214C2.354 8.8114 2.43816 8.34328 2.50851 7.87384C2.53021 7.72854 2.54796 7.58127 2.54796 7.43465C2.55059 6.04082 2.54861 4.64698 2.54993 3.25314C2.55059 2.21566 3.07262 1.51808 4.06671 1.21893C5.33629 0.836284 6.60455 0.448377 7.87609 0.0716468C8.70056 -0.172275 9.50465 0.223522 9.79656 1.00197C10.101 1.81328 9.6986 2.69495 8.86033 2.99607C7.99773 3.30574 7.12526 3.5878 6.2574 3.88234C6.15681 3.91653 6.05359 3.94546 5.95628 3.98885C5.78468 4.06512 5.66108 4.20385 5.68803 4.39057C5.76693 4.93101 5.85437 5.47145 5.97469 6.004C6.01348 6.17626 6.15812 6.32879 6.26661 6.48066C6.41783 6.69237 6.4152 6.90145 6.2436 7.05201C6.07923 7.19665 5.84517 7.17824 5.67423 6.99678C5.28106 6.5806 5.1134 6.05988 5.01478 5.51418C4.95627 5.19268 4.928 4.86526 4.88592 4.54047V4.53981Z" fill="white"/>
<path d="M6.6256 5.83897C6.64006 4.43724 8.12068 3.24065 9.48559 3.52928C10.646 3.77451 11.3357 4.9619 10.9728 6.09012C10.5724 7.33471 9.21734 8.11447 8.05362 7.77062C7.19891 7.51815 6.61639 6.72984 6.6256 5.83963V5.83897ZM10.2798 5.46881C10.2785 4.93166 9.92873 4.47077 9.40932 4.32219C8.65258 4.10588 7.71371 4.6667 7.46913 5.48065C7.25085 6.20913 7.68084 6.91262 8.42772 7.04806C9.29361 7.20519 10.2818 6.36232 10.2798 5.46881Z" fill="white"/>
</svg>
