<svg width="15" height="16" viewBox="0 0 15 16" fill="none" xmlns="http://www.w3.org/2000/svg">
<path d="M14 7.52035L7.86658 13.7884C7.49473 14.1709 7.05278 14.4747 6.56604 14.6825C6.07929 14.8904 5.55728 14.9983 5.02975 15C4.50221 15.0017 3.97947 14.8972 3.49146 14.6924C3.00344 14.4877 2.55971 14.1867 2.18552 13.8066C1.81133 13.4266 1.51404 12.975 1.31063 12.4776C1.10723 11.9801 1.00167 11.4466 1.00002 10.9075C0.998366 10.3684 1.10063 9.8342 1.30098 9.33547C1.50133 8.83674 1.79584 8.38322 2.16769 8.00081L8.30111 1.73272C8.80751 1.25049 9.47726 0.987947 10.1693 1.00043C10.8614 1.0129 11.5217 1.29943 12.0112 1.79961C12.5006 2.2998 12.781 2.97461 12.7932 3.68187C12.8054 4.38913 12.5485 5.07361 12.0767 5.59112L5.93611 11.8592C5.68578 12.1151 5.3462 12.2588 4.99218 12.2588C4.63816 12.2588 4.29867 12.1151 4.04834 11.8592C3.798 11.6034 3.65737 11.2564 3.65737 10.8946C3.65737 10.5328 3.798 10.1859 4.04834 9.93004L9.74722 4.14969" stroke="white" stroke-width="1.1" stroke-linecap="round" stroke-linejoin="round"/>
</svg>
