<svg width="32" height="34" viewBox="0 0 32 34" fill="none" xmlns="http://www.w3.org/2000/svg">
<path d="M20.2174 0H19.1574C15.441 0.310241 12.7393 3.76814 12.7393 8.00163C12.7393 11.3367 14.381 14.1935 17.0374 15.4151V16.0291C17.0374 16.6173 17.5674 17.0956 18.0974 17.0956V32.0906C18.0974 32.6723 18.5627 32.9049 19.1509 32.9049H20.2238C20.8185 32.9049 21.2838 32.6723 21.2838 32.0906V17.0956C21.8138 17.0956 22.3438 16.6173 22.3438 16.0291V15.4151C25.0003 14.2 26.6355 11.3367 26.6355 8.00163C26.6355 3.76814 23.9338 0.310241 20.2238 0H20.2174ZM15.9709 5.30642V7.43932H14.8916C14.9497 6.8964 15.1307 5.84287 15.4022 5.30642H15.9709ZM19.1574 13.8445C18.6209 13.7411 17.5609 13.3985 17.0374 12.8815V11.6728H19.1574V13.8445ZM17.0374 10.6128V8.49285H19.1574V10.6128H17.0374ZM20.2174 8.49285H22.3373V10.6128H20.2174V8.49285ZM20.2174 7.43286V5.29995H22.3373V7.43286H20.2174ZM19.1574 7.43286H17.0374V5.29995H19.1574V7.43286ZM15.9709 8.49285V10.6128H15.4022C15.1307 10.0828 14.9497 9.55284 14.8916 8.49285H15.9709ZM20.2174 13.8445V11.6728H22.3373V12.8815C21.8073 13.3985 20.7474 13.7411 20.2174 13.8445ZM23.4038 10.6128V8.49285H24.4832C24.425 9.55284 24.244 10.0828 23.9726 10.6128H23.4038ZM23.4038 7.43286V5.29995H23.9726C24.244 5.82995 24.425 6.88994 24.4832 7.43286H23.4038ZM22.3438 3.10241V4.24642H20.2238V2.14583C20.7538 2.24925 21.8138 2.59181 22.3438 3.10887V3.10241ZM19.1638 4.24642H17.0439V3.10241C17.5739 2.58534 18.6338 2.24925 19.1638 2.13937V4.23996V4.24642ZM20.2238 27.5985H19.1638V16.9792H20.2238V27.5985Z" fill="#59F4FF"/>
<path d="M6.41811 33.1312V32.9114H7.47811V33.1312C11.1945 32.8145 13.8962 29.3501 13.8962 25.136C13.8962 21.7944 12.2545 18.9312 9.60456 17.7161V17.0956C9.60456 16.5074 9.06809 16.0291 8.54456 16.0291V1.04061C8.54456 0.452441 7.96932 0.00646973 7.37469 0.00646973H6.30177C5.71361 0.00646973 5.35813 0.452441 5.35813 1.04061V16.0291C4.82167 16.0291 4.29813 16.5074 4.29813 17.0956V17.7161C1.64169 18.9312 0 21.7944 0 25.136C0 29.3566 2.70168 32.8145 6.41811 33.1312ZM10.6645 27.5985V25.4721H11.634C11.5823 26.5385 11.3949 27.0685 11.1234 27.5985H10.6645ZM7.47811 19.2737C8.0081 19.3836 9.06809 19.7197 9.59809 20.2303V21.2321H7.47811V19.2737ZM9.59809 22.2921V24.4186H7.47811V22.2921H9.59809ZM6.41811 24.4186H4.29813V22.2921H6.41811V24.4186ZM6.41811 25.4721V27.5985H4.29813V25.4721H6.41811ZM7.47811 25.4721H9.59809V27.5985H7.47811V25.4721ZM10.6645 24.4186V22.2921H11.1234C11.3949 23.3521 11.5823 23.8821 11.634 24.4186H10.6645ZM6.41811 19.2737V21.2321H4.29813V20.2303C4.82166 19.7197 5.35812 19.3836 6.41811 19.2737ZM3.23168 22.2921V24.4186H2.03595C2.09412 23.8821 2.2751 23.3521 2.54656 22.2921H3.22521H3.23168ZM3.23168 25.4721V27.5985H2.55303C2.28157 27.0685 2.10059 26.5385 2.04242 25.4721H3.23815H3.23168ZM4.29813 30.0158V28.6585H6.41811V30.9724C5.35812 30.869 4.82166 30.5264 4.29813 30.0158ZM7.47811 28.6585H9.59809V30.0158C9.06163 30.5329 8.0081 30.869 7.47811 30.9724V28.6585ZM6.41811 5.30642H7.47811V15.9192H6.41811V5.30642Z" fill="black"/>
<path d="M29.8542 14.9497C28.6714 14.9497 27.7148 15.9192 27.7148 17.0955C27.7148 18.2718 28.6714 19.2413 29.8542 19.2413C31.037 19.2413 32.0001 18.2848 32.0001 17.0955C32.0001 15.9062 31.037 14.9497 29.8542 14.9497Z" fill="#F59500"/>
</svg>
