<svg width="34" height="33" viewBox="0 0 34 33" fill="none" xmlns="http://www.w3.org/2000/svg">
<path d="M4.43405 5.2686C1.68768 8.22048 0 12.1501 0 16.4907C0 20.8313 1.68768 24.7672 4.43405 27.7253C7.41706 24.898 9.29156 20.9123 9.29156 16.4907C9.29156 12.0691 7.41706 8.0897 4.43405 5.2686Z" fill="black"/>
<path d="M28.5846 5.2686C25.6016 8.0897 23.7271 12.0691 23.7271 16.4907C23.7271 20.9123 25.6016 24.898 28.5846 27.7253C31.3247 24.7672 33.0186 20.8313 33.0186 16.4907C33.0186 12.1501 31.3309 8.21425 28.5846 5.2686Z" fill="black"/>
<path d="M21.6716 16.4969C21.6716 11.521 23.764 7.03718 27.1083 3.84242C24.2373 1.43857 20.5444 0 16.5151 0C12.4859 0 8.79291 1.43857 5.92822 3.84242C9.26621 7.03718 11.3587 11.5273 11.3587 16.4969C11.3587 21.4665 9.26621 25.9566 5.92822 29.1514C8.79291 31.5552 12.4859 33 16.5151 33C20.5444 33 24.2311 31.5552 27.1083 29.1514C23.764 25.9566 21.6716 21.4665 21.6716 16.4969Z" fill="#D22E7E"/>
</svg>
