<svg width="13" height="15" viewBox="0 0 13 15" fill="none" xmlns="http://www.w3.org/2000/svg">
<path d="M8.51665 7.25593C8.87467 7.44545 9.23268 7.61658 9.57896 7.81221C9.69891 7.8784 9.79314 7.98598 9.84558 8.1164C9.89801 8.24682 9.9054 8.39212 9.86653 8.5276C9.84903 8.61002 9.81533 8.68777 9.76756 8.75596C9.71978 8.82415 9.65897 8.88122 9.58895 8.92372C9.51893 8.96622 9.44124 8.99316 9.36073 9.00283C9.28022 9.0125 9.19866 9.00478 9.12119 8.97999C9.05661 8.96156 8.99522 8.93259 8.93925 8.89432C8.51643 8.63085 8.06268 8.42537 7.58933 8.28297C6.94692 8.10478 6.27711 8.06029 5.61815 8.15192C4.9592 8.24355 4.32405 8.46953 3.749 8.817C3.17395 9.16448 2.67028 9.62667 2.26679 10.177C1.8633 10.7274 1.56789 11.3552 1.39746 12.0245C1.35051 12.2018 1.3153 12.3851 1.28595 12.5624C1.25074 12.8314 1.24488 13.1005 1.22727 13.3695C1.2268 13.5028 1.18718 13.6329 1.11375 13.7422C1.04032 13.8514 0.936579 13.9347 0.816432 13.9808C0.70139 14.0266 0.575445 14.0336 0.456421 14.0007C0.337396 13.9678 0.231321 13.8966 0.153223 13.7974C0.048166 13.6728 -0.00652433 13.5107 0.000621576 13.345C0.00645064 12.4472 0.190987 11.5605 0.542537 10.7408C0.894086 9.92105 1.40503 9.18611 2.04308 8.58252C2.56982 8.0646 3.18224 7.65035 3.85073 7.35982L3.95053 7.31101C3.41467 6.9177 2.98406 6.3884 2.69956 5.77322C2.41505 5.15805 2.28606 4.47737 2.32479 3.79573C2.34529 3.28215 2.46321 2.77785 2.67172 2.31197C2.88024 1.84609 3.17523 1.42774 3.53969 1.0812C3.91273 0.719923 4.35041 0.438801 4.82778 0.253725C5.30515 0.0686481 5.81285 -0.016626 6.32188 0.00267564C6.8309 0.0219772 7.3313 0.145523 7.79448 0.366264C8.25767 0.587005 8.67455 0.90054 9.02139 1.28912C9.36822 1.67769 9.63821 2.13368 9.81588 2.63093C9.99356 3.12818 10.0755 3.657 10.0569 4.18722C10.0384 4.71745 9.91979 5.23865 9.70788 5.72113C9.49596 6.20361 9.1949 6.63793 8.82186 6.99921C8.73382 7.0848 8.63405 7.17034 8.53428 7.24981L8.51665 7.25593ZM3.53969 4.05857C3.54085 4.6051 3.69758 5.13902 3.99004 5.59277C4.28251 6.04652 4.69756 6.39968 5.18274 6.60771C5.66792 6.81574 6.20144 6.86926 6.71581 6.76145C7.23018 6.65364 7.70228 6.38934 8.07246 6.00203C8.44264 5.61472 8.69427 5.12185 8.79549 4.58559C8.89671 4.04932 8.84299 3.49376 8.64114 2.98929C8.43928 2.48483 8.09834 2.05414 7.66144 1.75151C7.22454 1.44888 6.71133 1.28791 6.18665 1.28912C5.83806 1.28911 5.4929 1.36084 5.17099 1.50016C4.84908 1.63949 4.55674 1.84374 4.31079 2.10107C4.06485 2.3584 3.87012 2.66381 3.73779 2.99974C3.60546 3.33567 3.53814 3.69546 3.53969 4.05857Z" fill="#FD26D9"/>
<path d="M9.7664 12.4709L9.87204 12.312L11.8558 9.21849C11.924 9.08008 12.0402 8.97402 12.1809 8.92177C12.3215 8.86952 12.476 8.87503 12.6129 8.9373C12.6883 8.96496 12.7575 9.00838 12.8162 9.06491C12.875 9.12144 12.922 9.18997 12.9545 9.26611C12.9869 9.34225 13.004 9.42446 13.0048 9.50775C13.0056 9.59105 12.9901 9.67363 12.9592 9.75044C12.9445 9.79547 12.9248 9.83853 12.9005 9.8788C12.7186 10.1845 12.519 10.4901 12.3136 10.7714L10.4883 13.6202C10.4536 13.6981 10.4045 13.768 10.3437 13.8259C10.2829 13.8838 10.2117 13.9287 10.1341 13.9577C10.0566 13.9867 9.97434 13.9994 9.89206 13.995C9.80979 13.9906 9.72917 13.9691 9.65489 13.932C9.59862 13.9068 9.54698 13.8717 9.50229 13.8281L7.82374 12.6177C7.7536 12.5775 7.69174 12.5234 7.64169 12.4584C7.59164 12.3934 7.55439 12.3186 7.53204 12.2385C7.5097 12.1585 7.50272 12.0747 7.51148 11.9918C7.52024 11.909 7.54459 11.8288 7.58312 11.7557C7.62166 11.6826 7.6736 11.6181 7.73605 11.566C7.79849 11.5139 7.87019 11.4751 7.94704 11.4518C8.02388 11.4285 8.10438 11.4212 8.18393 11.4303C8.26348 11.4395 8.34051 11.4648 8.41065 11.505L8.4752 11.5539C8.90364 11.8657 9.32622 12.1653 9.7664 12.4709Z" fill="#FD26D9"/>
</svg>
