<svg width="21" height="21" viewBox="0 0 21 21" fill="none" xmlns="http://www.w3.org/2000/svg">
<path d="M13.9863 10.7051C14.4394 10.7051 14.8066 11.0723 14.8066 11.5254V14.0048C14.8066 14.2468 14.6996 14.4766 14.5142 14.6326L13.2 15.738C13.0462 15.8673 12.8587 15.9304 12.6724 15.9304C12.4386 15.9304 12.2065 15.8311 12.0442 15.6382C11.7526 15.2913 11.7973 14.774 12.144 14.4824L13.166 13.6228V11.5254C13.166 11.0723 13.5332 10.7051 13.9863 10.7051ZM20.1797 7.46484C19.7266 7.46484 19.3594 7.83206 19.3594 8.28516V9.54735C18.0446 7.95671 16.0786 7.00951 13.9679 7.00951C10.1107 7.00951 6.97266 10.1475 6.97266 14.0048C6.97266 17.862 10.119 21 13.9863 21C15.0431 21 16.0877 20.7619 17.0337 20.3087C17.0497 20.3015 17.0657 20.2944 17.0814 20.2864C17.0857 20.284 17.0901 20.2809 17.0944 20.2785C17.2048 20.2242 17.3144 20.1678 17.4219 20.1076C17.8173 19.8865 17.9586 19.3866 17.7373 18.9912C17.5162 18.5958 17.0165 18.4545 16.6211 18.6756C15.8211 19.1229 14.9101 19.3594 13.9863 19.3594C11.0236 19.3594 8.61328 16.9572 8.61328 14.0048C8.61328 11.0523 11.0153 8.65013 13.9679 8.65013C15.6502 8.65013 17.2125 9.43632 18.217 10.7461H16.9395C16.4864 10.7461 16.1191 11.1133 16.1191 11.5664C16.1191 12.0195 16.4864 12.3867 16.9395 12.3867H18.5391C19.8961 12.3867 21 11.2828 21 9.92578V8.28516C21 7.83206 20.6328 7.46484 20.1797 7.46484ZM19.5936 16.7722C19.2182 16.5186 18.7084 16.6174 18.4549 16.9931C18.2015 17.3688 18.3007 17.8786 18.676 18.1321C18.8167 18.227 18.9763 18.2725 19.1343 18.2725C19.398 18.2725 19.6563 18.1457 19.815 17.9107C20.068 17.5355 19.9693 17.0257 19.5936 16.7722ZM20.9716 14.2361C20.9664 14.2098 20.9598 14.184 20.9521 14.1582C20.9442 14.1328 20.9353 14.1073 20.925 14.0828C20.9148 14.0581 20.9032 14.0334 20.8906 14.01C20.8778 13.9863 20.8643 13.9634 20.8496 13.9411C20.8348 13.9187 20.8183 13.8969 20.8015 13.8764C20.7847 13.8554 20.7662 13.8354 20.7473 13.8165C20.7286 13.7976 20.7084 13.7792 20.6876 13.7623C20.6671 13.7452 20.6448 13.7292 20.6227 13.7144C20.6006 13.6997 20.5772 13.6858 20.5538 13.6734C20.5299 13.6606 20.5057 13.6492 20.4812 13.639C20.4565 13.6287 20.4311 13.6196 20.4058 13.6119C20.3798 13.604 20.3535 13.5975 20.3277 13.5922C20.3015 13.5869 20.2744 13.5827 20.2478 13.5803C20.1944 13.5749 20.1403 13.5749 20.0866 13.5803C20.06 13.5827 20.0332 13.5869 20.007 13.5922C19.9807 13.5975 19.9546 13.604 19.9291 13.6119C19.9036 13.6196 19.8783 13.6287 19.8536 13.639C19.829 13.6492 19.8045 13.6606 19.7811 13.6734C19.7572 13.6858 19.7343 13.6997 19.7122 13.7144C19.6896 13.7292 19.6678 13.7452 19.6473 13.7623C19.6265 13.7792 19.6063 13.7976 19.5874 13.8165C19.5681 13.8354 19.55 13.8554 19.5329 13.8764C19.5161 13.8969 19.5 13.9187 19.4853 13.9411C19.4706 13.9634 19.4566 13.9863 19.4443 14.01C19.4316 14.0334 19.4201 14.0581 19.4098 14.0828C19.3996 14.1073 19.3906 14.1328 19.3828 14.1582C19.3751 14.184 19.3683 14.2098 19.3631 14.2361C19.3578 14.2624 19.3536 14.2895 19.3512 14.3157C19.3483 14.3428 19.347 14.3699 19.347 14.3965C19.347 14.4231 19.3483 14.4502 19.3512 14.4772C19.3536 14.5035 19.3578 14.5306 19.3631 14.5569C19.3685 14.5827 19.3751 14.6089 19.3828 14.6347C19.3906 14.6602 19.3996 14.6857 19.4098 14.7102C19.4201 14.7349 19.4316 14.7595 19.4443 14.7829C19.4566 14.8062 19.4706 14.8296 19.4853 14.8518C19.5 14.8743 19.5161 14.896 19.5329 14.9165C19.55 14.9375 19.5681 14.9576 19.5874 14.9765C19.6063 14.9954 19.6265 15.0138 19.6473 15.0306C19.6678 15.0474 19.6896 15.0638 19.7122 15.0785C19.7343 15.0933 19.7572 15.1072 19.7811 15.1195C19.8045 15.1324 19.829 15.1437 19.8536 15.154C19.8783 15.1642 19.9036 15.1734 19.9291 15.1811C19.9546 15.1889 19.9809 15.1955 20.007 15.2008C20.0332 15.2061 20.06 15.2102 20.0866 15.2126C20.1132 15.2155 20.1408 15.2168 20.1674 15.2168C20.1941 15.2168 20.2212 15.2155 20.2478 15.2126C20.2744 15.2102 20.3016 15.2061 20.3277 15.2008C20.3537 15.1955 20.38 15.1889 20.4058 15.1811C20.4311 15.1734 20.4565 15.1642 20.4812 15.154C20.5057 15.1437 20.5299 15.1324 20.5538 15.1195C20.5772 15.1072 20.6006 15.0933 20.6227 15.0785C20.6448 15.0638 20.6671 15.0474 20.6876 15.0306C20.7084 15.0138 20.7286 14.9954 20.7473 14.9765C20.7662 14.9576 20.7847 14.9375 20.8015 14.9165C20.8183 14.896 20.8348 14.8743 20.8496 14.8518C20.8643 14.8296 20.8778 14.8062 20.8906 14.7829C20.9032 14.7595 20.9148 14.7349 20.925 14.7102C20.9353 14.6857 20.9442 14.6602 20.9521 14.6347C20.9598 14.6089 20.9664 14.5827 20.9716 14.5569C20.9771 14.5306 20.9811 14.5035 20.9837 14.4772C20.9865 14.4502 20.9877 14.4231 20.9877 14.3965C20.9877 14.3699 20.9865 14.3428 20.9837 14.3157C20.9811 14.2895 20.9769 14.2624 20.9716 14.2361ZM6.72656 19.3594H3.28125C2.37666 19.3594 1.64062 18.6233 1.64062 17.7188V4.92188C1.64062 4.01729 2.37666 3.28125 3.28125 3.28125H4.30664V4.10156C4.30664 4.55466 4.67386 4.92188 5.12695 4.92188C5.58005 4.92188 5.94727 4.55466 5.94727 4.10156V3.28125H9.63867V4.10156C9.63867 4.55466 10.0059 4.92188 10.459 4.92188C10.9121 4.92188 11.2793 4.55466 11.2793 4.10156V3.28125H15.0117V4.10156C15.0117 4.55466 15.3789 4.92188 15.832 4.92188C16.2851 4.92188 16.6523 4.55466 16.6523 4.10156V3.28125H17.7188C18.6233 3.28125 19.3594 4.01729 19.3594 4.92188C19.3594 5.37497 19.7266 5.74219 20.1797 5.74219C20.6328 5.74219 21 5.37497 21 4.92188C21 3.11254 19.5281 1.64062 17.7188 1.64062H16.6523V0.820312C16.6523 0.367218 16.2851 0 15.832 0C15.3789 0 15.0117 0.367218 15.0117 0.820312V1.64062H11.2793V0.820312C11.2793 0.367218 10.9121 0 10.459 0C10.0059 0 9.63867 0.367218 9.63867 0.820312V1.64062H5.94727V0.820312C5.94727 0.367218 5.58005 0 5.12695 0C4.67386 0 4.30664 0.367218 4.30664 0.820312V1.64062H3.28125C1.47192 1.64062 0 3.11254 0 4.92188V17.7188C0 19.5281 1.47192 21 3.28125 21H6.72656C7.17966 21 7.54688 20.6328 7.54688 20.1797C7.54688 19.7266 7.17966 19.3594 6.72656 19.3594Z" fill="white"/>
</svg>
