<svg width="22" height="18" viewBox="0 0 22 18" fill="none" xmlns="http://www.w3.org/2000/svg">
<g clip-path="url(#clip0_1_6786)">
<path d="M10.5098 17.88H3.78973C2.81529 17.9097 1.86895 17.5514 1.15838 16.884C0.447807 16.2165 0.0310896 15.2944 -0.000249435 14.32V5.90001C-0.029894 4.92558 0.328332 3.97918 0.995783 3.26861C1.66323 2.55803 2.58536 2.14135 3.55975 2.11001H5.78973C5.8476 2.11874 5.90676 2.1077 5.95758 2.07867C6.00839 2.04963 6.0479 2.00429 6.06976 1.95C6.16976 1.73 6.26977 1.52002 6.38977 1.31002C6.58163 0.91526 6.88199 0.583341 7.25567 0.35311C7.62935 0.122878 8.06088 0.00384588 8.49975 0.0100004H12.4998C12.9348 0.00392932 13.3627 0.120859 13.7342 0.347311C14.1058 0.573763 14.4058 0.900527 14.5998 1.29V1.34002C14.7298 1.59002 14.8098 1.94001 15.0198 2.08001C15.2298 2.22001 15.5698 2.08001 15.8498 2.08001C16.5171 2.05987 17.1849 2.07991 17.8498 2.14001C18.7239 2.24298 19.5298 2.66353 20.1142 3.32171C20.6986 3.97988 21.0209 4.82981 21.0198 5.71001C21.0198 8.57001 21.0198 11.4267 21.0198 14.28C21.0092 15.2419 20.6183 16.1606 19.9325 16.8351C19.2467 17.5097 18.3217 17.8854 17.3597 17.88H10.5098ZM10.5098 16.83H17.1498C17.3978 16.8353 17.6458 16.8152 17.8898 16.77C18.4945 16.6431 19.0349 16.3065 19.4155 15.8198C19.7961 15.3331 19.9924 14.7275 19.9698 14.11V5.90001C19.985 5.71366 19.985 5.52637 19.9698 5.34002C19.8613 4.71258 19.5288 4.1458 19.0341 3.74489C18.5394 3.34399 17.9161 3.13619 17.2798 3.16002H14.8697C14.7339 3.17307 14.5976 3.14094 14.4819 3.06862C14.3662 2.99631 14.2775 2.88781 14.2297 2.76C14.0797 2.44 13.9198 2.13 13.7598 1.82C13.6553 1.59323 13.4872 1.40167 13.276 1.26855C13.0648 1.13542 12.8194 1.06644 12.5698 1.07C11.2298 1.07 9.87976 1.07 8.56976 1.07C8.31958 1.06386 8.07316 1.13178 7.86144 1.26522C7.64973 1.39865 7.48215 1.59165 7.37976 1.82C7.21976 2.14 7.04978 2.45 6.89978 2.82C6.84943 2.94323 6.76131 3.04736 6.64813 3.11742C6.53495 3.18749 6.40252 3.2199 6.26977 3.21001C5.45977 3.21001 4.63977 3.21001 3.82977 3.21001C3.13649 3.18844 2.46292 3.44266 1.95678 3.91692C1.45065 4.39119 1.15325 5.04679 1.12976 5.74001V14.15C1.12944 14.4126 1.15967 14.6744 1.21978 14.93C1.37463 15.5114 1.72412 16.0222 2.21002 16.377C2.69591 16.7319 3.2888 16.9094 3.88977 16.88L10.5098 16.83Z" fill="#8A2BE2"/>
<path d="M5.31982 9.49C5.32909 8.11128 5.8845 6.79245 6.86432 5.82246C7.84414 4.85246 9.16844 4.31041 10.5472 4.31504C11.9259 4.31967 13.2466 4.87062 14.2199 5.84717C15.1932 6.82373 15.7397 8.14625 15.7397 9.525C15.7397 10.9037 15.1932 12.2263 14.2199 13.2028C13.2466 14.1794 11.9259 14.7303 10.5472 14.735C9.16844 14.7396 7.84414 14.1975 6.86432 13.2275C5.8845 12.2575 5.32909 10.9387 5.31982 9.56V9.49ZM10.5798 13.67C11.4101 13.666 12.2205 13.4161 12.9088 12.9518C13.597 12.4874 14.1323 11.8295 14.4468 11.0611C14.7613 10.2928 14.841 9.44841 14.6759 8.63474C14.5108 7.82107 14.1082 7.07461 13.519 6.48963C12.9299 5.90465 12.1805 5.5074 11.3657 5.34809C10.5509 5.18878 9.70715 5.27455 8.94104 5.59455C8.17493 5.91455 7.52082 6.45441 7.0614 7.14597C6.60198 7.83753 6.35783 8.64974 6.3598 9.47999C6.36111 10.0324 6.47142 10.5791 6.68433 11.0888C6.89723 11.5985 7.20859 12.0613 7.60059 12.4505C7.99258 12.8397 8.45752 13.1477 8.96875 13.357C9.47998 13.5663 10.0274 13.6726 10.5798 13.67Z" fill="#8A2BE2"/>
</g>
<defs>
<clipPath id="clip0_1_6786">
<rect width="21.04" height="17.88" fill="white"/>
</clipPath>
</defs>
</svg>
