<svg width="18" height="16" viewBox="0 0 18 16" fill="none" xmlns="http://www.w3.org/2000/svg">
<g clip-path="url(#clip0_2001_62)">
<path d="M9.00035 16H2.29044C1.7085 16.0254 1.14049 15.8131 0.711122 15.4097C0.281753 15.0063 0.0261271 14.4448 0.000365093 13.8484V4.81185C-0.0129407 4.51564 0.0311306 4.21949 0.13003 3.94083C0.228929 3.66216 0.380683 3.40645 0.576565 3.18823C0.772447 2.97 1.00858 2.79363 1.27129 2.66943C1.53401 2.54524 1.81813 2.47572 2.10724 2.46467C2.16809 2.45713 2.22959 2.45713 2.29044 2.46467H4.58052C4.63212 2.47378 4.68513 2.46144 4.72803 2.43066C4.77092 2.39989 4.80021 2.35301 4.80952 2.3002C4.88585 2.01854 4.98508 1.73701 5.08431 1.46318C5.23403 1.03431 5.5096 0.663284 5.87316 0.401325C6.23672 0.139366 6.67047 -0.000777509 7.11487 3.24457e-06C8.35915 3.24457e-06 9.61104 3.24457e-06 10.8629 3.24457e-06C11.3061 0.000835296 11.7381 0.141768 12.1001 0.403617C12.4622 0.665466 12.7366 1.03557 12.8859 1.46318C12.9851 1.72919 13.0767 1.9952 13.153 2.24557C13.1558 2.27516 13.1645 2.30375 13.1784 2.32981C13.1924 2.35586 13.2113 2.37875 13.2342 2.39705C13.257 2.41534 13.2833 2.42863 13.3113 2.4362C13.3394 2.44378 13.3686 2.44555 13.3973 2.44117C14.1607 2.44117 14.924 2.44117 15.6874 2.44117C15.9785 2.42647 16.2696 2.4715 16.5434 2.57393C16.8172 2.67635 17.0682 2.83407 17.2817 3.03752C17.4951 3.24097 17.6666 3.48612 17.7861 3.7586C17.9056 4.03108 17.9707 4.32523 17.9775 4.6239V13.6684C17.9897 13.9663 17.9442 14.2638 17.8435 14.5435C17.7428 14.8232 17.5889 15.0797 17.3908 15.298C17.1927 15.5163 16.9543 15.692 16.6894 15.8153C16.4245 15.9385 16.1385 16.0066 15.8477 16.0156H8.97747L9.00035 16ZM9.00035 14.7717H15.7103C15.8417 14.7858 15.9746 14.7728 16.1012 14.7339C16.2277 14.695 16.3455 14.6309 16.4478 14.545C16.55 14.4592 16.6346 14.3534 16.6966 14.2338C16.7587 14.1143 16.7971 13.9832 16.8095 13.8484C16.8175 13.7834 16.8175 13.7177 16.8095 13.6528V4.81185C16.8222 4.67775 16.8089 4.54223 16.7704 4.4134C16.732 4.28456 16.6691 4.16489 16.5854 4.06097C16.5018 3.95706 16.399 3.87103 16.2829 3.80788C16.1668 3.74473 16.0396 3.70564 15.9087 3.69289H12.8553C12.7077 3.71016 12.5592 3.67112 12.438 3.58306C12.3169 3.49499 12.2317 3.36418 12.1988 3.21574C12.0614 2.80107 11.9317 2.38633 11.7943 1.97949C11.7366 1.75651 11.6056 1.56078 11.4234 1.42535C11.2412 1.28993 11.019 1.22314 10.7943 1.23625H7.19119C6.96678 1.22462 6.74527 1.29187 6.56337 1.42707C6.38147 1.56228 6.25013 1.75725 6.19119 1.97949C6.06142 2.38633 5.93164 2.76192 5.79423 3.19224C5.76445 3.35021 5.67648 3.49039 5.54855 3.58363C5.42063 3.67687 5.2626 3.71592 5.10724 3.69289H2.29808C2.1495 3.67816 1.99956 3.69751 1.85914 3.74943C1.71872 3.80135 1.59132 3.8846 1.48613 3.99316C1.38094 4.10173 1.30062 4.23283 1.25093 4.3771C1.20125 4.52138 1.18345 4.67514 1.19884 4.82733V13.6293C1.17103 13.901 1.2494 14.1731 1.4168 14.3857C1.5842 14.5983 1.82696 14.7344 2.09196 14.7639H8.96219L9.00035 14.7717Z" fill="white"/>
<path d="M4.50391 8.92704C4.5024 8.01406 4.76507 7.12112 5.2587 6.36114C5.75233 5.60117 6.45471 5.0083 7.2771 4.65748C8.09948 4.30667 9.00493 4.21385 9.87887 4.39044C10.7528 4.56704 11.556 5.00513 12.187 5.64961C12.8179 6.2941 13.2482 7.11599 13.4235 8.01113C13.5987 8.90627 13.5111 9.83457 13.1716 10.6786C12.8321 11.5227 12.2561 12.2446 11.5162 12.7531C10.7764 13.2616 9.90611 13.5339 9.01534 13.5355C7.82147 13.5355 6.67628 13.0505 5.83066 12.1867C4.98504 11.3229 4.50795 10.1507 4.50391 8.92704ZM12.3054 8.92704C12.3069 8.25855 12.115 7.60472 11.7539 7.04803C11.3928 6.49134 10.8787 6.05681 10.2767 5.79956C9.67472 5.54231 9.01185 5.47392 8.37186 5.60282C7.73188 5.73171 7.14354 6.05229 6.68128 6.52389C6.21902 6.99549 5.90361 7.59685 5.77489 8.25219C5.64616 8.90753 5.70993 9.58731 5.95813 10.2055C6.20633 10.8237 6.62777 11.3525 7.16924 11.7252C7.7107 12.0979 8.34784 12.2977 9.00006 12.2992C9.87202 12.2971 10.7077 11.9413 11.3243 11.3094C11.9409 10.6774 12.2881 9.82075 12.2901 8.92704H12.3054Z" fill="white"/>
</g>
<defs>
<clipPath id="clip0_2001_62">
<rect width="18" height="16" fill="white"/>
</clipPath>
</defs>
</svg>
