<svg width="24" height="20" viewBox="0 0 24 20" fill="none" xmlns="http://www.w3.org/2000/svg">
<path d="M13.4164 20L12.0387 19.2308L15.2057 13.8462H19.9563C20.3763 13.8462 20.779 13.6841 21.076 13.3955C21.373 13.107 21.5398 12.7157 21.5398 12.3077V3.07692C21.5398 2.6689 21.373 2.27758 21.076 1.98907C20.779 1.70055 20.3763 1.53846 19.9563 1.53846H4.12113C3.70116 1.53846 3.29839 1.70055 3.00142 1.98907C2.70445 2.27758 2.53762 2.6689 2.53762 3.07692V12.3077C2.53762 12.7157 2.70445 13.107 3.00142 13.3955C3.29839 13.6841 3.70116 13.8462 4.12113 13.8462H11.247V15.3846H4.12113C3.28118 15.3846 2.47564 15.0604 1.8817 14.4834C1.28777 13.9064 0.954102 13.1237 0.954102 12.3077V3.07692C0.954102 2.26087 1.28777 1.47824 1.8817 0.90121C2.47564 0.324175 3.28118 0 4.12113 0H19.9563C20.7962 0 21.6018 0.324175 22.1957 0.90121C22.7897 1.47824 23.1233 2.26087 23.1233 3.07692V12.3077C23.1233 13.1237 22.7897 13.9064 22.1957 14.4834C21.6018 15.0604 20.7962 15.3846 19.9563 15.3846H16.1242L13.4164 20Z" fill="white"/>
<path d="M5.70459 4.61536H18.3727V6.15382H5.70459V4.61536ZM5.70459 9.23074H13.6222V10.7692H5.70459V9.23074Z" fill="white"/>
</svg>
