<svg width="24" height="20" viewBox="0 0 24 20" fill="none" xmlns="http://www.w3.org/2000/svg">
<path d="M13.4161 20L12.0385 19.2308L15.2055 13.8462H19.9561C20.376 13.8462 20.7788 13.6841 21.0758 13.3955C21.3727 13.107 21.5396 12.7157 21.5396 12.3077V3.07692C21.5396 2.6689 21.3727 2.27758 21.0758 1.98907C20.7788 1.70055 20.376 1.53846 19.9561 1.53846H4.12089C3.70092 1.53846 3.29814 1.70055 3.00117 1.98907C2.70421 2.27758 2.53737 2.6689 2.53737 3.07692V12.3077C2.53737 12.7157 2.70421 13.107 3.00117 13.3955C3.29814 13.6841 3.70092 13.8462 4.12089 13.8462H11.2467V15.3846H4.12089C3.28094 15.3846 2.47539 15.0604 1.88146 14.4834C1.28753 13.9064 0.953857 13.1237 0.953857 12.3077V3.07692C0.953857 2.26087 1.28753 1.47824 1.88146 0.90121C2.47539 0.324175 3.28094 0 4.12089 0H19.9561C20.796 0 21.6015 0.324175 22.1955 0.90121C22.7894 1.47824 23.1231 2.26087 23.1231 3.07692V12.3077C23.1231 13.1237 22.7894 13.9064 22.1955 14.4834C21.6015 15.0604 20.796 15.3846 19.9561 15.3846H16.1239L13.4161 20Z" fill="#062240"/>
<path d="M5.70435 4.61536H18.3725V6.15382H5.70435V4.61536ZM5.70435 9.23074H13.6219V10.7692H5.70435V9.23074Z" fill="#062240"/>
</svg>
