<svg width="20" height="21" viewBox="0 0 20 21" fill="none" xmlns="http://www.w3.org/2000/svg">
<path d="M16.2669 10.3966C16.2784 10.4683 16.3361 10.4978 16.3924 10.5106C17.1024 10.6682 17.7277 10.995 18.2749 11.464C18.9348 12.0304 19.4295 12.7121 19.7178 13.5463C19.9369 14.1819 20.0356 14.8291 19.9882 15.4916C19.9267 16.3527 19.6678 17.1549 19.1706 17.875C18.4427 18.9271 17.4586 19.6063 16.2143 19.8856C15.2212 20.1086 14.2255 20.0496 13.2952 19.6357C12.0727 19.0911 11.1719 18.2005 10.6734 16.9306C10.5862 16.7089 10.5427 16.4744 10.4479 16.2566C10.4043 15.9478 10.3607 15.6377 10.3184 15.3288C10.3184 15.2891 10.3184 15.2481 10.3184 15.2084C10.3184 15.1943 10.3184 15.1802 10.3184 15.1674C10.3043 14.9495 10.3928 14.7381 10.3633 14.519C10.3915 14.3895 10.4184 14.2601 10.4491 14.132C10.6631 13.1978 11.1065 12.3802 11.7882 11.7139C12.402 11.1142 13.1325 10.6926 13.9757 10.4824C14.1474 10.4401 14.3345 10.4517 14.4908 10.3517C14.7061 10.344 14.9226 10.3363 15.1379 10.3299C15.1674 10.3299 15.1969 10.3299 15.2263 10.3299C15.2648 10.3312 15.3032 10.3325 15.3417 10.3338C15.4314 10.3773 15.5198 10.2915 15.5954 10.3146C15.8171 10.3812 16.0413 10.3979 16.2681 10.3966H16.2669ZM12.3149 15.6915C12.2842 15.7261 12.2534 15.7632 12.2214 15.7966C12.0125 16.0106 12.0125 16.0644 12.2214 16.2745C12.3726 16.427 12.5366 16.5654 12.6929 16.7115C13.0748 17.0716 13.4323 17.456 13.8309 17.7969C14.0308 17.9673 14.1333 17.9724 14.2999 17.7674C14.6625 17.3202 15.0187 16.8678 15.3788 16.4206C15.9081 15.7645 16.4386 15.111 16.9691 14.4549C17.2638 14.0897 17.5573 13.7245 17.8533 13.3605C17.9532 13.2362 17.9622 13.1273 17.8251 13.0171C17.6483 12.8749 17.4765 12.7249 17.3074 12.5725C17.0601 12.352 16.996 12.361 16.7961 12.6109C16.099 13.481 15.3968 14.3472 14.6971 15.2148C14.6446 15.2122 14.6151 15.2314 14.6253 15.2891C14.4331 15.5326 14.2409 15.7748 14.0487 16.0182C14.0167 16.0234 13.9795 16.0182 13.9705 16.0644C13.8911 16.0695 13.836 16.0285 13.7809 15.9747C13.5297 15.7325 13.2734 15.4967 13.0235 15.2532C12.9556 15.1866 12.8864 15.1494 12.7929 15.1802C12.766 15.1699 12.7583 15.1879 12.7519 15.2071C12.6173 15.3583 12.4828 15.5082 12.3482 15.6594C12.3239 15.6582 12.3123 15.6671 12.3175 15.6928L12.3149 15.6915Z" fill="#FF5722"/>
<path d="M16.2669 10.3966C16.0388 10.3978 15.8159 10.3812 15.5942 10.3145C15.5199 10.2915 15.4314 10.3786 15.3405 10.3351C15.4391 9.94421 15.5147 9.54953 15.5711 9.151C15.5814 9.0754 15.6339 8.97288 15.5019 8.93828C15.5019 8.89728 15.5019 8.85755 15.5019 8.81655C15.5019 8.80245 15.5019 8.78964 15.5019 8.77554C15.6108 8.76657 15.6211 8.69225 15.6237 8.60511C15.6313 8.4334 15.6339 8.25912 15.6403 8.08869C15.6442 7.97849 15.7134 7.77858 15.5019 7.72348C15.5019 7.70938 15.5019 7.69657 15.5019 7.68247C15.5019 7.65556 15.5019 7.62865 15.5019 7.60174C15.6403 7.55945 15.5852 7.44541 15.5737 7.36596C15.4904 6.76881 15.3546 6.18575 15.1354 5.62064C14.7856 4.71466 14.2717 3.91632 13.6041 3.21538C13.5477 3.15643 13.4913 3.09749 13.3991 3.11158C13.344 3.08467 13.3042 3.04495 13.2773 2.98984C13.2889 2.90655 13.2453 2.84889 13.1876 2.79891C13.0723 2.69768 12.9608 2.59004 12.8391 2.49649C11.7755 1.67253 10.5812 1.15354 9.24593 0.971579C9.18058 0.962609 9.0896 0.934417 9.07038 1.04847C9.05628 1.04847 9.04347 1.04847 9.02937 1.04847C9.01528 1.04847 9.00246 1.04847 8.98837 1.04847C8.90123 0.89213 8.67185 0.871626 8.54371 1.00746C8.36815 1.00746 8.19259 1.00746 8.01832 1.00746C7.88889 0.871626 7.65951 0.89213 7.57366 1.04847C7.55956 1.04847 7.54675 1.04847 7.53265 1.04847C7.50574 1.04847 7.47883 1.04847 7.45192 1.04847C7.44295 0.961327 7.3776 0.961327 7.31737 0.971579C6.65871 1.06769 6.01415 1.22018 5.40418 1.48928C4.28292 1.9852 3.32569 2.70024 2.55426 3.65876C1.69314 4.72876 1.17031 5.94484 0.9845 7.30445C0.97553 7.3698 0.947338 7.46078 1.06139 7.48001C1.06139 7.4941 1.06139 7.50692 1.06139 7.52101C1.06139 7.53511 1.06139 7.54792 1.06139 7.56202C0.906332 7.64787 0.884547 7.91826 1.02038 8.04768C1.02038 8.20914 1.02038 8.37189 1.02038 8.53335C0.884547 8.66277 0.90505 8.89215 1.06139 8.97801C1.06139 8.9921 1.06139 9.00492 1.06139 9.01901C1.06139 9.03311 1.06139 9.04592 1.06139 9.06002C0.960152 9.07411 0.974248 9.15356 0.983218 9.21507C1.03191 9.53928 1.08701 9.8622 1.17415 10.1774C1.42019 11.0655 1.80975 11.8869 2.36461 12.6237C2.45687 12.7467 2.50813 12.9415 2.71957 12.9428C2.73494 13.144 2.84259 13.2644 3.04377 13.3067C3.08221 13.3221 3.10912 13.349 3.1245 13.3874C3.11297 13.4707 3.15654 13.5271 3.2142 13.5784C3.36798 13.7168 3.51406 13.8667 3.6768 13.9948C4.76987 14.8662 6.01286 15.3878 7.39938 15.5672C7.46473 15.5761 7.55572 15.6043 7.57494 15.4903C7.61594 15.4903 7.65567 15.4903 7.69667 15.4903C7.71077 15.4903 7.72358 15.4903 7.73768 15.4903C7.74537 15.5851 7.8056 15.612 7.89017 15.612C8.13877 15.612 8.38865 15.612 8.63725 15.612C8.72183 15.612 8.78205 15.5864 8.78974 15.4903C8.80384 15.4903 8.81665 15.4903 8.83075 15.4903C8.87175 15.4903 8.91148 15.4903 8.95248 15.4903C8.97171 15.6043 9.06269 15.5761 9.12676 15.5659C9.52785 15.5031 9.92894 15.4365 10.3211 15.3275C10.3646 15.6364 10.4082 15.9465 10.4505 16.2553C10.3018 16.2989 10.1519 16.3424 10.0033 16.386C9.96226 16.386 9.92253 16.386 9.88153 16.386C9.3728 16.5334 8.85125 16.5308 8.32714 16.5487C7.23792 16.5859 6.2038 16.3578 5.19915 15.9644C4.3739 15.6402 3.63195 15.1815 2.95407 14.6112C2.3377 14.0922 1.80078 13.5015 1.35227 12.8351C1.15237 12.5378 0.965278 12.2265 0.819194 11.8946C0.808943 11.8805 0.798691 11.8651 0.78844 11.851C0.643637 11.4858 0.482176 11.127 0.359158 10.7554C0.209229 10.2966 0.101589 9.82504 0.0464867 9.34322C0.0849298 9.26505 0.00419921 9.21123 0.00548065 9.14075C0.0144507 8.4398 -0.0316811 7.73757 0.0464867 7.03663C0.0836484 6.98921 0.107996 6.93796 0.0874927 6.87517C0.256643 5.93459 0.585972 5.05168 1.02422 4.20593C1.09727 4.20593 1.1088 4.15723 1.10624 4.09829C1.51117 3.41528 1.98787 2.7861 2.56708 2.24277C3.38207 1.47775 4.3124 0.879315 5.36574 0.503854C6.03977 0.262943 6.73431 0.0886674 7.45961 0.0310027C8.54371 -0.0548537 9.60089 0.034847 10.6465 0.334704C11.5666 0.59868 12.406 1.02668 13.1723 1.58667C14.1731 2.31837 14.9752 3.2346 15.5609 4.32895C15.9402 5.03758 16.2323 5.78466 16.381 6.57787C16.4527 6.95974 16.5181 7.34545 16.5245 7.74014C16.5296 7.98489 16.5745 8.23349 16.554 8.47953C16.504 9.09846 16.4797 9.72124 16.2759 10.3158C16.2669 10.3402 16.2721 10.3696 16.2708 10.3966H16.2669Z" fill="#8A2BE2"/>
<path d="M1.10229 4.09839C1.10485 4.15733 1.09332 4.20475 1.02028 4.20603C0.994649 4.12914 1.05488 4.11889 1.10229 4.09839Z" fill="#9845E5"/>
<path d="M0.787519 11.8511C0.79777 11.8652 0.808022 11.8805 0.818274 11.8946C0.796489 11.8882 0.778549 11.878 0.787519 11.8511Z" fill="#9845E5"/>
<path d="M2.85395 4.48912C2.74631 4.80948 2.5195 5.06449 2.37854 5.36691C2.06202 6.04095 1.84418 6.73805 1.74166 7.47744C1.70322 7.75295 1.725 8.02333 1.71091 8.295C1.69937 8.509 1.70706 8.72428 1.70578 8.93828C1.71603 8.96775 1.70322 9.00748 1.74807 9.01901C1.8147 9.55849 1.94541 10.0839 2.12481 10.5965C2.11328 10.6247 2.1325 10.6323 2.153 10.6387C2.24655 10.9553 2.42467 11.2321 2.56691 11.5255C2.56178 11.5832 2.54 11.6524 2.64251 11.6396C3.01669 12.2393 3.45751 12.7788 4.00084 13.2375C4.43012 13.6002 4.88631 13.9218 5.38864 14.1665C6.01398 14.4702 6.6752 14.665 7.36846 14.7688C7.89385 14.847 8.41667 14.8214 8.93822 14.7945C9.34187 14.7727 9.74168 14.6714 10.1312 14.5535C10.2107 14.5292 10.285 14.5177 10.3645 14.5189C10.3939 14.7381 10.3055 14.9482 10.3196 15.1674C10.1556 15.1738 9.99156 15.1789 9.88136 15.3288C9.85445 15.3288 9.82754 15.3288 9.80063 15.3288C9.73399 15.2622 9.69555 15.2827 9.67889 15.3685C9.65198 15.3685 9.62507 15.3685 9.59816 15.3685C9.53153 15.3019 9.49308 15.3224 9.47643 15.4083C9.44952 15.4083 9.4226 15.4083 9.39569 15.4083C9.29446 15.2494 9.24448 15.3493 9.19323 15.448H9.07149C8.96129 15.2865 8.89337 15.3788 8.8293 15.489C8.8152 15.489 8.80239 15.489 8.78829 15.489C8.66656 15.489 8.5461 15.489 8.42436 15.489C8.31672 15.3583 8.20908 15.3583 8.10016 15.489C7.97842 15.489 7.85797 15.489 7.73623 15.489C7.72214 15.489 7.70932 15.489 7.69523 15.489C7.62346 15.3403 7.5863 15.3327 7.49276 15.4493C7.43894 15.4493 7.38512 15.4493 7.3313 15.4493C7.25057 15.2404 7.10448 15.3263 6.96737 15.3685C6.92636 15.3685 6.88664 15.3685 6.84563 15.3685C6.83666 15.2827 6.77003 15.2647 6.70339 15.2506C6.1434 15.1328 5.60776 14.9495 5.10159 14.6791C4.98883 14.6189 4.8735 14.5638 4.74279 14.56C4.55442 14.3498 4.31863 14.2101 4.05466 14.1153C4.05081 14.0333 3.99187 14.0333 3.93292 14.0346C3.91626 13.9167 3.8445 13.8693 3.73045 13.8731C3.7138 13.7552 3.64204 13.7078 3.52799 13.7116C3.48954 13.6963 3.46263 13.6694 3.44726 13.6309C3.32168 13.4054 3.14612 13.2298 2.92187 13.1055C2.86805 13.0786 2.82704 13.0389 2.80013 12.9838C2.80397 12.8697 2.75656 12.798 2.63867 12.7813C2.64251 12.6942 2.62201 12.625 2.51693 12.6199C2.53231 12.5135 2.45671 12.4443 2.40417 12.37C2.2017 12.0855 2.02486 11.7844 1.86724 11.4742C1.59302 10.9348 1.40336 10.3632 1.25856 9.77506C1.23934 9.69561 1.27009 9.57515 1.14195 9.5444C1.14195 9.50339 1.14195 9.46367 1.14195 9.42266C1.20858 9.35603 1.18808 9.31759 1.10222 9.30093V9.17919C1.14451 9.17406 1.18296 9.15997 1.17655 9.10743C1.16758 9.04208 1.12016 9.02157 1.0625 9.01773C1.0625 9.00363 1.0625 8.99082 1.0625 8.97672C1.0625 8.89599 1.0625 8.81526 1.0625 8.73453C1.16117 8.72172 1.14451 8.64483 1.14195 8.58204C1.13554 8.37316 1.10735 8.16557 1.14195 7.9567C1.1522 7.89519 1.16117 7.81702 1.0625 7.80421C1.0625 7.72348 1.0625 7.64274 1.0625 7.56201C1.0625 7.54792 1.0625 7.5351 1.0625 7.52101C1.12016 7.51716 1.16886 7.49666 1.17655 7.43131C1.18424 7.37749 1.14579 7.36467 1.10222 7.35955C1.10222 7.30573 1.10222 7.25191 1.10222 7.19809C1.22012 7.11223 1.24703 7.00459 1.18296 6.87388C1.18296 6.84697 1.18296 6.82006 1.18296 6.79315C1.2419 6.78931 1.25343 6.75086 1.26625 6.69961C1.50716 5.77056 1.87109 4.89662 2.43108 4.1111C2.46439 4.06369 2.47977 4.01627 2.47593 3.96117C2.581 3.95605 2.60151 3.88685 2.59766 3.79971C2.70274 3.79459 2.72324 3.72539 2.7194 3.63825C2.73478 3.59981 2.76169 3.5729 2.80013 3.55752C2.95134 3.49857 3.06539 3.40887 3.08333 3.23331C3.12177 3.16412 3.17559 3.1103 3.24479 3.07185C3.41907 3.05391 3.51005 2.93858 3.56899 2.78866C3.58437 2.75021 3.61128 2.7233 3.64972 2.70793C3.70867 2.70793 3.76762 2.70921 3.77146 2.62719C3.78556 2.61438 3.79837 2.60028 3.81247 2.58747C3.8996 2.59131 3.9688 2.57081 3.97393 2.46573C4.06491 2.48367 4.12386 2.41704 4.19049 2.37603C4.41346 2.24148 4.63387 2.10309 4.85428 1.96469C4.93373 1.91343 5.05803 1.91087 5.067 1.7776C5.07981 1.7776 5.09391 1.7776 5.10672 1.7776C5.15926 1.77119 5.21692 1.7776 5.26306 1.7571C5.73975 1.5495 6.22798 1.37651 6.73287 1.25221C6.78028 1.24068 6.80078 1.21633 6.80591 1.17148C6.83282 1.17148 6.85973 1.17148 6.88664 1.17148C6.95327 1.23812 6.99172 1.21761 7.00837 1.13176C7.03528 1.13176 7.06219 1.13176 7.0891 1.13176C7.09551 1.16379 7.09679 1.2048 7.14164 1.19583C7.19546 1.18558 7.207 1.13944 7.20956 1.09075C7.26338 1.09075 7.3172 1.09075 7.37102 1.09075C7.37615 1.13432 7.39024 1.17276 7.44278 1.16507C7.50814 1.1561 7.52864 1.10869 7.53248 1.05103C7.54658 1.05103 7.55939 1.05103 7.57349 1.05103C7.6414 1.05103 7.70804 1.05103 7.77596 1.05103C7.79005 1.15226 7.86822 1.13176 7.93229 1.13047C8.15142 1.12919 8.37054 1.10613 8.58967 1.13047C8.65246 1.13688 8.73191 1.15226 8.746 1.05103H8.9882C9.00229 1.05103 9.01511 1.05103 9.0292 1.05103C9.03177 1.09844 9.04458 1.14585 9.0984 1.1561C9.14325 1.16507 9.14581 1.12279 9.15094 1.09203C9.20476 1.09203 9.25858 1.09203 9.3124 1.09203C9.39569 1.28553 9.59175 1.22018 9.72759 1.24452C10.4349 1.36882 11.0769 1.65971 11.7138 1.97494C11.9278 2.08002 12.0957 2.27224 12.3456 2.30555C12.3853 2.44907 12.4968 2.49264 12.6288 2.50802C12.6339 2.6131 12.7031 2.6336 12.7902 2.62976C12.8043 2.64257 12.8171 2.65667 12.8312 2.66948C12.8479 2.78737 12.9197 2.83479 13.0337 2.83094C13.0721 2.84632 13.0991 2.87323 13.1144 2.91167C13.24 3.13721 13.4156 3.31276 13.6398 3.43706C13.6783 3.45244 13.7052 3.47935 13.7205 3.51779C13.7167 3.63184 13.7641 3.7036 13.882 3.72026C13.8782 3.8074 13.8987 3.8766 14.0037 3.88172C13.9986 3.94579 14.0268 3.99321 14.0627 4.04575C14.7226 4.99786 15.2096 6.02044 15.3377 7.18912C15.3467 7.26856 15.3774 7.3147 15.4595 7.31982C15.4595 7.37364 15.4595 7.42746 15.4595 7.48128C15.3429 7.57483 15.3505 7.61199 15.4992 7.68375C15.4992 7.69785 15.4992 7.71066 15.4992 7.72476C15.4992 7.84649 15.4992 7.96695 15.4992 8.08869C15.3839 8.19633 15.3839 8.34497 15.4992 8.45261C15.4992 8.56025 15.4992 8.6679 15.4992 8.77682C15.4992 8.79091 15.4992 8.80373 15.4992 8.81782C15.4108 8.84345 15.3467 8.89599 15.3441 8.99082C15.3416 9.06514 15.4082 9.05745 15.4595 9.0613C15.4595 9.1023 15.4595 9.14203 15.4595 9.18303C15.3762 9.20482 15.2903 9.26248 15.3121 9.33809C15.3544 9.48674 15.2737 9.6136 15.2672 9.75199C15.2596 9.94677 15.1827 10.1377 15.1353 10.3312C14.92 10.3389 14.7034 10.3466 14.4881 10.3543C14.5689 10.0583 14.6496 9.76224 14.7303 9.46623C14.7739 9.45342 14.7726 9.4201 14.7649 9.3855C14.7162 9.19713 14.756 9.00363 14.7841 8.82423C14.8187 8.61023 14.8316 8.39751 14.8226 8.18607C14.7675 6.81365 14.3882 5.54887 13.5629 4.43018C13.0926 3.79202 12.5391 3.25382 11.8753 2.81172C11.2525 2.39654 10.5849 2.10052 9.86726 1.92369C9.14453 1.74428 8.40771 1.6533 7.65935 1.73916C6.9443 1.81989 6.2472 1.97238 5.59495 2.2748C5.04265 2.53109 4.50957 2.83094 4.0521 3.24357C4.02262 3.23716 4.01365 3.25638 4.00468 3.27817C3.95214 3.31917 3.90089 3.3589 3.84835 3.3999C3.84194 3.38965 3.83681 3.3794 3.83041 3.36915C3.82784 3.3794 3.82528 3.38965 3.82272 3.3999C3.62666 3.6626 3.39472 3.88941 3.14356 4.10213C3.05642 4.17517 3.01926 4.30588 2.95903 4.41096C2.90777 4.41736 2.8578 4.42762 2.85011 4.49169L2.85395 4.48912Z" fill="#8A2BE2"/>
<path d="M15.4628 9.18049C15.4628 9.13948 15.4628 9.09976 15.4628 9.05875C15.4769 9.01774 15.4897 8.97802 15.5038 8.93701C15.6358 8.97161 15.5846 9.07413 15.573 9.14973C15.5154 9.54826 15.4411 9.94294 15.3424 10.3338C15.3039 10.3325 15.2655 10.3312 15.2271 10.3299C15.3244 9.95063 15.4244 9.57132 15.4628 9.18049Z" fill="#8A2BE2"/>
<path d="M9.59732 15.3699C9.62423 15.3699 9.65114 15.3699 9.67805 15.3699C9.7229 15.3699 9.77032 15.3776 9.79979 15.3302C9.8267 15.3302 9.85361 15.3302 9.88052 15.3302C10.0266 15.2904 10.1727 15.2494 10.3188 15.2097C10.3188 15.2494 10.3188 15.2904 10.3188 15.3302C9.92665 15.4391 9.52556 15.5044 9.12447 15.5685C9.05912 15.5788 8.96942 15.6057 8.9502 15.4929C8.99505 15.4916 9.04246 15.5006 9.07193 15.4519C9.11294 15.4519 9.15266 15.4519 9.19367 15.4519C9.26159 15.4417 9.33975 15.4788 9.39614 15.4122C9.42305 15.4122 9.44996 15.4122 9.47687 15.4122C9.52172 15.4122 9.56913 15.4199 9.5986 15.3725L9.59732 15.3699Z" fill="#8A2BE2"/>
<path d="M15.4624 9.18042C15.4227 9.57126 15.324 9.95056 15.2266 10.3299C15.1971 10.3299 15.1677 10.3299 15.1382 10.3299C15.1856 10.1377 15.2625 9.94544 15.2702 9.75066C15.2766 9.61098 15.3573 9.4854 15.315 9.33676C15.2932 9.25987 15.3804 9.20349 15.4624 9.1817V9.18042Z" fill="#8A2BE2"/>
<path d="M10.3186 15.2097C10.1725 15.2494 10.0265 15.2904 9.88037 15.3302C9.99057 15.1802 10.1546 15.1751 10.3186 15.1687C10.3186 15.1828 10.3186 15.1969 10.3186 15.2097Z" fill="#8A2BE2"/>
<path d="M7.37228 1.09073C7.31845 1.09073 7.26463 1.09073 7.21081 1.09073C7.16596 1.09073 7.11855 1.08304 7.08908 1.13045C7.06217 1.13045 7.03526 1.13045 7.00835 1.13045C6.9635 1.13045 6.91608 1.12276 6.88661 1.17018C6.8597 1.17018 6.83279 1.17018 6.80588 1.17018C6.4176 1.24066 6.0383 1.34702 5.67309 1.49566C5.47831 1.57511 5.272 1.63534 5.10669 1.7763C5.09388 1.7763 5.07978 1.7763 5.06697 1.7763C5.00033 1.80449 4.92985 1.82627 4.86834 1.86344C4.55952 2.04668 4.23147 2.20173 3.97518 2.46443C3.89317 2.46699 3.8496 2.52081 3.81372 2.58617C3.79962 2.59898 3.78681 2.61308 3.77271 2.62589C3.71505 2.62589 3.67404 2.6528 3.65098 2.70662C3.61253 2.722 3.58562 2.74891 3.57025 2.78735C3.41776 2.83092 3.34087 2.96035 3.24604 3.07055C3.17685 3.10899 3.12302 3.16281 3.08458 3.23201C2.97438 3.32684 2.84367 3.40244 2.80138 3.55622C2.76294 3.57159 2.73603 3.5985 2.72065 3.63695C2.6553 3.67283 2.60276 3.7164 2.59892 3.79841C2.53356 3.83429 2.48102 3.87786 2.47718 3.95987C2.44643 3.9855 2.40798 4.00472 2.3862 4.03675C1.79289 4.87097 1.37771 5.78336 1.18293 6.79185C1.18293 6.81876 1.18293 6.84567 1.18293 6.87258C1.1227 6.97253 1.12398 7.08658 1.1022 7.19678C1.1022 7.2506 1.1022 7.30442 1.1022 7.35824C1.05478 7.38772 1.06375 7.43513 1.06119 7.47998C0.947142 7.46076 0.975333 7.36978 0.984304 7.30442C1.17011 5.94354 1.69294 4.72873 2.55407 3.65873C3.32549 2.70021 4.28273 1.98389 5.40399 1.48926C6.01395 1.22015 6.65851 1.06766 7.31717 0.971554C7.37868 0.962584 7.44275 0.961303 7.45172 1.04844C7.41841 1.04844 7.38765 1.05613 7.37099 1.08945L7.37228 1.09073Z" fill="#8A2BE2"/>
<path d="M15.4625 7.48137C15.4625 7.42755 15.4625 7.37373 15.4625 7.31991C15.3382 6.38062 15.0473 5.49643 14.5732 4.67631C14.4105 4.39567 14.2631 4.09838 14.0068 3.88053C14.0043 3.79852 13.9504 3.75495 13.8851 3.71907C13.8748 3.61656 13.7979 3.56786 13.7236 3.5166C13.7082 3.47816 13.6813 3.45125 13.6429 3.43587C13.6211 3.28338 13.4571 3.23853 13.3994 3.11295C13.493 3.09886 13.5481 3.1578 13.6044 3.21675C14.2734 3.91769 14.7859 4.71603 15.1358 5.62201C15.3536 6.18712 15.4894 6.77018 15.574 7.36733C15.5855 7.44678 15.6406 7.56082 15.5023 7.60311C15.501 7.55826 15.5099 7.51085 15.4612 7.48137H15.4625Z" fill="#8A2BE2"/>
<path d="M7.33169 15.4505C7.38551 15.4505 7.43933 15.4505 7.49315 15.4505C7.51109 15.4825 7.54056 15.4902 7.57388 15.4915C7.55466 15.6056 7.46367 15.5761 7.39832 15.5684C6.01309 15.389 4.77009 14.8675 3.67574 13.9961C3.51428 13.8666 3.3682 13.718 3.21314 13.5796C3.15548 13.5283 3.11191 13.472 3.12344 13.3887C3.24902 13.4463 3.29516 13.6091 3.44636 13.6321C3.46174 13.6706 3.48865 13.6975 3.5271 13.7129C3.57707 13.7885 3.62705 13.8654 3.72956 13.8743C3.77954 13.9499 3.82952 14.0268 3.93203 14.0358C3.9551 14.0896 3.99482 14.1165 4.05377 14.1165C4.25239 14.3113 4.47536 14.4702 4.7419 14.5612C4.76368 14.5855 4.78162 14.6189 4.80982 14.6329C5.45438 14.9712 6.12842 15.2314 6.84602 15.3698C6.88703 15.3698 6.92675 15.3698 6.96776 15.3698C7.08437 15.4198 7.20482 15.4518 7.33169 15.4505Z" fill="#8A2BE2"/>
<path d="M9.31397 1.09072C9.26015 1.09072 9.20633 1.09072 9.15251 1.09072C9.13457 1.05869 9.10509 1.051 9.07178 1.04972C9.091 0.935667 9.18198 0.963859 9.24733 0.972829C10.5839 1.15479 11.7769 1.67378 12.8405 2.49774C12.9622 2.59129 13.0724 2.69893 13.189 2.80016C13.2467 2.85142 13.2903 2.9078 13.2787 2.99109C13.2224 2.96803 13.1878 2.90396 13.1173 2.91036C13.1019 2.87192 13.075 2.84501 13.0365 2.82963C12.9866 2.75403 12.9366 2.67714 12.8341 2.66817C12.82 2.65536 12.8072 2.64126 12.7931 2.62845C12.7572 2.56309 12.7136 2.51056 12.6316 2.50671C12.5663 2.39907 12.465 2.34012 12.3484 2.30424C12.3125 2.2658 12.2818 2.21839 12.2382 2.1902C11.3386 1.6238 10.3712 1.23937 9.31397 1.09072Z" fill="#8A2BE2"/>
<path d="M1.10246 9.18051C1.10246 9.22152 1.10246 9.26124 1.10246 9.30225C1.10246 9.3471 1.09477 9.39451 1.14219 9.42399C1.14219 9.46499 1.14219 9.50472 1.14219 9.54572C1.27674 10.353 1.55994 11.1091 1.95975 11.819C2.11864 12.1009 2.26985 12.3956 2.51717 12.6199C2.51973 12.7019 2.57356 12.7455 2.63891 12.7814C2.6325 12.8518 2.69657 12.8864 2.71964 12.9428C2.5082 12.9415 2.45694 12.7468 2.36468 12.6237C1.80982 11.8869 1.42026 11.0668 1.17422 10.1775C1.08709 9.86224 1.03198 9.53932 0.98329 9.21511C0.97432 9.15232 0.960224 9.07287 1.06146 9.06006C1.07555 9.10106 1.08837 9.14079 1.10246 9.1818V9.18051Z" fill="#8A2BE2"/>
<path d="M15.502 8.77691C15.502 8.66927 15.502 8.56163 15.502 8.45271C15.5301 8.33097 15.5301 8.21052 15.502 8.08878C15.502 7.96705 15.502 7.84659 15.502 7.72485C15.7134 7.77867 15.6455 7.97858 15.6403 8.09006C15.6339 8.2605 15.6314 8.43477 15.6237 8.60648C15.6198 8.69362 15.6096 8.76794 15.502 8.77691Z" fill="#8A2BE2"/>
<path d="M8.42348 15.4915C8.54522 15.4915 8.66568 15.4915 8.78741 15.4915C8.77972 15.5863 8.7195 15.6132 8.63492 15.6132C8.38632 15.6132 8.13644 15.6132 7.88784 15.6132C7.80327 15.6132 7.74304 15.5876 7.73535 15.4915C7.85709 15.4915 7.97754 15.4915 8.09928 15.4915C8.20692 15.5171 8.31456 15.5658 8.42348 15.4915Z" fill="#8A2BE2"/>
<path d="M8.74739 1.04979C8.7333 1.15102 8.65385 1.13564 8.59106 1.12924C8.37193 1.10617 8.15281 1.12924 7.93368 1.12924C7.86961 1.12924 7.79144 1.14974 7.77734 1.04979C7.85295 1.00109 7.93624 1.00878 8.01954 1.00878C8.19509 1.00878 8.37065 1.00878 8.54493 1.00878C8.6154 1.00494 8.6846 1.01134 8.74739 1.04979Z" fill="#8A2BE2"/>
<path d="M1.06265 7.80542C1.16132 7.81823 1.15107 7.8964 1.1421 7.95791C1.10878 8.16679 1.13697 8.37438 1.1421 8.58325C1.14466 8.64604 1.16004 8.72293 1.06265 8.73574C1.02421 8.67295 1.0178 8.60504 1.02164 8.53328C1.02164 8.37182 1.02164 8.20907 1.02164 8.04761C1.03446 7.96688 0.988327 7.8759 1.06265 7.80542Z" fill="#8A2BE2"/>
<path d="M13.1162 2.91045C13.1867 2.90532 13.2213 2.96939 13.2777 2.99118C13.3046 3.04628 13.3443 3.086 13.3994 3.11291C13.4571 3.2385 13.6198 3.28463 13.6429 3.43584C13.4173 3.31026 13.2418 3.1347 13.1175 2.91045H13.1162Z" fill="#8A2BE2"/>
<path d="M3.44884 13.6309C3.29635 13.6091 3.2515 13.4451 3.12592 13.3874C3.11054 13.349 3.08363 13.3221 3.04519 13.3067C3.017 13.2324 2.91961 13.1991 2.92345 13.1042C3.14898 13.2298 3.32454 13.4054 3.44884 13.6296V13.6309Z" fill="#8A2BE2"/>
<path d="M1.06302 7.80549C0.989977 7.87596 1.03611 7.96695 1.02201 8.04768C0.884899 7.91825 0.907965 7.64787 1.06302 7.56201C1.06302 7.64274 1.06302 7.72347 1.06302 7.8042V7.80549Z" fill="#8A2BE2"/>
<path d="M1.02191 8.53345C1.01807 8.60393 1.02447 8.67312 1.06292 8.73591C1.06292 8.81665 1.06292 8.89738 1.06292 8.97811C0.906582 8.89097 0.886079 8.66159 1.02191 8.53345Z" fill="#8A2BE2"/>
<path d="M8.74788 1.04973C8.68509 1.01129 8.61717 1.00488 8.54541 1.00873C8.67484 0.872896 8.90421 0.893399 8.99007 1.04973C8.90934 1.04973 8.82861 1.04973 8.74788 1.04973Z" fill="#8A2BE2"/>
<path d="M8.01985 1.00995C7.93656 1.00995 7.85199 1.00226 7.77766 1.05095C7.70975 1.05095 7.64311 1.05095 7.5752 1.05095C7.66233 0.894619 7.89171 0.874116 8.01985 1.00995Z" fill="#8A2BE2"/>
<path d="M2.92171 13.1043C2.91786 13.1979 3.01525 13.2325 3.04344 13.3068C2.84354 13.2645 2.7359 13.1428 2.71924 12.9429C2.74615 12.957 2.77306 12.9698 2.79997 12.9839C2.82688 13.039 2.8666 13.0787 2.92171 13.1056V13.1043Z" fill="#8A2BE2"/>
<path d="M15.5016 8.93814C15.4875 8.97915 15.4747 9.01887 15.4606 9.05988C15.4094 9.05732 15.3427 9.06501 15.3453 8.9894C15.3478 8.89457 15.4132 8.84204 15.5003 8.81641C15.5003 8.85741 15.5003 8.89714 15.5003 8.93814H15.5016Z" fill="#8A2BE2"/>
<path d="M9.07062 15.4507C9.04115 15.4981 8.99374 15.4891 8.94888 15.4917C8.90788 15.4917 8.86815 15.4917 8.82715 15.4917C8.8925 15.3827 8.96042 15.2905 9.06934 15.4519L9.07062 15.4507Z" fill="#8A2BE2"/>
<path d="M7.57487 15.4915C7.54155 15.4915 7.5108 15.4838 7.49414 15.4505C7.58769 15.3339 7.62485 15.3416 7.69661 15.4902C7.6556 15.4902 7.61588 15.4902 7.57487 15.4902V15.4915Z" fill="#8A2BE2"/>
<path d="M15.4624 7.4812C15.5098 7.51067 15.5009 7.55809 15.5034 7.60294C15.5034 7.62985 15.5034 7.65676 15.5034 7.68367C15.3548 7.61191 15.3471 7.57475 15.4637 7.4812H15.4624Z" fill="#8A2BE2"/>
<path d="M7.37256 1.09081C7.3905 1.05877 7.41997 1.05109 7.45329 1.0498C7.4802 1.0498 7.50711 1.0498 7.53402 1.0498C7.53018 1.10747 7.50967 1.15616 7.44432 1.16385C7.3905 1.17154 7.37768 1.1331 7.37256 1.08953V1.09081Z" fill="#8A2BE2"/>
<path d="M1.06152 7.48136C1.0628 7.43651 1.05383 7.38909 1.10253 7.35962C1.1461 7.36474 1.18454 7.37884 1.17685 7.43138C1.16788 7.49673 1.12047 7.51724 1.0628 7.52108C1.0628 7.50698 1.0628 7.49417 1.0628 7.48007L1.06152 7.48136Z" fill="#8A2BE2"/>
<path d="M1.10253 9.18056C1.08843 9.13956 1.07562 9.09983 1.06152 9.05883C1.06152 9.04473 1.06152 9.03192 1.06152 9.01782C1.11919 9.02167 1.16788 9.04217 1.17557 9.10752C1.18326 9.16134 1.14482 9.17416 1.10125 9.17928L1.10253 9.18056Z" fill="#8A2BE2"/>
<path d="M9.0703 1.0498C9.10362 1.0498 9.13437 1.05749 9.15103 1.09081C9.14463 1.12285 9.14334 1.16385 9.09849 1.15488C9.04467 1.14463 9.03314 1.0985 9.0293 1.0498C9.04339 1.0498 9.05621 1.0498 9.0703 1.0498Z" fill="#8A2BE2"/>
<path d="M7.04824 4.4493C7.07771 4.53003 7.10847 4.61076 7.13794 4.69149C7.13025 4.7184 7.14691 4.72865 7.16741 4.73506C7.54544 5.63591 7.92474 6.53804 8.30277 7.4389C8.34377 7.53757 8.40528 7.63367 8.41938 7.73619C8.44885 7.93866 8.59365 7.98223 8.75127 8.00401C9.36124 8.08858 9.9712 8.16803 10.5812 8.2462C10.9182 8.28849 11.072 8.44482 11.0104 8.69599C10.9682 8.86898 10.7631 8.97918 10.585 8.95227C10.1532 8.88692 9.71876 8.83823 9.28563 8.77672C8.93964 8.72802 8.59365 8.67164 8.24767 8.61654C8.07339 8.58835 7.97472 8.47686 7.90809 8.31668C7.4378 7.18389 6.9547 6.0575 6.49722 4.91959C6.41649 4.7184 6.31654 4.52619 6.23453 4.32628C6.15123 4.12253 6.19865 3.92775 6.36523 3.8419C6.56514 3.73938 6.71891 3.7932 6.84577 4.01105C6.88293 4.07384 6.93035 4.1315 6.93419 4.20839C6.9265 4.2353 6.94316 4.24555 6.96367 4.25196C6.98161 4.3045 6.99955 4.35832 7.01749 4.41086C7.00723 4.43905 7.02517 4.44546 7.04568 4.45186L7.04824 4.4493Z" fill="#FF5722"/>
<path d="M4.38307 12.4995C4.20751 12.5277 4.12806 12.447 4.06271 12.347C3.98326 12.2227 3.98454 12.0869 4.07808 11.978C4.24595 11.7819 4.40229 11.573 4.62269 11.4269C4.73802 11.3501 4.96612 11.3372 5.06479 11.4244C5.2019 11.5461 5.2506 11.7063 5.14296 11.8511C4.97125 12.0805 4.75981 12.2778 4.53556 12.4598C4.47917 12.5059 4.41126 12.5021 4.38307 12.5008V12.4995Z" fill="#8A2BE2"/>
<path d="M3.05639 8.60887C2.94234 8.60887 2.82702 8.60887 2.71297 8.60887C2.531 8.60887 2.43105 8.50764 2.39901 8.33977C2.36826 8.18215 2.48487 7.95277 2.61942 7.93868C2.91928 7.90792 3.22426 7.89511 3.52412 7.9438C3.72274 7.97584 3.79706 8.12577 3.77144 8.31286C3.74581 8.49482 3.61254 8.5858 3.44082 8.60759C3.31524 8.62296 3.18582 8.61015 3.05767 8.61015C3.05767 8.61015 3.05767 8.61015 3.05767 8.60887H3.05639Z" fill="#8A2BE2"/>
<path d="M11.8562 5.13616C11.6794 5.21818 11.5128 5.20408 11.3936 5.04518C11.2937 4.91191 11.3104 4.73251 11.4731 4.56721C11.6115 4.42625 11.7358 4.27376 11.8947 4.15074C12.0741 4.01234 12.2907 3.99697 12.4214 4.13792C12.5649 4.29298 12.5431 4.47622 12.3599 4.65691C12.2074 4.80683 12.0536 4.95676 11.9011 5.10541C11.8716 5.09516 11.8639 5.11566 11.8562 5.13616Z" fill="#8A2BE2"/>
<path d="M13.8438 7.95918C14.0348 8.00147 14.1475 8.1373 14.1283 8.3026C14.1117 8.44997 13.9451 8.60759 13.79 8.61015C13.5478 8.61399 13.3056 8.61271 13.0634 8.60631C12.8751 8.60118 12.7546 8.47816 12.752 8.2962C12.7482 8.08732 12.8648 7.93355 13.0557 7.92586C13.3043 7.91689 13.5529 7.92586 13.8015 7.92586C13.8054 7.94893 13.8144 7.96559 13.8425 7.9579L13.8438 7.95918Z" fill="#8A2BE2"/>
<path d="M8.62205 3.1192C8.60795 3.30501 8.67715 3.5267 8.47468 3.69585C8.36191 3.78939 8.23633 3.7817 8.1351 3.7471C8.03258 3.7125 7.93391 3.6228 7.93519 3.478C7.93904 3.24222 7.93263 3.00643 7.93519 2.77065C7.93776 2.52077 8.00952 2.43363 8.21583 2.42594C8.47212 2.41441 8.60026 2.51436 8.62076 2.75399C8.63102 2.86804 8.62205 2.98337 8.62205 3.1192Z" fill="#8A2BE2"/>
<path d="M7.93357 13.4439C7.93357 13.3363 7.93101 13.2287 7.93357 13.121C7.93998 12.8814 8.01302 12.7917 8.20524 12.7802C8.46409 12.7661 8.60248 12.8622 8.61786 13.0967C8.63196 13.3248 8.62939 13.5541 8.61786 13.7822C8.60761 13.9924 8.44102 14.1244 8.22446 14.1154C8.04762 14.1077 7.93614 13.977 7.93229 13.7669C7.92973 13.6592 7.93229 13.5516 7.93229 13.4439H7.93357Z" fill="#8A2BE2"/>
<path d="M4.36675 4.04694C4.47823 4.02003 4.5564 4.07 4.63072 4.14945C4.77296 4.30066 4.92417 4.44418 5.07026 4.59283C5.21634 4.74148 5.23428 4.88884 5.11639 5.03108C4.99978 5.17204 4.87932 5.2297 4.68839 5.11694C4.43338 4.96829 4.2591 4.74532 4.06817 4.53645C3.98231 4.4429 3.99128 4.31476 4.05792 4.20327C4.12712 4.08794 4.22066 4.00977 4.36803 4.04694H4.36675Z" fill="#8A2BE2"/>
<path d="M14.0053 3.88184C14.2616 4.0984 14.4089 4.39569 14.5717 4.67761C15.0458 5.49645 15.3367 6.38192 15.461 7.32122C15.379 7.31609 15.3482 7.26868 15.3393 7.19051C15.2111 6.02184 14.7254 4.99925 14.0642 4.04714C14.0283 3.9946 13.9989 3.94719 14.0053 3.88312V3.88184Z" fill="#8A2BE2"/>
<path d="M2.51854 12.6198C2.27122 12.3956 2.12129 12.1008 1.96111 11.8189C1.5613 11.109 1.27811 10.353 1.14355 9.54565C1.27042 9.57641 1.23966 9.69686 1.26017 9.77631C1.40497 10.3632 1.59462 10.936 1.86885 11.4755C2.02647 11.7856 2.2033 12.0867 2.40577 12.3712C2.45831 12.4443 2.53392 12.5135 2.51854 12.6211V12.6198Z" fill="#8A2BE2"/>
<path d="M9.31348 1.09082C10.3707 1.23947 11.3381 1.62518 12.2377 2.19029C12.2813 2.2172 12.312 2.2659 12.3479 2.30434C12.098 2.26974 11.9289 2.07881 11.7162 1.97373C11.0806 1.6585 10.4386 1.36889 9.72994 1.24331C9.59283 1.21896 9.39805 1.28432 9.31476 1.09082H9.31348Z" fill="#8A2BE2"/>
<path d="M1.18359 6.79438C1.37837 5.78589 1.79228 4.87351 2.38686 4.03929C2.40865 4.00853 2.44709 3.98803 2.47785 3.9624C2.48041 4.0175 2.46631 4.06492 2.433 4.11233C1.87301 4.89785 1.50908 5.77179 1.26817 6.70084C1.25535 6.75209 1.24382 6.79054 1.18488 6.79438H1.18359Z" fill="#8A2BE2"/>
<path d="M6.84582 15.3699C6.12822 15.2315 5.45418 14.9713 4.80962 14.633C4.78271 14.6189 4.76477 14.5856 4.7417 14.5613C4.87369 14.5651 4.98902 14.6202 5.1005 14.6805C5.60539 14.9508 6.14231 15.1341 6.7023 15.252C6.76893 15.2661 6.83557 15.284 6.84454 15.3699H6.84582Z" fill="#8A2BE2"/>
<path d="M5.10742 1.77751C5.27273 1.63655 5.47904 1.57632 5.67382 1.49687C6.03903 1.34823 6.41833 1.24187 6.80661 1.17139C6.80148 1.21624 6.78098 1.24058 6.73357 1.25212C6.22868 1.37642 5.74045 1.54941 5.26376 1.757C5.21763 1.77751 5.15996 1.7711 5.10742 1.77751Z" fill="#8A2BE2"/>
<path d="M3.97394 2.46572C4.23023 2.20431 4.55827 2.04797 4.8671 1.86473C4.92861 1.82756 4.99909 1.80706 5.06572 1.77759C5.05675 1.91086 4.93374 1.91342 4.853 1.96468C4.6326 2.10435 4.41219 2.24147 4.18922 2.37602C4.12258 2.41703 4.06364 2.48238 3.97266 2.46572H3.97394Z" fill="#8A2BE2"/>
<path d="M4.74331 14.5611C4.47805 14.4688 4.2538 14.3112 4.05518 14.1165C4.31915 14.2113 4.55366 14.351 4.74331 14.5611Z" fill="#8A2BE2"/>
<path d="M15.502 8.08862C15.5302 8.21036 15.5302 8.33081 15.502 8.45255C15.3867 8.34491 15.3867 8.19626 15.502 8.08862Z" fill="#8A2BE2"/>
<path d="M8.42332 15.4916C8.31568 15.5659 8.20804 15.5172 8.09912 15.4916C8.20676 15.3609 8.3144 15.3609 8.42332 15.4916Z" fill="#8A2BE2"/>
<path d="M7.3317 15.4505C7.20356 15.4518 7.08438 15.4197 6.96777 15.3697C7.10489 15.3275 7.25097 15.2416 7.3317 15.4505Z" fill="#8A2BE2"/>
<path d="M3.24658 3.07324C3.34141 2.96303 3.41701 2.83233 3.57079 2.79004C3.51184 2.94125 3.42214 3.0553 3.24658 3.07324Z" fill="#8A2BE2"/>
<path d="M2.80127 3.5576C2.84484 3.40511 2.97426 3.32822 3.08447 3.2334C3.06653 3.40767 2.9512 3.49866 2.80127 3.5576Z" fill="#8A2BE2"/>
<path d="M1.10254 7.19798C1.12432 7.08906 1.12304 6.97373 1.18327 6.87378C1.24862 7.00449 1.22043 7.11213 1.10254 7.19798Z" fill="#8A2BE2"/>
<path d="M12.3467 2.3042C12.4633 2.34008 12.5645 2.39903 12.6299 2.50667C12.4992 2.49129 12.3864 2.44772 12.3467 2.3042Z" fill="#8A2BE2"/>
<path d="M9.39485 15.4108C9.33847 15.4787 9.2603 15.4415 9.19238 15.4505C9.24236 15.3518 9.29234 15.2506 9.39485 15.4108Z" fill="#8A2BE2"/>
<path d="M13.7219 3.51782C13.7975 3.5678 13.8744 3.61777 13.8834 3.72029C13.7655 3.70363 13.7181 3.63187 13.7219 3.51782Z" fill="#8A2BE2"/>
<path d="M3.93489 14.0345C3.83237 14.0242 3.78368 13.9473 3.73242 13.873C3.84647 13.8692 3.91823 13.9166 3.93489 14.0345Z" fill="#8A2BE2"/>
<path d="M3.73225 13.8731C3.62974 13.8629 3.58104 13.786 3.52979 13.7116C3.64383 13.7078 3.71559 13.7552 3.73225 13.8731Z" fill="#8A2BE2"/>
<path d="M12.833 2.66821C12.9355 2.67846 12.9842 2.75535 13.0355 2.82967C12.9214 2.83352 12.8497 2.78611 12.833 2.66821Z" fill="#8A2BE2"/>
<path d="M2.80205 12.9837C2.77514 12.9696 2.74823 12.9568 2.72132 12.9427C2.69825 12.8863 2.63418 12.8517 2.64058 12.7812C2.75848 12.7979 2.80589 12.8697 2.80205 12.9837Z" fill="#8A2BE2"/>
<path d="M7.08936 1.13054C7.11883 1.08313 7.16624 1.0921 7.21109 1.09082C7.20853 1.13823 7.19571 1.18565 7.14318 1.1959C7.09833 1.20487 7.09576 1.16258 7.09064 1.13183L7.08936 1.13054Z" fill="#8A2BE2"/>
<path d="M2.59912 3.80111C2.60168 3.7191 2.6555 3.67553 2.72086 3.63965C2.7247 3.72679 2.7042 3.79598 2.59912 3.80111Z" fill="#8A2BE2"/>
<path d="M13.8847 3.72021C13.9501 3.7561 14.0026 3.79966 14.0064 3.88168C13.9014 3.87655 13.8809 3.80735 13.8847 3.72021Z" fill="#8A2BE2"/>
<path d="M2.47754 3.96249C2.4801 3.88047 2.53392 3.83691 2.59928 3.80103C2.60312 3.88816 2.58262 3.95736 2.47754 3.96249Z" fill="#8A2BE2"/>
<path d="M12.6299 2.50684C12.7119 2.5094 12.7555 2.56322 12.7913 2.62857C12.7042 2.63242 12.635 2.61191 12.6299 2.50684Z" fill="#8A2BE2"/>
<path d="M2.6398 12.7813C2.57445 12.7455 2.52191 12.7019 2.51807 12.6199C2.62314 12.625 2.64365 12.6942 2.6398 12.7813Z" fill="#8A2BE2"/>
<path d="M3.81299 2.58756C3.84887 2.5222 3.89244 2.46966 3.97445 2.46582C3.96932 2.5709 3.90013 2.5914 3.81299 2.58756Z" fill="#8A2BE2"/>
<path d="M6.88721 1.17156C6.91668 1.12415 6.96409 1.13312 7.00894 1.13184C6.99229 1.21769 6.95512 1.2382 6.88721 1.17156Z" fill="#8A2BE2"/>
<path d="M9.79947 15.3301C9.77 15.3775 9.72258 15.3685 9.67773 15.3698C9.69439 15.2839 9.73155 15.2634 9.79947 15.3301Z" fill="#8A2BE2"/>
<path d="M1.14373 9.42398C1.09632 9.39451 1.10529 9.3471 1.104 9.30225C1.18986 9.3189 1.21036 9.35735 1.14373 9.42398Z" fill="#8A2BE2"/>
<path d="M9.59732 15.3699C9.56785 15.4173 9.52044 15.4083 9.47559 15.4096C9.49224 15.3237 9.53069 15.3032 9.59732 15.3699Z" fill="#8A2BE2"/>
<path d="M4.05484 14.1166C3.9959 14.1166 3.95617 14.0897 3.93311 14.0359C3.99205 14.0359 4.051 14.0346 4.05484 14.1166Z" fill="#8A2BE2"/>
<path d="M3.65137 2.70793C3.67443 2.65411 3.71416 2.6272 3.7731 2.6272C3.76926 2.70921 3.71031 2.70921 3.65137 2.70793Z" fill="#8A2BE2"/>
</svg>
