<svg width="28" height="30" viewBox="0 0 28 30" fill="none" xmlns="http://www.w3.org/2000/svg">
<path d="M2.60967 29.3805L2.6985 26.486L0 25.4201L2.42896 23.8181C3.34786 25.6896 3.2866 25.5824 3.34786 25.6559C3.40506 25.7184 3.4746 25.7684 3.55211 25.8027C3.62961 25.837 3.71338 25.8548 3.79812 25.855H7.93929L2.60967 29.3805Z" fill="#D22E7E"/>
<path d="M24.9918 26.486L25.0806 29.3806L19.751 25.8612C23.8921 25.8612 24.1311 25.8796 24.1923 25.8183C24.2945 25.7794 24.3844 25.7138 24.4527 25.6284C24.4986 25.5824 24.5262 25.512 25.3287 23.8733L27.6903 25.4201L24.9918 26.486Z" fill="#D22E7E"/>
<path d="M7.66679 25.2486H5.29297C5.82593 25.026 6.36706 24.8218 6.91636 24.636L7.66679 25.2486Z" fill="#D22E7E"/>
<path d="M22.487 25.2486H20.0366L20.8146 24.636C21.3741 24.8116 21.9316 25.0158 22.487 25.2486Z" fill="#D22E7E"/>
<path d="M24.2899 2.27001C18.069 -0.593895 10.7331 -0.921636 3.43092 2.28839C2.97405 2.49356 2.58633 2.8266 2.31457 3.24728C2.04281 3.66797 1.89862 4.15832 1.89942 4.65915V18.5743C1.90001 19.0968 2.05798 19.607 2.35274 20.0385C2.95309 19.7689 3.56569 19.5208 4.19054 19.2941L4.01901 19.1563C3.93186 19.0864 3.86155 18.9978 3.8133 18.8971C3.76505 18.7964 3.74009 18.686 3.74028 18.5743V4.65915C3.74282 4.51589 3.7855 4.37622 3.86347 4.25601C3.94144 4.13581 4.05158 4.03989 4.18135 3.97916C10.8709 1.01418 17.6402 1.22246 23.5242 3.93628C23.6562 3.99627 23.7685 4.09269 23.8477 4.21422C23.9269 4.33574 23.9698 4.47734 23.9714 4.62239V18.5743C23.9716 18.686 23.9466 18.7964 23.8984 18.8971C23.8501 18.9978 23.7798 19.0864 23.6926 19.1563L23.5456 19.2758C24.1582 19.4963 24.7708 19.7413 25.3834 20.0078C25.6576 19.5806 25.7994 19.0819 25.7908 18.5743V4.62239C25.7904 4.12812 25.6489 3.64423 25.3831 3.22754C25.1172 2.81085 24.738 2.47867 24.2899 2.27001ZM17.827 23.8886C17.0367 24.5288 17.7106 23.9836 14.3137 26.7189C14.1809 26.8258 14.0156 26.884 13.8451 26.884C13.6746 26.884 13.5093 26.8258 13.3765 26.7189L9.86321 23.8886C9.10291 24.0278 8.35042 24.2067 7.60884 24.4247L12.2033 28.134C12.6616 28.5029 13.2323 28.704 13.8206 28.704C14.4089 28.704 14.9796 28.5029 15.4379 28.134L20.0936 24.4063C19.3478 24.1936 18.5912 24.0208 17.827 23.8886Z" fill="#D22E7E"/>
<path d="M17.0129 23.7478L13.9315 26.2289C13.9081 26.2478 13.8789 26.2581 13.8488 26.2581C13.8187 26.2581 13.7895 26.2478 13.7661 26.2289L10.7031 23.754C12.7951 23.4483 14.9203 23.4463 17.0129 23.7478Z" fill="#D22E7E"/>
<path d="M23.3583 4.62243C23.3583 19.5607 23.3859 18.6173 23.3063 18.6816L22.8621 19.0369C20.9229 18.3883 18.9193 17.9508 16.8862 17.7321C16.7952 17.7231 16.7097 17.6842 16.6431 17.6215C16.5765 17.5588 16.5326 17.4758 16.5183 17.3854C16.5039 17.2951 16.5199 17.2025 16.5638 17.1223C16.6076 17.042 16.6769 16.9785 16.7606 16.9418C18.1467 16.2815 19.267 15.1695 19.9375 13.7884C20.6081 12.4073 20.789 10.8392 20.4505 9.34169C20.112 7.84418 19.2744 6.50629 18.075 5.54779C16.8757 4.58928 15.3861 4.06715 13.8508 4.06715C12.3155 4.06715 10.8259 4.58928 9.62656 5.54779C8.42724 6.50629 7.58956 7.84418 7.2511 9.34169C6.91264 10.8392 7.09354 12.4073 7.76407 13.7884C8.4346 15.1695 9.5549 16.2815 10.941 16.9418C11.0226 16.9802 11.0896 17.0441 11.1318 17.1239C11.174 17.2037 11.1891 17.295 11.175 17.3841C11.1608 17.4732 11.1181 17.5553 11.0532 17.6181C10.9884 17.6808 10.9049 17.7208 10.8154 17.7321C8.78328 17.956 6.78096 18.3965 4.84252 19.0461L4.38001 18.6816C4.30344 18.6203 4.331 19.5607 4.331 4.66225C4.33258 4.63272 4.34268 4.60428 4.36008 4.58036C4.37747 4.55645 4.40141 4.53808 4.42902 4.52748C10.9318 1.65745 17.5203 1.8351 23.2665 4.49378C23.2924 4.50425 23.3149 4.52191 23.3312 4.5447C23.3474 4.56749 23.3569 4.59446 23.3583 4.62243Z" fill="#D22E7E"/>
<path d="M17.4127 15.8513C16.3704 16.5926 15.1232 16.9909 13.8443 16.9909C12.5653 16.9909 11.3181 16.5926 10.2759 15.8513C10.5996 15.5579 10.894 15.2338 11.155 14.8834L11.4214 15.0947C11.4531 15.1198 11.4895 15.1384 11.5284 15.1494C11.5674 15.1604 11.6081 15.1635 11.6482 15.1587C11.6884 15.1538 11.7272 15.1411 11.7624 15.1212C11.7976 15.1013 11.8285 15.0746 11.8533 15.0427C11.9031 14.9788 11.9255 14.8979 11.9158 14.8175C11.906 14.7372 11.8648 14.6639 11.8013 14.6138L11.495 14.3749C11.7558 13.9529 11.9685 13.5028 12.129 13.0333L12.4353 13.1222C12.5129 13.1465 12.597 13.1391 12.669 13.1015C12.7411 13.0638 12.7953 12.9991 12.8197 12.9215C12.8441 12.844 12.8366 12.7599 12.799 12.6878C12.7614 12.6157 12.6967 12.5615 12.6191 12.5371L12.3128 12.4452C12.4418 11.9096 12.5065 11.3605 12.5057 10.8096H12.7906C12.8718 10.8096 12.9497 10.7773 13.0072 10.7199C13.0646 10.6624 13.0969 10.5845 13.0969 10.5033C13.0969 10.4221 13.0646 10.3442 13.0072 10.2867C12.9497 10.2293 12.8718 10.197 12.7906 10.197H12.4843C12.4353 9.71235 12.3326 9.23465 12.178 8.7727L12.5088 8.65018C12.5819 8.62132 12.641 8.56549 12.6741 8.49423C12.7072 8.42297 12.7116 8.34174 12.6865 8.26731C12.6588 8.19097 12.602 8.12873 12.5285 8.09427C12.4549 8.05981 12.3708 8.05594 12.2944 8.08353L11.9605 8.20605C11.8104 7.84771 11.629 7.50332 11.4184 7.17688L11.5685 7.04824C11.6026 7.02363 11.6313 6.99225 11.6528 6.95606C11.6742 6.91987 11.688 6.87964 11.6933 6.83789C11.6985 6.79613 11.6951 6.75375 11.6832 6.71338C11.6713 6.67301 11.6513 6.63551 11.6243 6.60324C11.5973 6.57096 11.5639 6.5446 11.5263 6.52579C11.4886 6.50698 11.4475 6.49612 11.4055 6.4939C11.3635 6.49169 11.3214 6.49815 11.282 6.51289C11.2426 6.52764 11.2066 6.55035 11.1764 6.5796L11.06 6.67761C10.8254 6.36742 10.5629 6.07933 10.2759 5.81691C11.3172 5.07346 12.5648 4.67383 13.8443 4.67383C15.1238 4.67383 16.3713 5.07346 17.4127 5.81691C17.1426 6.06081 16.8927 6.32611 16.6653 6.61023L16.601 6.57041C16.5377 6.52854 16.4611 6.51164 16.3861 6.523C16.3111 6.53436 16.2429 6.57316 16.1949 6.63189C16.1468 6.69062 16.1223 6.76509 16.126 6.84088C16.1297 6.91667 16.1615 6.98838 16.215 7.04211L16.3069 7.11869C16.0859 7.45057 15.8962 7.80228 15.7403 8.16929L15.4891 8.0774C15.4127 8.04938 15.3284 8.05283 15.2546 8.08701C15.1807 8.12119 15.1235 8.18329 15.0955 8.25965C15.0675 8.33601 15.0709 8.42038 15.1051 8.49419C15.1393 8.56801 15.2014 8.62522 15.2778 8.65325L15.5228 8.74207C15.3666 9.2151 15.2638 9.70415 15.2165 10.2001H14.996C14.9147 10.2001 14.8368 10.2323 14.7794 10.2898C14.7219 10.3472 14.6897 10.4251 14.6897 10.5064C14.6897 10.5876 14.7219 10.6655 14.7794 10.7229C14.8368 10.7804 14.9147 10.8127 14.996 10.8127H15.1859C15.1823 11.3734 15.2502 11.9323 15.388 12.4759L15.1767 12.5402C15.0954 12.5524 15.0224 12.5963 14.9735 12.6624C14.9247 12.7285 14.9041 12.8112 14.9163 12.8924C14.9285 12.9737 14.9725 13.0467 15.0385 13.0956C15.1046 13.1444 15.1873 13.165 15.2686 13.1528C15.3741 13.1438 15.4775 13.1179 15.5749 13.0762C15.7401 13.5562 15.9601 14.0156 16.2303 14.4454L15.9945 14.6322C15.9451 14.6718 15.9092 14.7257 15.8918 14.7866C15.8743 14.8474 15.8761 14.9121 15.8969 14.9719C15.9177 15.0317 15.9565 15.0835 16.008 15.1203C16.0595 15.1571 16.1211 15.1771 16.1844 15.1774C16.3069 15.1774 16.3498 15.1315 16.5795 14.9508C16.8289 15.276 17.1078 15.5774 17.4127 15.8513Z" fill="#D22E7E"/>
<path d="M11.8881 10.8095C11.8905 11.2945 11.8339 11.7779 11.7196 12.2491L11.0703 12.047C10.9927 12.0231 10.9088 12.0309 10.837 12.0688C10.7652 12.1067 10.7114 12.1716 10.6874 12.2491C10.6633 12.3263 10.6708 12.4099 10.7081 12.4816C10.7454 12.5533 10.8095 12.6074 10.8865 12.632L11.5512 12.8372C11.4143 13.2368 11.2356 13.6207 11.0182 13.9828L10.4301 13.5203C10.3659 13.4773 10.2878 13.4602 10.2115 13.4723C10.1351 13.4845 10.0662 13.5251 10.0186 13.5859C9.97091 13.6468 9.94801 13.7234 9.95446 13.8004C9.96091 13.8774 9.99623 13.9491 10.0534 14.0012L10.666 14.4943C10.406 14.8456 10.1093 15.168 9.78075 15.4561C9.12104 14.8783 8.59239 14.1661 8.23021 13.3674C7.86803 12.5687 7.68066 11.7018 7.68066 10.8249C7.68066 9.94786 7.86803 9.08099 8.23021 8.28228C8.59239 7.48356 9.12104 6.77145 9.78075 6.1936C10.0745 6.45259 10.3432 6.73872 10.5833 7.04818L10.0043 7.5352C9.97355 7.56113 9.94817 7.59287 9.92966 7.62862C9.91114 7.66436 9.89986 7.70341 9.89644 7.74352C9.89303 7.78363 9.89756 7.82402 9.90976 7.86238C9.92197 7.90074 9.94162 7.93632 9.96759 7.96708C9.99352 7.99787 10.0253 8.02325 10.061 8.04177C10.0968 8.06028 10.1358 8.07157 10.1759 8.07498C10.216 8.0784 10.2564 8.07387 10.2948 8.06166C10.3331 8.04945 10.3687 8.0298 10.3995 8.00383L10.9355 7.55051C11.1122 7.82313 11.2659 8.11 11.3949 8.40815L10.7242 8.65625C10.6478 8.68428 10.5857 8.74149 10.5515 8.81531C10.5173 8.88912 10.5139 8.97349 10.5419 9.04985C10.5699 9.12621 10.6271 9.18831 10.701 9.22249C10.7748 9.25667 10.8591 9.26012 10.9355 9.2321L11.6094 8.98399C11.7364 9.38231 11.8206 9.79303 11.8605 10.2092H11.1867C11.1054 10.2092 11.0275 10.2415 10.9701 10.2989C10.9126 10.3563 10.8804 10.4343 10.8804 10.5155C10.8804 10.5967 10.9126 10.6746 10.9701 10.7321C11.0275 10.7895 11.1054 10.8218 11.1867 10.8218L11.8881 10.8095Z" fill="#D22E7E"/>
<path d="M17.8989 15.4683C17.5855 15.1908 17.3003 14.883 17.0474 14.5494L17.7335 14.0103C17.7971 13.9602 17.8383 13.887 17.848 13.8067C17.8578 13.7263 17.8353 13.6454 17.7856 13.5815C17.7608 13.5496 17.7299 13.5229 17.6947 13.503C17.6595 13.4831 17.6207 13.4703 17.5805 13.4655C17.5404 13.4606 17.4997 13.4638 17.4607 13.4748C17.4218 13.4858 17.3854 13.5043 17.3537 13.5294L16.7013 14.044C16.475 13.675 16.2892 13.2828 16.1469 12.874L16.9065 12.6442C16.9455 12.6315 16.9815 12.6111 17.0125 12.5841C17.0434 12.5572 17.0686 12.5243 17.0866 12.4875C17.1046 12.4506 17.115 12.4106 17.1172 12.3696C17.1195 12.3287 17.1134 12.2877 17.0995 12.2491C17.0755 12.1715 17.0217 12.1067 16.9499 12.0688C16.8781 12.0309 16.7942 12.023 16.7166 12.0469L15.9876 12.2889C15.8696 11.8047 15.811 11.3079 15.813 10.8095H16.6002C16.6815 10.8095 16.7594 10.7772 16.8168 10.7198C16.8743 10.6623 16.9065 10.5844 16.9065 10.5032C16.9065 10.422 16.8743 10.3441 16.8168 10.2866C16.7594 10.2292 16.6815 10.1969 16.6002 10.1969H15.8345C15.8765 9.77325 15.9638 9.35532 16.0948 8.95026L16.8575 9.23205C16.9339 9.26008 17.0182 9.25662 17.0921 9.22244C17.1659 9.18827 17.2231 9.12616 17.2511 9.0498C17.2791 8.97344 17.2757 8.88907 17.2415 8.81526C17.2073 8.74145 17.1452 8.68423 17.0689 8.65621L16.3123 8.37748C16.4425 8.07577 16.5982 7.78576 16.7779 7.51065L17.3905 8.01604C17.4526 8.06844 17.533 8.094 17.614 8.08711C17.6541 8.0837 17.6932 8.07242 17.7289 8.05392C17.7647 8.03542 17.7964 8.01006 17.8224 7.97929C17.8483 7.94851 17.8679 7.91293 17.8801 7.87458C17.8923 7.83622 17.8968 7.79584 17.8934 7.75573C17.89 7.71563 17.8787 7.67659 17.8602 7.64084C17.8417 7.6051 17.8164 7.57335 17.7856 7.5474L17.1363 7.01138C17.3647 6.71959 17.6201 6.44989 17.8989 6.20581C18.5591 6.78338 19.0881 7.49541 19.4506 8.29415C19.8131 9.0929 20.0006 9.95991 20.0006 10.8371C20.0006 11.7142 19.8131 12.5812 19.4506 13.38C19.0881 14.1787 18.5591 14.8907 17.8989 15.4683Z" fill="#D22E7E"/>
<path d="M26.0518 21.0033L23.972 25.2486C20.8337 23.7105 17.3851 22.9108 13.8901 22.9108C10.3952 22.9108 6.94658 23.7105 3.80829 25.2486C3.11401 23.8335 2.42075 22.4184 1.72852 21.0033C5.51486 19.1501 9.67463 18.1868 13.8901 18.1868C18.1057 18.1868 22.2654 19.1501 26.0518 21.0033Z" fill="#D22E7E"/>
</svg>
