<svg width="14" height="12" viewBox="0 0 14 12" fill="none" xmlns="http://www.w3.org/2000/svg">
<path d="M9.23004 1.87231L11.3 3.94214C11.3218 3.9627 11.3392 3.98762 11.3511 4.01514C11.3629 4.04265 11.369 4.07233 11.369 4.10229C11.369 4.13226 11.3629 4.1617 11.3511 4.18921C11.3392 4.21672 11.3218 4.24164 11.3 4.26221L6.30005 9.26221L4.18005 9.5022C4.06211 9.51635 3.94334 9.48322 3.84967 9.41016C3.756 9.3371 3.69505 9.23014 3.68005 9.1123V9.01221L3.92004 6.88232L8.92004 1.88232C8.93972 1.8608 8.96367 1.84355 8.99036 1.83179C9.01704 1.82003 9.04585 1.81396 9.07501 1.81396C9.10418 1.81396 9.13304 1.82003 9.15973 1.83179C9.18642 1.84355 9.21037 1.8608 9.23004 1.88232V1.87231ZM12.95 1.35229L11.84 0.262207C11.6714 0.0942767 11.443 0 11.205 0C10.967 0 10.7387 0.0942767 10.57 0.262207L9.76001 1.07227C9.73822 1.09283 9.72085 1.11751 9.70898 1.14502C9.69712 1.17253 9.69104 1.20222 9.69104 1.23218C9.69104 1.26214 9.69712 1.29182 9.70898 1.31934C9.72085 1.34685 9.73822 1.37152 9.76001 1.39209L11.83 3.45215C11.8497 3.47367 11.8736 3.49092 11.9003 3.50269C11.927 3.51445 11.9559 3.52051 11.985 3.52051C12.0142 3.52051 12.043 3.51445 12.0697 3.50269C12.0964 3.49092 12.1203 3.47367 12.14 3.45215L12.96 2.64209C13.0443 2.55688 13.111 2.45602 13.1561 2.34497C13.2013 2.23392 13.224 2.11499 13.2231 1.99512C13.2222 1.87525 13.1976 1.75682 13.1507 1.64648C13.1038 1.53615 13.0356 1.43619 12.95 1.35229ZM8.80005 7.9021V10.2622H1.47003V2.92212H6.74005C6.81147 2.92163 6.87979 2.89303 6.93005 2.84229L7.85004 1.92212C7.8862 1.88313 7.91049 1.83478 7.9201 1.78247C7.92972 1.73016 7.92429 1.67626 7.90436 1.62695C7.88443 1.57765 7.85082 1.53483 7.80756 1.50391C7.76429 1.47298 7.71314 1.45505 7.66003 1.45215H1.10004C0.955583 1.45215 0.812535 1.48061 0.679077 1.53589C0.545619 1.59117 0.424349 1.67227 0.322205 1.77441C0.22006 1.87656 0.13902 1.99789 0.0837402 2.13135C0.0284601 2.26481 0 2.40779 0 2.55225V10.6223C0 10.7668 0.0284601 10.9098 0.0837402 11.0432C0.13902 11.1767 0.22006 11.298 0.322205 11.4001C0.424349 11.5023 0.545619 11.5831 0.679077 11.6384C0.812535 11.6937 0.955583 11.7222 1.10004 11.7222H9.17004C9.46178 11.7222 9.74152 11.6064 9.94781 11.4001C10.1541 11.1939 10.27 10.9141 10.27 10.6223V7.0022C10.27 6.93059 10.2416 6.86191 10.1909 6.81128C10.1403 6.76064 10.0716 6.73218 10 6.73218C9.96303 6.73165 9.92636 6.73847 9.89203 6.7522C9.8577 6.76593 9.82645 6.78638 9.80005 6.81226L8.89001 7.73218C8.85315 7.78084 8.83538 7.84123 8.84003 7.9021H8.80005Z" fill="black"/>
</svg>
