<svg width="34" height="33" viewBox="0 0 34 33" fill="none" xmlns="http://www.w3.org/2000/svg">
<path d="M33.8964 9.82565C29.8916 1.57524 20.8392 -2.0709 12.0408 1.18269C2.86132 4.56935 -2.36022 15.0088 1.04949 24.1242C1.04949 25.3484 2.15265 26.3997 3.36945 26.3997H5.58242C5.58242 30.2188 8.55757 33 12.2347 33C15.1296 33 17.5833 31.3166 18.4925 28.582H22.4638V31.8356C22.4638 32.4411 22.6978 32.9534 23.3129 32.9534H31.0616C31.6767 32.9534 32.3453 32.4411 32.3453 31.8356V23.0197C32.3453 22.4142 31.6767 22.0216 31.0616 22.0216H23.6739L20.0904 16.6189C25.7799 14.3567 31.095 12.2143 33.308 11.3427C33.5955 11.2296 33.8162 10.9901 33.9231 10.6973C34.0368 10.4179 34.0234 10.0852 33.8897 9.81237L33.8964 9.82565ZM12.228 28.5355C11.0045 28.5355 10.015 27.5507 10.015 26.3398C10.015 25.1288 11.0045 24.1308 12.228 24.1308C13.4515 24.1308 14.441 25.1222 14.441 26.3398C14.441 27.5574 13.4448 28.5355 12.228 28.5355ZM24.6501 24.2173H30.139V26.4063H24.6501V24.2173ZM24.6501 28.5954H30.139V30.7777H24.6501V28.5954ZM22.4571 26.413H18.6129V24.224H22.4571V26.413ZM21.4543 22.0416H18.6129V18.0761L21.4543 22.0416Z" fill="#0C3662"/>
</svg>
