<svg width="21" height="20" viewBox="0 0 21 20" fill="none" xmlns="http://www.w3.org/2000/svg">
<path d="M18.3639 7.94831C18.3639 7.74429 18.2811 7.54863 18.1336 7.40436C17.9862 7.2601 17.7862 7.17905 17.5777 7.17905C17.3692 7.17905 17.1692 7.2601 17.0218 7.40436C16.8744 7.54863 16.7915 7.74429 16.7915 7.94831H18.3639ZM3.68847 7.94831C3.68847 7.74429 3.60564 7.54863 3.4582 7.40436C3.31076 7.2601 3.11079 7.17905 2.90229 7.17905C2.69378 7.17905 2.49381 7.2601 2.34637 7.40436C2.19893 7.54863 2.1161 7.74429 2.1161 7.94831H3.68847ZM19.1186 10.5433C19.1906 10.6188 19.2774 10.6795 19.3738 10.7215C19.4703 10.7636 19.5744 10.7862 19.6799 10.788C19.7855 10.7898 19.8904 10.7708 19.9883 10.7321C20.0862 10.6934 20.1751 10.6358 20.2497 10.5628C20.3244 10.4897 20.3832 10.4027 20.4228 10.307C20.4623 10.2112 20.4817 10.1086 20.4799 10.0053C20.478 9.90199 20.4549 9.80013 20.4119 9.70577C20.369 9.61141 20.307 9.52648 20.2298 9.45605L19.1186 10.5433ZM10.24 0.76858L10.7956 0.224972C10.6482 0.0809152 10.4483 0 10.24 0C10.0317 0 9.83184 0.0809152 9.68443 0.224972L10.24 0.76858ZM0.250225 9.45605C0.172983 9.52648 0.11103 9.61141 0.0680599 9.70577C0.0250903 9.80013 0.00198486 9.90199 0.000122352 10.0053C-0.00174015 10.1086 0.0176782 10.2112 0.0572191 10.307C0.0967599 10.4027 0.155613 10.4897 0.230268 10.5628C0.304923 10.6358 0.393849 10.6934 0.491743 10.7321C0.589637 10.7708 0.694492 10.7898 0.800053 10.788C0.905614 10.7862 1.00972 10.7636 1.10616 10.7215C1.20259 10.6795 1.28939 10.6188 1.36136 10.5433L0.250225 9.45605ZM4.99878 20H15.4812V18.4615H4.99878V20ZM18.3639 17.1794V7.94831H16.7915V17.1794H18.3639ZM3.68847 17.1794V7.94831H2.1161V17.1794H3.68847ZM20.2298 9.45605L10.7956 0.224972L9.68443 1.31219L19.1186 10.5433L20.2298 9.45605ZM9.68443 0.224972L0.250225 9.45605L1.36136 10.5433L10.7956 1.31219L9.68443 0.224972ZM15.4812 20C16.2458 20 16.979 19.7028 17.5196 19.1739C18.0602 18.6449 18.3639 17.9275 18.3639 17.1794H16.7915C16.7915 17.8871 16.2045 18.4615 15.4812 18.4615V20ZM4.99878 18.4615C4.27549 18.4615 3.68847 17.8871 3.68847 17.1794H2.1161C2.1161 17.9275 2.41981 18.6449 2.96042 19.1739C3.50102 19.7028 4.23424 20 4.99878 20V18.4615Z" fill="white"/>
</svg>
