<svg width="14" height="13" viewBox="0 0 14 13" fill="none" xmlns="http://www.w3.org/2000/svg">
<g clip-path="url(#clip0_1_6317)">
<path d="M10.2106 4.78554H10.4035C11 4.78554 11.5877 4.78554 12.1579 4.78554C12.6025 4.83509 13.019 5.0194 13.3471 5.3118C13.6752 5.6042 13.8979 5.98941 13.9825 6.41153C14.0212 6.72751 13.9973 7.04765 13.9123 7.35514C13.6667 8.56836 13.4385 9.78155 13.1929 11.0032C13.1143 11.4009 12.9468 11.7775 12.7019 12.1069C12.524 12.3742 12.2768 12.5923 11.9846 12.7401C11.6924 12.8878 11.3651 12.9599 11.0351 12.9495H6.27196C5.95434 12.9844 5.63259 12.952 5.32945 12.8544C5.02631 12.7569 4.74917 12.5966 4.51758 12.3849C4.30676 12.6648 3.99329 12.8575 3.64038 12.9242H3.42109C2.71056 12.9242 2.00887 12.9242 1.29835 12.9242C0.985421 12.9226 0.683018 12.8156 0.44407 12.6215C0.205122 12.4274 0.0448628 12.1587 -0.00866097 11.8626C-0.0260844 11.7509 -0.0260844 11.6374 -0.00866097 11.5257V5.88074C-0.0217636 5.70739 0.000935437 5.53329 0.0583706 5.36847C0.115806 5.20364 0.206746 5.05143 0.325855 4.92057C0.444963 4.78972 0.589846 4.68276 0.752244 4.60607C0.914642 4.52938 1.09138 4.48439 1.27201 4.47371H3.28959C3.5974 4.44915 3.90478 4.52475 4.1625 4.68824C4.42023 4.85174 4.61323 5.0937 4.71053 5.37525V5.41742C4.98246 5.15624 5.25432 4.91188 5.5087 4.64227C6.62482 3.51815 7.58592 2.26088 8.36836 0.901453C8.4824 0.690824 8.58775 0.471762 8.68424 0.261134C8.72346 0.161582 8.79496 0.0767703 8.88812 0.0191369C8.98129 -0.0384965 9.09128 -0.065809 9.20187 -0.0589232C9.52266 -0.0588608 9.83955 0.00719848 10.1315 0.134839C10.4404 0.270148 10.7019 0.488574 10.8841 0.763742C11.0663 1.03891 11.1614 1.35897 11.158 1.68504C11.1774 2.45889 10.9901 3.22464 10.614 3.90929C10.4912 4.14519 10.3509 4.37263 10.2281 4.6001L10.2106 4.78554ZM8.53519 12.0816H11.0351C11.2101 12.082 11.3826 12.0397 11.536 11.9586C11.6894 11.8776 11.8188 11.7605 11.9123 11.6183C12.0921 11.3656 12.212 11.0779 12.2633 10.7758C12.5176 9.47833 12.7807 8.18086 13.0263 6.88339C13.0564 6.75135 13.0531 6.61424 13.0165 6.48373C12.9798 6.35322 12.9109 6.23314 12.8158 6.13354C12.6915 5.9883 12.5346 5.8719 12.3568 5.79312C12.1791 5.71433 11.9853 5.67516 11.7895 5.67855H9.33336C9.22546 5.68856 9.11724 5.66203 9.02754 5.60357C8.93784 5.54511 8.87226 5.45839 8.84208 5.35839C8.81711 5.28029 8.81378 5.19727 8.83223 5.11752C8.85068 5.03777 8.89039 4.96399 8.94744 4.9034C9.3428 4.41709 9.67277 3.88493 9.92979 3.31947C10.1651 2.83744 10.2823 2.31 10.272 1.7777C10.2798 1.5897 10.2218 1.40464 10.1073 1.25195C9.99286 1.09926 9.82857 0.98772 9.64046 0.935186C9.55274 0.935186 9.49116 0.935158 9.45607 1.01098C9.42098 1.08681 9.35086 1.22161 9.28946 1.32271C8.1582 3.29779 6.67352 5.06607 4.90349 6.54636C4.85018 6.5887 4.8158 6.64891 4.80712 6.71482C4.80712 8.09655 4.80712 9.47831 4.80712 10.86C4.80363 11.0134 4.83161 11.166 4.88978 11.3089C4.94796 11.4517 5.03502 11.5821 5.14592 11.6926C5.25682 11.803 5.38954 11.8913 5.53612 11.9523C5.68269 12.0133 5.84026 12.0458 5.99998 12.048H8.51763L8.53519 12.0816ZM3.86846 8.76218V5.93134C3.87717 5.87546 3.87437 5.81842 3.86011 5.7636C3.84586 5.70878 3.82041 5.65719 3.78537 5.6118C3.75033 5.56641 3.70627 5.52811 3.6558 5.49908C3.60533 5.47005 3.54953 5.45086 3.49133 5.44262H1.50887C1.13167 5.44262 0.973684 5.58583 0.973684 5.94811V11.5761C0.973684 11.93 1.12289 12.0816 1.50009 12.0816H3.3245C3.71924 12.0816 3.86846 11.9384 3.86846 11.5593V8.76218Z" fill="#8B2BE1"/>
</g>
<defs>
<clipPath id="clip0_1_6317">
<rect width="14" height="13" fill="white"/>
</clipPath>
</defs>
</svg>
