<svg width="21" height="21" viewBox="0 0 21 21" fill="none" xmlns="http://www.w3.org/2000/svg">
<g clip-path="url(#clip0_2028_177)">
<path d="M11.704 21H9.296L9.04925 20.783C8.75 20.5231 1.75 14.3325 1.75 8.75C1.75 6.42936 2.67187 4.20376 4.31282 2.56282C5.95376 0.921872 8.17936 0 10.5 0C12.8206 0 15.0462 0.921872 16.6872 2.56282C18.3281 4.20376 19.25 6.42936 19.25 8.75C19.25 14.3325 12.25 20.5231 11.9507 20.783L11.704 21ZM9.96275 19.25H11.0364C12.2316 18.1431 17.5 13.0174 17.5 8.75C17.5 6.89348 16.7625 5.11301 15.4497 3.80025C14.137 2.4875 12.3565 1.75 10.5 1.75C8.64348 1.75 6.86301 2.4875 5.55025 3.80025C4.2375 5.11301 3.5 6.89348 3.5 8.75C3.5 13.0253 8.76837 18.1449 9.96275 19.25Z" fill="#F59500"/>
<path d="M10.5 13.125C9.63471 13.125 8.78885 12.8684 8.06938 12.3877C7.34992 11.9069 6.78916 11.2237 6.45803 10.4242C6.1269 9.62481 6.04026 8.74515 6.20907 7.89648C6.37788 7.04781 6.79456 6.26826 7.40641 5.65641C8.01826 5.04456 8.79781 4.62788 9.64648 4.45907C10.4951 4.29026 11.3748 4.3769 12.1742 4.70803C12.9737 5.03916 13.657 5.59992 14.1377 6.31938C14.6184 7.03885 14.875 7.88471 14.875 8.75C14.8736 9.9099 14.4122 11.0219 13.5921 11.8421C12.7719 12.6622 11.6599 13.1236 10.5 13.125ZM10.5 6.125C9.98083 6.125 9.47331 6.27896 9.04163 6.56739C8.60995 6.85583 8.2735 7.2658 8.07482 7.74546C7.87614 8.22511 7.82415 8.75291 7.92544 9.26211C8.02673 9.77131 8.27673 10.239 8.64385 10.6062C9.01096 10.9733 9.47869 11.2233 9.98789 11.3246C10.4971 11.4258 11.0249 11.3739 11.5045 11.1752C11.9842 10.9765 12.3942 10.6401 12.6826 10.2084C12.971 9.77669 13.125 9.26918 13.125 8.75C13.125 8.05381 12.8484 7.38613 12.3562 6.89385C11.8639 6.40156 11.1962 6.125 10.5 6.125Z" fill="#F59500"/>
<path d="M5.02425 20.3342C1.83138 19.4819 0 17.9708 0 16.1875C0 14.5863 1.45425 13.2125 4.095 12.3218L4.655 13.979C2.8875 14.5749 1.75 15.442 1.75 16.1875C1.75 16.9147 2.9015 17.9559 5.47575 18.6428L5.02425 20.3342Z" fill="#F59500"/>
<path d="M15.05 20.5521L14.7 18.8388C17.6898 18.2141 19.25 17.032 19.25 16.1876C19.25 15.4298 18.0818 14.554 16.275 13.9555L16.8253 12.293C19.5168 13.1855 21 14.568 21 16.1876C21 18.1423 18.7775 19.7751 15.05 20.5521Z" fill="#F59500"/>
</g>
<defs>
<clipPath id="clip0_2028_177">
<rect width="21" height="21" fill="white"/>
</clipPath>
</defs>
</svg>
