<svg width="20" height="21" viewBox="0 0 20 21" fill="none" xmlns="http://www.w3.org/2000/svg">
<g clip-path="url(#clip0_1_6501)">
<path d="M20 17.8584C19.911 18.1597 19.6973 18.3119 19.4298 18.424C17.4496 19.2508 15.471 20.0822 13.4947 20.9193C13.2424 21.0262 13.015 21.0267 12.7626 20.9198C10.8651 20.1146 8.96421 19.3191 7.06574 18.516C6.93614 18.461 6.82708 18.46 6.69651 18.515C4.79803 19.3176 2.89271 20.1022 1.00157 20.9229C0.444552 21.1645 -0.00243524 20.8087 9.98465e-06 20.2076C0.0166375 16.3693 0.00832376 12.531 0.0088128 8.69317C0.0088128 8.22475 0.123738 8.04736 0.540405 7.87151C2.5362 7.03083 4.53297 6.1917 6.52828 5.34896C6.74933 5.25538 6.95864 5.23327 7.18751 5.33097C8.39154 5.84412 9.59948 6.34647 10.805 6.85653C11.162 7.0077 11.3253 7.32854 11.2295 7.66636C11.115 8.06999 10.7429 8.24275 10.3355 8.07256C9.48407 7.71726 8.63508 7.35682 7.78463 6.99896C7.7015 6.96399 7.61689 6.9316 7.51517 6.89098C7.51126 6.97325 7.50588 7.03803 7.50588 7.10282C7.50588 10.428 7.50686 13.7532 7.50148 17.0784C7.50148 17.2434 7.5494 17.3123 7.69318 17.3725C9.23368 18.0126 10.7707 18.6615 12.3093 19.3078C12.368 19.3325 12.4281 19.3541 12.5034 19.3834V19.1171C12.5034 16.955 12.5034 14.7928 12.5034 12.6312C12.5034 12.5423 12.4995 12.4518 12.5142 12.3654C12.5675 12.0487 12.8355 11.8204 13.1377 11.8255C13.4478 11.8307 13.708 12.077 13.7461 12.4071C13.7554 12.4883 13.752 12.5711 13.752 12.6528C13.752 14.8078 13.752 16.9632 13.752 19.1181V19.3901C13.8723 19.3402 13.973 19.2991 14.0738 19.2569C15.5697 18.6281 17.0643 17.9967 18.5627 17.374C18.7075 17.3139 18.7544 17.2444 18.7544 17.0799C18.7485 14.7193 18.75 12.3592 18.752 9.99866C18.752 9.884 18.7564 9.76368 18.7872 9.65519C18.864 9.38628 19.0503 9.23357 19.3124 9.20426C19.576 9.17495 19.7785 9.29578 19.9169 9.53385C19.9462 9.58475 19.9726 9.63771 20 9.69016V17.8599V17.8584ZM1.25735 19.3829C1.33413 19.3531 1.39428 19.3315 1.45296 19.3068C2.99101 18.6605 4.52808 18.0116 6.06857 17.372C6.21333 17.3118 6.26028 17.2419 6.25979 17.0778C6.25441 13.7532 6.25588 10.4285 6.25539 7.10333C6.25539 7.03803 6.25001 6.97325 6.2461 6.89046C6.16932 6.9208 6.10917 6.94343 6.04999 6.96811C4.5183 7.61237 2.98759 8.2592 1.45345 8.89678C1.30234 8.95951 1.25294 9.03458 1.25343 9.20477C1.25881 12.5228 1.25735 15.8407 1.25735 19.1587V19.3829Z" fill="#062240"/>
<path d="M20.0001 4.80341C19.872 5.7243 19.5111 6.55213 19.0763 7.34961C18.3584 8.66539 17.4898 9.86702 16.5621 11.0239C16.411 11.2121 16.2633 11.4039 16.1049 11.5849C15.8246 11.9047 15.4197 11.9114 15.1483 11.5828C13.9046 10.0783 12.729 8.52142 11.8648 6.73312C11.5875 6.1593 11.3489 5.56696 11.2848 4.91807C11.1787 3.83676 11.4579 2.85468 12.0443 1.97647C12.7891 0.86122 13.8176 0.215414 15.1067 0.037509C15.1507 0.0313389 15.1933 0.0128285 15.2363 0.000488281C15.4965 0.000488281 15.7571 0.000488281 16.0173 0.000488281C16.0736 0.014371 16.1288 0.0323672 16.1855 0.0416224C17.9011 0.331618 19.09 1.32038 19.7209 3.0223C19.8583 3.39251 19.9091 3.7982 20.0001 4.18794V4.80393V4.80341ZM15.6207 10.1678C15.7038 10.0629 15.7625 9.99043 15.8197 9.91587C16.7983 8.6438 17.7329 7.34087 18.4058 5.85387C18.6024 5.41991 18.7677 4.97309 18.7462 4.47999C18.7105 3.64806 18.4166 2.92975 17.8737 2.322C16.8482 1.17281 15.1048 0.987707 13.8611 1.89009C12.8424 2.62947 12.0262 4.25221 12.8684 5.9238C13.3999 6.97941 14.0093 7.97485 14.6915 8.92505C14.9884 9.33845 15.3004 9.73951 15.6212 10.1673L15.6207 10.1678Z" fill="#062240"/>
<path d="M15.6246 6.56706C14.602 6.56449 13.7466 5.66057 13.754 4.59057C13.7618 3.51234 14.623 2.61613 15.6382 2.62898C16.6584 2.64184 17.4961 3.52673 17.4991 4.59468C17.5025 5.66622 16.6432 6.56963 15.6241 6.56655L15.6246 6.56706ZM16.25 4.59314C16.2471 4.2363 15.9659 3.9427 15.6265 3.9427C15.2793 3.9427 14.9956 4.24761 15.0035 4.61319C15.0108 4.96951 15.2974 5.25951 15.6363 5.25385C15.9752 5.2482 16.2535 4.94895 16.2505 4.59314H16.25Z" fill="#062240"/>
</g>
<defs>
<clipPath id="clip0_1_6501">
<rect width="20" height="21" fill="white"/>
</clipPath>
</defs>
</svg>
