<svg width="17" height="14" viewBox="0 0 17 14" fill="none" xmlns="http://www.w3.org/2000/svg">
<path d="M17 4.56876V6.60609C16.8978 6.74121 16.8222 6.90406 16.6897 7.00801C16.5081 7.15006 16.2925 7.26787 16.0768 7.36488C15.8309 7.47576 15.566 7.55545 15.286 7.6594V9.57545C15.426 9.64821 15.5812 9.72097 15.7287 9.80759C16.0163 9.97737 16.1563 10.2095 16.1487 10.5317C16.1336 11.0168 16.126 11.5054 16.1487 11.9904C16.1714 12.3958 15.9784 12.6626 15.6266 12.8705C15.2179 13.113 14.7677 13.262 14.3023 13.3798C12.6678 13.7956 10.9879 13.9342 9.3004 13.9862C8.11613 14.0243 6.93565 13.9827 5.75517 13.8718C4.68063 13.7714 3.61745 13.6328 2.58074 13.3487C2.10779 13.2205 1.6462 13.0645 1.24514 12.7908C0.9765 12.6072 0.836508 12.375 0.844075 12.0528C0.859209 11.4361 0.847858 10.8193 0.847858 10.2095C0.681381 10.1056 0.499768 10.0086 0.337074 9.89075C0.113842 9.73137 -0.00723265 9.51655 0.000334523 9.2359C0.0116853 8.69885 0.0079017 8.1618 0.000334523 7.62475C0.000334523 7.38221 0.0911406 7.18125 0.295454 7.04265C0.477067 6.92139 0.673813 6.81051 0.878127 6.73082C1.13919 6.62687 1.4154 6.55411 1.70295 6.46056V4.53065C1.55917 4.48561 1.39648 4.44749 1.2527 4.38166C0.934881 4.23267 0.613276 4.08369 0.318156 3.90351C0.087357 3.76146 -0.00344907 3.53624 0.000334523 3.26945C0.0116853 2.7324 0.0079017 2.19535 0.000334523 1.6583C0.000334523 1.43655 0.0873571 1.24945 0.268969 1.11086C0.378693 1.0277 0.495985 0.94801 0.620843 0.885643C1.07487 0.656964 1.57052 0.535695 2.07752 0.438679C3.61366 0.140703 5.17628 0.0506177 6.73891 0.0125045C8.25991 -0.0256087 9.78091 0.022899 11.2943 0.164957C12.1646 0.248113 13.031 0.345129 13.8672 0.591132C14.2266 0.698542 14.5709 0.850995 14.9039 1.01731C15.1385 1.13511 15.2974 1.33954 15.2974 1.5994C15.305 2.27158 15.2974 2.94029 15.2974 3.6194C15.5206 3.68523 15.7779 3.75453 16.0314 3.84461C16.4362 3.99014 16.8184 4.17031 16.9962 4.57223L17 4.56876ZM7.65075 0.5253C7.41995 0.5253 7.18537 0.5253 6.95457 0.5253C5.33141 0.549554 3.71582 0.63964 2.12671 0.95494C1.6689 1.04503 1.21108 1.14897 0.798672 1.36379C0.518686 1.50931 0.511119 1.64098 0.787321 1.78996C1.04839 1.92856 1.32837 2.04983 1.61214 2.13645C2.86451 2.51758 4.16228 2.68043 5.46762 2.77398C7.5713 2.9195 9.6674 2.87792 11.7522 2.56609C12.5619 2.44482 13.3602 2.29237 14.1169 1.99439C14.2872 1.92856 14.4536 1.83847 14.6012 1.73799C14.7715 1.62365 14.7639 1.5301 14.5861 1.41923C14.4688 1.34647 14.3401 1.2841 14.2077 1.23559C13.4548 0.965334 12.664 0.844065 11.8695 0.74705C10.4695 0.577273 9.06203 0.51837 7.64697 0.528765L7.65075 0.5253ZM2.30454 4.6831C2.30454 4.6831 2.28941 4.71082 2.28184 4.72468C2.32724 4.76972 2.36886 4.82863 2.42183 4.86327C2.56182 4.94643 2.70182 5.02612 2.85316 5.08849C3.48124 5.34489 4.15093 5.48694 4.82441 5.60475C6.05408 5.82303 7.29888 5.92351 8.54746 5.9547C10.5528 5.99974 12.5467 5.89579 14.5104 5.48348C15.0704 5.36567 15.6266 5.22708 16.1298 4.96029C16.2471 4.89792 16.3303 4.78358 16.4287 4.6935C16.3265 4.61034 16.2433 4.496 16.1222 4.45442C15.706 4.3089 15.2785 4.1911 14.8547 4.06636C14.8207 4.05597 14.7677 4.07329 14.7336 4.09062C14.0866 4.44056 13.3715 4.61034 12.6451 4.75586C11.4192 4.9984 10.1782 5.11274 8.92961 5.16125C6.95079 5.23748 4.98332 5.15432 3.03477 4.8217C2.79262 4.78012 2.55047 4.73161 2.30832 4.69003L2.30454 4.6831ZM14.1737 7.94351C14.1737 7.94351 14.1661 7.91926 14.1623 7.9054C14.1131 7.91233 14.0639 7.91233 14.0185 7.92272C13.0461 8.09596 12.0624 8.19298 11.0749 8.24842C9.74686 8.32118 8.4226 8.31078 7.09835 8.21377C5.97462 8.13408 4.85468 7.99548 3.76501 7.72869C3.13315 7.57277 2.50885 7.403 1.99807 7.00108C1.97158 6.98029 1.91105 6.96643 1.88078 6.97682C1.52512 7.09463 1.15811 7.19511 0.813806 7.3441C0.511119 7.47576 0.507335 7.61782 0.813806 7.76334C1.16568 7.92965 1.53269 8.07864 1.91105 8.18259C3.40556 8.58797 4.9417 8.73003 6.49297 8.7924C7.63183 8.8409 8.77069 8.81665 9.90955 8.73349C11.1127 8.64341 12.3046 8.48749 13.4661 8.17566C13.7121 8.10982 13.9504 8.01974 14.1888 7.94351H14.1737ZM1.46458 10.4486C1.46458 10.4486 1.44945 10.4624 1.4381 10.4694C1.5289 10.5317 1.60836 10.6149 1.70673 10.6565C2.05104 10.7951 2.39156 10.9441 2.74722 11.0411C4.00716 11.3876 5.30871 11.54 6.61783 11.6162C8.69502 11.7375 10.7646 11.6821 12.8154 11.3494C13.5569 11.2282 14.2909 11.0827 14.9833 10.802C15.1574 10.7327 15.3239 10.6357 15.479 10.5317C15.6114 10.4382 15.6114 10.362 15.4714 10.2788C15.2898 10.1749 15.0931 10.0917 14.9001 10.0086C14.8698 9.99469 14.8131 10.0086 14.7828 10.0259C14.1774 10.3724 13.5002 10.5421 12.8154 10.6842C11.0635 11.0411 9.28526 11.1589 7.49562 11.1519C5.96705 11.145 4.44605 11.0445 2.94397 10.7708C2.44832 10.6807 1.95645 10.556 1.46458 10.4486ZM7.94966 3.36646V4.63806H9.06203V3.36646H7.94966ZM6.25082 3.36646V4.64152H7.36698V3.36646H6.25082ZM8.80096 12.1845V13.4526H9.90955V12.1845H8.80096ZM8.20694 13.4595V12.1845H7.09456V13.4595H8.20694ZM7.94587 9.32945V10.6045H9.05446V9.32945H7.94587ZM7.35942 10.6045V9.32945H6.24326V10.6045H7.35942ZM9.64092 7.74948H10.7533V6.47789H9.64092V7.74948ZM9.05825 6.47096H7.94209V7.75295H9.05825V6.47096ZM6.52703 6.36008V7.65247C6.80701 7.67325 7.07943 7.69404 7.3632 7.71483V6.42591C7.08321 6.40512 6.81079 6.38087 6.52703 6.36008ZM4.82441 10.504C5.1044 10.5248 5.37681 10.5456 5.66058 10.5664V9.27747C5.3806 9.25668 5.10818 9.2359 4.82441 9.21511V10.504ZM9.64092 4.60341C9.92847 4.57916 10.2009 4.5549 10.4733 4.53411V3.25213C10.1858 3.27291 9.91334 3.2937 9.64092 3.31449V4.60688V4.60341ZM10.4771 10.5006V9.21511C10.1933 9.2359 9.92091 9.25668 9.64849 9.27747V10.5699C9.93226 10.5456 10.2009 10.5248 10.4771 10.5006ZM11.3435 6.42245V7.71137C11.6311 7.68711 11.9035 7.66633 12.1721 7.64554V6.36008C11.8884 6.38087 11.6197 6.40166 11.3435 6.42245ZM5.67193 4.59995C5.67193 4.17724 5.67193 3.77878 5.66815 3.38032C5.66815 3.35261 5.6114 3.3041 5.58113 3.30063C5.3352 3.27638 5.08926 3.26598 4.83198 3.24866V4.53065C5.11196 4.5549 5.3806 4.57569 5.67572 4.59995H5.67193ZM4.24552 4.47175V3.18629C3.96932 3.15164 3.69312 3.117 3.40935 3.07888V4.35048C3.68177 4.38859 3.95419 4.4267 4.24552 4.46828V4.47175ZM11.8997 13.2932C12.1986 13.2516 12.4748 13.2101 12.7435 13.1719V11.9038C12.4937 11.935 12.2554 11.9593 12.017 11.9939C11.9716 12.0008 11.9035 12.0528 11.9035 12.0875C11.8959 12.4824 11.8997 12.874 11.8997 13.2932ZM4.26444 11.9004V13.1754C4.54443 13.2135 4.81684 13.2516 5.09683 13.2932V12.0112C4.82063 11.9766 4.54821 11.9385 4.26444 11.9004ZM12.7624 7.58317C13.0234 7.54852 13.2732 7.51734 13.5229 7.47229C13.5569 7.46536 13.6023 7.39607 13.6023 7.35449C13.6099 7.09809 13.6061 6.83823 13.6061 6.58183C13.6061 6.4571 13.6061 6.33583 13.6061 6.19377C13.3072 6.23188 13.0348 6.26653 12.7624 6.30465V7.58317ZM3.40178 9.04533C3.40178 9.45765 3.40178 9.84571 3.40178 10.2372C3.40178 10.2684 3.44718 10.3239 3.48124 10.3273C3.73095 10.3689 3.98067 10.4001 4.23795 10.4382V9.1562C3.96175 9.12156 3.69312 9.08691 3.398 9.04879L3.40178 9.04533ZM3.68177 13.0715V11.8033C3.40178 11.7444 3.13315 11.689 2.83424 11.6301C2.83424 12.0389 2.83424 12.4235 2.83803 12.8116C2.83803 12.8393 2.891 12.8844 2.92505 12.8948C3.1672 12.9571 3.41313 13.0091 3.67798 13.0715H3.68177ZM4.52929 7.36142V6.09676C4.24931 6.03785 3.97689 5.98242 3.6969 5.92351V7.17085C3.96932 7.23322 4.23795 7.29559 4.52929 7.36142ZM13.3148 8.77507C13.0234 8.83744 12.751 8.89288 12.4862 8.95178V10.2164C12.7737 10.1506 13.0461 10.0882 13.3148 10.0293V8.77854V8.77507ZM14.1737 11.6266C13.8748 11.689 13.6023 11.7479 13.3261 11.8033V13.068C13.591 13.0056 13.8483 12.9502 14.1018 12.8878C14.132 12.8809 14.1699 12.8324 14.1699 12.8047C14.1737 12.4201 14.1699 12.0389 14.1699 11.6266H14.1737ZM12.4824 2.98533V4.24653C12.7321 4.18763 12.9629 4.12873 13.1975 4.08369C13.3034 4.0629 13.3224 4.01439 13.3224 3.92777C13.3186 3.67137 13.3224 3.41151 13.3224 3.15511C13.3224 3.04077 13.3224 2.9299 13.3224 2.80863C13.0272 2.87099 12.7586 2.92643 12.4824 2.9888V2.98533ZM10.4998 13.418C10.7836 13.3937 11.0522 13.3729 11.3246 13.3521V12.0667C11.0446 12.0875 10.776 12.1082 10.4998 12.129V13.4214V13.418ZM5.68707 13.3521C5.96705 13.3764 6.23569 13.3972 6.51189 13.418V12.1256C6.23569 12.1048 5.96705 12.0875 5.68707 12.0667V13.3521ZM11.0673 10.4347C11.2225 10.4139 11.3587 10.3966 11.4949 10.3758C11.7673 10.3366 11.9035 10.1899 11.9035 9.93579V9.04879C11.6122 9.08691 11.3398 9.12156 11.0673 9.1562V10.4382V10.4347ZM5.94814 6.29772C5.66437 6.26307 5.39573 6.23188 5.10818 6.19377C5.10818 6.60609 5.10818 6.99415 5.10818 7.38567C5.10818 7.41686 5.14602 7.46536 5.17628 7.46883C5.42978 7.51041 5.68329 7.54159 5.94435 7.5797V6.29772H5.94814ZM11.0673 4.46828C11.3511 4.4267 11.6273 4.38859 11.8922 4.35048V3.08235C11.6084 3.12046 11.3398 3.15511 11.0673 3.18976V4.47175V4.46828ZM14.185 7.36488C14.4461 7.30598 14.692 7.25055 14.9342 7.19164C14.9682 7.18471 15.0136 7.14313 15.0136 7.11888C15.0174 6.72735 15.0136 6.33236 15.0136 5.92351C14.7223 5.98588 14.4499 6.04478 14.1812 6.10022V7.36488H14.185ZM1.42296 3.89312C1.42296 3.4808 1.42296 3.09967 1.42296 2.71508C1.42296 2.68736 1.39648 2.64578 1.36999 2.63538C1.10893 2.52797 0.847858 2.42749 0.57544 2.32008C0.57544 2.55223 0.605709 2.78091 0.567873 3.00266C0.499768 3.42537 0.723 3.64365 1.11649 3.77878C1.2073 3.80996 1.29811 3.84808 1.42675 3.89658L1.42296 3.89312ZM16.4362 5.43151C16.1638 5.53892 15.9065 5.6394 15.653 5.74681C15.6152 5.76413 15.5849 5.83343 15.5849 5.87847C15.5774 6.12447 15.5849 6.37394 15.5849 6.61995C15.5849 6.74121 15.5849 6.86595 15.5849 7.03919C15.8536 6.9006 16.0844 6.79665 16.2963 6.66499C16.3681 6.62341 16.4287 6.51946 16.4325 6.44324C16.4476 6.11061 16.44 5.77799 16.44 5.43497L16.4362 5.43151ZM1.9905 8.782C1.9905 9.18739 1.9905 9.57545 1.9905 9.96351C1.9905 9.99469 2.03969 10.0397 2.07374 10.0501C2.31589 10.1125 2.56182 10.1645 2.81911 10.2234V8.95524C2.54291 8.89634 2.27427 8.8409 1.98672 8.782H1.9905ZM0.571656 8.28653C0.571656 8.62608 0.567873 8.96217 0.571656 9.2948C0.571656 9.3537 0.605709 9.42646 0.651112 9.46804C0.859209 9.65861 1.12028 9.75562 1.42296 9.84571C1.42296 9.44032 1.42296 9.05572 1.42296 8.67459C1.42296 8.64687 1.38134 8.6053 1.35108 8.59144C1.10136 8.48749 0.847858 8.39048 0.57544 8.28307L0.571656 8.28653ZM1.9905 2.81556C1.9905 3.21748 1.9905 3.60207 1.9905 3.98321C1.9905 4.01439 2.02077 4.06983 2.04726 4.07676C2.30076 4.13912 2.55426 4.19456 2.82289 4.25693V2.99226C2.55047 2.93336 2.28184 2.87792 1.98672 2.81902L1.9905 2.81556ZM13.8899 9.84917C14.185 9.74869 14.4461 9.63435 14.6655 9.45072C14.6996 9.423 14.7336 9.37449 14.7336 9.33638C14.7374 8.98989 14.7336 8.64341 14.7336 8.28307C14.4423 8.40434 14.1661 8.51521 13.8861 8.63301V9.84917H13.8899ZM3.1218 7.0288C3.1218 6.59223 3.1218 6.21456 3.1218 5.83689C3.1218 5.80917 3.09909 5.76413 3.07261 5.75374C2.80776 5.64633 2.54291 5.54238 2.2667 5.43151C2.2667 5.75027 2.27427 6.05864 2.2667 6.36355C2.2667 6.48828 2.30454 6.58876 2.41426 6.65113C2.63371 6.77586 2.85694 6.88674 3.12558 7.0288H3.1218ZM14.7374 2.32008C14.4612 2.42749 14.2077 2.52451 13.958 2.62845C13.9277 2.64231 13.8861 2.68389 13.8861 2.71161C13.8823 3.09274 13.8861 3.47734 13.8861 3.8758C14.1888 3.77878 14.4499 3.65751 14.6769 3.47734C14.7147 3.44962 14.7374 3.38725 14.7374 3.34221C14.7412 3.00612 14.7374 2.66657 14.7374 2.31662V2.32008ZM2.22508 12.7215C2.22508 12.7215 2.25157 12.6938 2.2667 12.6799C2.2667 12.3023 2.2667 11.9211 2.2667 11.5435C2.2667 11.5123 2.23644 11.4638 2.20617 11.4499C1.95267 11.346 1.69538 11.2455 1.42675 11.1416C1.42675 11.495 1.42296 11.8415 1.43053 12.1914C1.43053 12.2503 1.49107 12.33 1.54782 12.3646C1.76727 12.4928 2.00185 12.6037 2.22887 12.7215H2.22508ZM14.7374 12.7077C15.0212 12.6106 15.2785 12.5171 15.4903 12.3369C15.5282 12.3057 15.5736 12.2538 15.5736 12.2122C15.5812 11.8553 15.5736 11.5019 15.5736 11.1416C15.305 11.2455 15.0552 11.346 14.8055 11.4465C14.7753 11.4603 14.7374 11.5054 14.7374 11.5331C14.7336 11.9177 14.7374 12.2988 14.7374 12.7042V12.7077Z" fill="white"/>
</svg>
