<svg width="14" height="11" viewBox="0 0 14 11" fill="none" xmlns="http://www.w3.org/2000/svg">
<path d="M14 3.58974V5.1905C13.9159 5.29667 13.8536 5.42462 13.7445 5.50629C13.5949 5.61791 13.4173 5.71047 13.2397 5.7867C13.0372 5.87381 12.8191 5.93643 12.5885 6.0181V7.52357C12.7038 7.58074 12.8315 7.63791 12.9531 7.70597C13.1899 7.83936 13.3052 8.02176 13.2989 8.27494C13.2865 8.65607 13.2802 9.03993 13.2989 9.42106C13.3176 9.73958 13.1587 9.9492 12.8689 10.1125C12.5324 10.3031 12.1616 10.4202 11.7784 10.5127C10.4323 10.8394 9.04884 10.9483 7.65915 10.9891C6.68387 11.0191 5.71171 10.9864 4.73955 10.8993C3.85464 10.8204 2.97907 10.7115 2.12532 10.4882C1.73583 10.3875 1.35569 10.265 1.02541 10.0499C0.804177 9.90564 0.688889 9.72324 0.69512 9.47006C0.707584 8.98548 0.698236 8.5009 0.698236 8.02176C0.561137 7.94009 0.411574 7.86386 0.27759 7.7713C0.0937524 7.64607 -0.0059563 7.47729 0.00027549 7.25677C0.00962318 6.83481 0.00650728 6.41284 0.00027549 5.99087C0.00027549 5.80031 0.075057 5.64241 0.243315 5.53351C0.392878 5.43823 0.554905 5.35112 0.723164 5.2885C0.93816 5.20683 1.16562 5.14966 1.40243 5.07616V3.5598C1.28402 3.52441 1.15004 3.49446 1.03164 3.44273C0.769902 3.32567 0.505051 3.20861 0.262011 3.06705C0.0719411 2.95543 -0.00284041 2.77848 0.00027549 2.56885C0.00962318 2.14689 0.00650728 1.72492 0.00027549 1.30295C0.00027549 1.12872 0.0719411 0.981711 0.221504 0.872816C0.311865 0.807479 0.408458 0.744865 0.511283 0.695862C0.88519 0.516186 1.29337 0.420903 1.7109 0.344677C2.97596 0.110553 4.26282 0.0397711 5.54969 0.00982498C6.80228 -0.0201211 8.05487 0.0179921 9.30123 0.129609C10.0179 0.194946 10.7314 0.271173 11.42 0.464461C11.716 0.548854 11.9996 0.668639 12.2738 0.799312C12.467 0.891873 12.5978 1.05249 12.5978 1.25667C12.6041 1.78481 12.5978 2.31023 12.5978 2.84381C12.7817 2.89554 12.9936 2.94999 13.2023 3.02077C13.5357 3.13511 13.8504 3.27667 13.9969 3.59246L14 3.58974ZM6.30062 0.412736C6.11055 0.412736 5.91736 0.412736 5.72729 0.412736C4.39057 0.431792 3.06009 0.502574 1.75141 0.75031C1.37439 0.821091 0.997362 0.902762 0.65773 1.07155C0.427153 1.18589 0.420922 1.28934 0.648382 1.4064C0.863379 1.5153 1.09396 1.61058 1.32765 1.67864C2.35901 1.9781 3.42776 2.10605 4.50275 2.17955C6.23519 2.29389 7.96139 2.26123 9.67825 2.01621C10.3451 1.92093 11.0025 1.80114 11.6257 1.56702C11.7659 1.5153 11.903 1.44451 12.0245 1.36557C12.1647 1.27573 12.1585 1.20222 12.0121 1.11511C11.9155 1.05794 11.8095 1.00893 11.7005 0.970822C11.0804 0.758477 10.4292 0.663194 9.77484 0.586967C8.62196 0.453571 7.46285 0.407291 6.2975 0.415458L6.30062 0.412736ZM1.89786 3.67958C1.89786 3.67958 1.88539 3.70136 1.87916 3.71225C1.91655 3.74764 1.95083 3.79392 1.99445 3.82114C2.10974 3.88648 2.22503 3.94909 2.34966 3.9981C2.8669 4.19955 3.41841 4.31117 3.97304 4.40373C4.98571 4.57524 6.01084 4.65419 7.03909 4.67869C8.69051 4.71408 10.3326 4.63241 11.9497 4.30845C12.4109 4.21589 12.8689 4.10699 13.2833 3.89737C13.3799 3.84837 13.4485 3.75853 13.5295 3.68775C13.4454 3.62241 13.3768 3.53257 13.2771 3.4999C12.9344 3.38556 12.5823 3.293 12.2333 3.195C12.2052 3.18683 12.1616 3.20044 12.1336 3.21406C11.6008 3.48901 11.0119 3.62241 10.4136 3.73675C9.40405 3.92732 8.38204 4.01715 7.35379 4.05527C5.72418 4.11516 4.10391 4.04982 2.49922 3.78848C2.29981 3.75581 2.10039 3.71769 1.90097 3.68502L1.89786 3.67958ZM11.6724 6.24133C11.6724 6.24133 11.6662 6.22227 11.6631 6.21138C11.6226 6.21683 11.5821 6.21683 11.5447 6.225C10.7439 6.36111 9.93375 6.43734 9.12051 6.4809C8.02683 6.53807 6.93626 6.5299 5.8457 6.45368C4.92028 6.39106 3.99797 6.28217 3.10059 6.07254C2.58024 5.95004 2.06612 5.81664 1.64547 5.50085C1.62366 5.48451 1.5738 5.47362 1.54888 5.48179C1.25598 5.57435 0.95374 5.6533 0.670193 5.77036C0.420922 5.87381 0.417806 5.98543 0.670193 6.09977C0.959972 6.23044 1.26221 6.3475 1.5738 6.42917C2.80458 6.74769 4.06964 6.85931 5.34715 6.90831C6.28504 6.94642 7.22292 6.92737 8.16081 6.86203C9.15166 6.79125 10.1332 6.66874 11.0898 6.42373C11.2923 6.372 11.4886 6.30122 11.6849 6.24133H11.6724ZM1.20613 8.2096C1.20613 8.2096 1.19366 8.22049 1.18432 8.22594C1.2591 8.27494 1.32453 8.34028 1.40554 8.37295C1.68909 8.48184 1.96952 8.5989 2.26242 8.67513C3.30001 8.94737 4.37188 9.06715 5.44998 9.12704C7.16061 9.22233 8.865 9.17877 10.5538 8.91742C11.1645 8.82214 11.769 8.7078 12.3392 8.48729C12.4826 8.43284 12.6197 8.35661 12.7474 8.27494C12.8565 8.20144 12.8565 8.14155 12.7412 8.07621C12.5916 7.99454 12.4296 7.9292 12.2707 7.86386C12.2458 7.85297 12.199 7.86386 12.1741 7.87748C11.6755 8.14971 11.1178 8.28311 10.5538 8.39473C9.11116 8.67513 7.64669 8.76769 6.17287 8.76225C4.91404 8.7568 3.66145 8.67785 2.42444 8.46278C2.01626 8.392 1.61119 8.294 1.20613 8.2096ZM6.54678 2.64508V3.64419H7.46285V2.64508H6.54678ZM5.14774 2.64508V3.64691H6.06693V2.64508H5.14774ZM7.24785 9.57351V10.5699H8.16081V9.57351H7.24785ZM6.75866 10.5753V9.57351H5.84258V10.5753H6.75866ZM6.54366 7.33028V8.33211H7.45662V7.33028H6.54366ZM6.0607 8.33211V7.33028H5.14151V8.33211H6.0607ZM7.93958 6.08888H8.85565V5.08977H7.93958V6.08888ZM7.45973 5.08432H6.54054V6.0916H7.45973V5.08432ZM5.3752 4.99721V6.01265C5.60577 6.02899 5.83012 6.04532 6.06381 6.06165V5.04893C5.83323 5.0326 5.60889 5.01354 5.3752 4.99721ZM3.97304 8.25316C4.20362 8.2695 4.42797 8.28583 4.66166 8.30217V7.28944C4.43108 7.27311 4.20674 7.25677 3.97304 7.24044V8.25316ZM7.93958 3.61697C8.17639 3.59791 8.40073 3.57885 8.62508 3.56252V2.55524C8.38827 2.57158 8.16393 2.58791 7.93958 2.60424V3.61969V3.61697ZM8.62819 8.25044V7.24044C8.3945 7.25677 8.17016 7.27311 7.94581 7.28944V8.30489C8.17951 8.28583 8.40073 8.2695 8.62819 8.25044ZM9.34173 5.04621V6.05893C9.57854 6.03988 9.80289 6.02354 10.0241 6.00721V4.99721C9.79042 5.01354 9.56919 5.02988 9.34173 5.04621ZM4.671 3.61424C4.671 3.28211 4.671 2.96904 4.66789 2.65597C4.66789 2.63419 4.62115 2.59608 4.59622 2.59335C4.39369 2.5743 4.19116 2.56613 3.97928 2.55252V3.5598C4.20985 3.57885 4.43108 3.59519 4.67412 3.61424H4.671ZM3.49631 3.51352V2.50352C3.26885 2.47629 3.04139 2.44907 2.8077 2.41912V3.41823C3.03204 3.44818 3.25639 3.47812 3.49631 3.51079V3.51352ZM9.79977 10.4447C10.0459 10.412 10.2734 10.3793 10.4946 10.3494V9.353C10.289 9.3775 10.0927 9.39656 9.89636 9.42378C9.85897 9.42923 9.80289 9.47006 9.80289 9.49729C9.79666 9.80764 9.79977 10.1153 9.79977 10.4447ZM3.51189 9.35028V10.3521C3.74247 10.3821 3.96681 10.412 4.19739 10.4447V9.43739C3.96993 9.41017 3.74558 9.38022 3.51189 9.35028ZM10.5102 5.9582C10.7252 5.93098 10.9308 5.90648 11.1365 5.87109C11.1645 5.86564 11.2019 5.8112 11.2019 5.77853C11.2082 5.57707 11.205 5.37289 11.205 5.17144C11.205 5.07343 11.205 4.97815 11.205 4.86653C10.9589 4.89648 10.7345 4.9237 10.5102 4.95365V5.9582ZM2.80147 7.10704C2.80147 7.43101 2.80147 7.73591 2.80147 8.04354C2.80147 8.06804 2.83886 8.1116 2.8669 8.11432C3.07255 8.14699 3.2782 8.17149 3.49008 8.20144V7.19416C3.26262 7.16694 3.04139 7.13971 2.79835 7.10977L2.80147 7.10704ZM3.03204 10.2704V9.27405C2.80147 9.22777 2.58024 9.18421 2.33408 9.13793C2.33408 9.45917 2.33408 9.76136 2.3372 10.0663C2.3372 10.088 2.38082 10.1234 2.40886 10.1316C2.60828 10.1806 2.81081 10.2214 3.02893 10.2704H3.03204ZM3.73 5.78397V4.79031C3.49943 4.74403 3.27508 4.70047 3.04451 4.65419V5.63424C3.26885 5.68325 3.49008 5.73225 3.73 5.78397ZM10.9651 6.8947C10.7252 6.9437 10.5008 6.98726 10.2827 7.03354V8.02721C10.5195 7.97548 10.7439 7.92648 10.9651 7.8802V6.89742V6.8947ZM11.6724 9.13521C11.4263 9.18421 11.2019 9.23049 10.9745 9.27405V10.2677C11.1926 10.2187 11.4045 10.1752 11.6132 10.1262C11.6382 10.1207 11.6693 10.0826 11.6693 10.0608C11.6724 9.75863 11.6693 9.45917 11.6693 9.13521H11.6724ZM10.2796 2.34562V3.33656C10.4853 3.29028 10.6753 3.244 10.8685 3.20861C10.9558 3.19228 10.9713 3.15416 10.9713 3.0861C10.9682 2.88465 10.9713 2.68047 10.9713 2.47901C10.9713 2.38918 10.9713 2.30206 10.9713 2.20678C10.7283 2.25578 10.5071 2.29934 10.2796 2.34834V2.34562ZM8.64689 10.5427C8.88058 10.5236 9.10181 10.5073 9.32616 10.491V9.48095C9.09558 9.49729 8.87435 9.51362 8.64689 9.52995V10.5454V10.5427ZM4.68347 10.491C4.91404 10.51 5.13527 10.5263 5.36273 10.5427V9.52723C5.13527 9.5109 4.91404 9.49729 4.68347 9.48095V10.491ZM9.11427 8.19872C9.24203 8.18238 9.3542 8.16877 9.46637 8.15244C9.69071 8.12158 9.80289 8.00633 9.80289 7.80669V7.10977C9.56296 7.13971 9.33862 7.16694 9.11427 7.19416V8.20144V8.19872ZM4.89847 4.9482C4.66477 4.92098 4.44354 4.89648 4.20674 4.86653C4.20674 5.1905 4.20674 5.4954 4.20674 5.80303C4.20674 5.82753 4.2379 5.86564 4.26282 5.86837C4.47159 5.90103 4.68035 5.92554 4.89535 5.95548V4.9482H4.89847ZM9.11427 3.51079C9.34797 3.47812 9.57543 3.44818 9.79354 3.41823V2.42184C9.55985 2.45179 9.33862 2.47901 9.11427 2.50624V3.51352V3.51079ZM11.6818 5.7867C11.8968 5.74041 12.0993 5.69686 12.2987 5.65058C12.3268 5.64513 12.3642 5.61246 12.3642 5.59341C12.3673 5.28578 12.3642 4.97543 12.3642 4.65419C12.1242 4.70319 11.8999 4.74947 11.6787 4.79303V5.7867H11.6818ZM1.17185 3.05888C1.17185 2.73492 1.17185 2.43546 1.17185 2.13327C1.17185 2.1115 1.15004 2.07883 1.12823 2.07066C0.913233 1.98627 0.698236 1.90732 0.473892 1.82292C0.473892 2.00532 0.498819 2.185 0.46766 2.35923C0.411574 2.69136 0.595412 2.86287 0.919465 2.96904C0.994247 2.99354 1.06903 3.02349 1.17497 3.0616L1.17185 3.05888ZM13.5357 4.26761C13.3114 4.35201 13.0995 4.43095 12.8907 4.51535C12.8596 4.52896 12.8347 4.58341 12.8347 4.6188C12.8284 4.81209 12.8347 5.0081 12.8347 5.20139C12.8347 5.29667 12.8347 5.39467 12.8347 5.53079C13.0559 5.4219 13.246 5.34023 13.4204 5.23678C13.4796 5.20411 13.5295 5.12244 13.5326 5.06254C13.5451 4.8012 13.5388 4.53985 13.5388 4.27033L13.5357 4.26761ZM1.63924 6.90014C1.63924 7.21866 1.63924 7.52357 1.63924 7.82847C1.63924 7.85297 1.67974 7.88836 1.70779 7.89653C1.9072 7.94553 2.10974 7.98637 2.32162 8.03265V7.03626C2.09416 6.98998 1.87293 6.94642 1.63612 6.90014H1.63924ZM0.470776 6.51085C0.470776 6.77764 0.46766 7.04171 0.470776 7.30306C0.470776 7.34934 0.498819 7.40651 0.53621 7.43917C0.707584 7.5889 0.922581 7.66513 1.17185 7.73591C1.17185 7.41739 1.17185 7.11521 1.17185 6.81575C1.17185 6.79397 1.13758 6.7613 1.11265 6.75041C0.907001 6.66874 0.698236 6.59252 0.473892 6.50812L0.470776 6.51085ZM1.63924 2.21222C1.63924 2.52802 1.63924 2.8302 1.63924 3.12966C1.63924 3.15416 1.66416 3.19772 1.68598 3.20317C1.89474 3.25217 2.10351 3.29573 2.32473 3.34473V2.35106C2.10039 2.30478 1.87916 2.26123 1.63612 2.21495L1.63924 2.21222ZM11.4387 7.73863C11.6818 7.65969 11.8968 7.56985 12.0775 7.42556C12.1055 7.40378 12.1336 7.36567 12.1336 7.33572C12.1367 7.06349 12.1336 6.79125 12.1336 6.50812C11.8937 6.60341 11.6662 6.69052 11.4356 6.78308V7.73863H11.4387ZM2.57089 5.52262C2.57089 5.17961 2.57089 4.88287 2.57089 4.58613C2.57089 4.56435 2.5522 4.52896 2.53038 4.52079C2.31227 4.4364 2.09416 4.35473 1.8667 4.26761C1.8667 4.51807 1.87293 4.76036 1.8667 4.99993C1.8667 5.09794 1.89786 5.17688 1.98822 5.22589C2.16894 5.32389 2.35278 5.41101 2.57401 5.52262H2.57089ZM12.1367 1.82292C11.9092 1.90732 11.7005 1.98354 11.4948 2.06521C11.4699 2.0761 11.4356 2.10877 11.4356 2.13055C11.4325 2.43001 11.4356 2.7322 11.4356 3.04527C11.6849 2.96904 11.8999 2.87376 12.0868 2.7322C12.118 2.71042 12.1367 2.66141 12.1367 2.62602C12.1398 2.36195 12.1367 2.09516 12.1367 1.8202V1.82292ZM1.83242 9.99548C1.83242 9.99548 1.85423 9.9737 1.8667 9.96281C1.8667 9.66607 1.8667 9.36661 1.8667 9.06987C1.8667 9.04537 1.84177 9.00726 1.81684 8.99637C1.60808 8.9147 1.3962 8.83575 1.17497 8.75408C1.17497 9.03176 1.17185 9.304 1.17808 9.57896C1.17808 9.62524 1.22794 9.68785 1.27468 9.71507C1.4554 9.8158 1.64858 9.90292 1.83554 9.99548H1.83242ZM12.1367 9.98459C12.3704 9.90836 12.5823 9.83486 12.7568 9.6933C12.7879 9.66879 12.8253 9.62796 12.8253 9.59529C12.8315 9.31489 12.8253 9.0372 12.8253 8.75408C12.6041 8.83575 12.3984 8.9147 12.1928 8.99365C12.1679 9.00454 12.1367 9.03993 12.1367 9.06171C12.1336 9.36389 12.1367 9.66335 12.1367 9.98187V9.98459Z" fill="black"/>
</svg>
