<svg width="22" height="26" viewBox="0 0 22 26" fill="none" xmlns="http://www.w3.org/2000/svg">
<g clip-path="url(#clip0_2028_187)">
<path d="M9.56274 25.9999C9.49149 25.9178 9.39715 25.9538 9.31371 25.9517C8.31245 25.9273 7.32083 25.8126 6.33112 25.6544C4.59497 25.3774 2.89605 24.945 1.23692 24.3381C0.874929 24.2057 0.520639 24.0496 0.159288 23.9158C0.0277133 23.8669 -0.00437816 23.7855 0.000756475 23.6497C0.0495355 22.3205 0.463516 21.6559 1.70738 21.1277C2.43458 20.8188 3.21953 20.7238 3.97561 20.5188C4.99419 20.2425 6.02048 19.9987 7.04099 19.7306C7.19182 19.6912 7.29259 19.7123 7.40362 19.8283C8.34198 20.8032 9.49663 21.3592 10.7476 21.7115C11.0107 21.7855 11.2867 21.7475 11.5524 21.664C12.6127 21.332 13.6037 20.8609 14.4381 20.0714C14.4496 20.0605 14.4708 20.0564 14.4772 20.0435C14.6877 19.6206 15.0067 19.7102 15.3591 19.7985C15.947 19.9451 16.5465 20.066 17.1248 20.2343C18.1145 20.5222 19.1254 20.7143 20.108 21.0225C20.7287 21.2173 21.2947 21.5255 21.694 22.0951C22.0611 22.6178 21.9943 23.2295 21.9943 23.8248C21.9943 23.945 21.8679 23.9409 21.7934 23.9722C20.9565 24.3299 20.099 24.6225 19.2306 24.8825C18.0413 25.2389 16.8302 25.4867 15.6107 25.6809C14.9451 25.7868 14.2731 25.8601 13.5992 25.9137C13.2468 25.9416 12.8848 25.8798 12.5389 25.9999H9.56145H9.56274Z" fill="white"/>
<path d="M14.3097 17.7694C14.4432 18.432 13.9978 18.7728 13.6127 19.1299C13.0228 19.6757 12.3194 20.0056 11.5858 20.2799C11.3156 20.381 11.0537 20.5155 10.7719 20.4041C9.93628 20.0735 9.11089 19.7164 8.42734 19.081C8.32657 18.9873 8.21875 18.9045 8.12119 18.8033C7.77075 18.4395 7.70079 18.0002 7.73481 17.5081C7.75984 17.1462 7.71684 16.779 7.74508 16.4178C7.78359 15.9351 7.60773 15.5597 7.3189 15.2121C7.07693 14.9209 6.85743 14.6093 6.63664 14.299C6.38889 13.9508 6.3292 13.5503 6.3016 13.1416C6.2817 12.8442 6.20148 12.629 5.96336 12.4254C5.46722 11.9997 5.13668 11.441 5.09753 10.7431C5.06993 10.2476 5.3196 9.90066 5.77338 9.73637C5.8029 9.72551 5.82921 9.70514 5.85746 9.68885C5.88184 9.72687 5.9165 9.74112 5.95886 9.7452C6.23164 9.77032 6.36578 9.938 6.39595 10.217C6.40686 10.3168 6.43189 10.4146 6.44088 10.5144C6.45307 10.6562 6.48645 10.8205 6.62252 10.8334C6.78618 10.8497 6.77656 10.6542 6.81956 10.5347C6.8279 10.5123 6.82469 10.4845 6.82469 10.4594C6.82533 10.1729 6.89337 9.89319 6.90941 9.61078C6.92289 9.37521 7.09105 9.1892 7.07372 8.96382C7.04548 8.58976 6.97296 8.2191 6.94086 7.84504C6.903 7.40174 6.87604 6.95505 7.03008 6.52396C7.08335 6.37529 7.18925 6.25038 7.20851 6.08609L7.20722 6.08745L7.25729 6.044C8.12953 5.67809 9.02617 5.48394 9.97351 5.51788C10.442 5.53485 10.9042 5.7324 11.3798 5.58169C11.4837 5.54911 11.5954 5.54028 11.7045 5.52467C12.1949 5.45339 12.6807 5.47851 13.1673 5.57694C13.7276 5.69031 14.2828 5.8159 14.7943 6.0956C14.8411 6.24902 14.9856 6.359 15.0132 6.5036C15.1056 6.99035 15.1197 7.48524 15.0555 7.98014C15.0157 8.28699 14.9804 8.59451 14.94 8.90136C14.9105 9.12471 15.0857 9.29511 15.0818 9.50623C15.0748 9.89998 15.2526 10.2645 15.2339 10.659C15.2301 10.7452 15.2814 10.7981 15.3655 10.8103C15.4592 10.8239 15.5228 10.7832 15.5484 10.6888C15.5703 10.6087 15.5831 10.5252 15.5947 10.4424C15.646 10.067 15.7089 9.70311 16.1787 9.69225C16.4836 9.8063 16.7474 9.95225 16.8841 10.3053C16.9688 10.5245 16.9894 10.7363 16.9374 10.9448C16.7641 11.6358 16.4566 12.2333 15.8386 12.6053C15.7102 12.6827 15.7275 12.868 15.7102 13.0146C15.6871 13.2129 15.6742 13.4138 15.6344 13.6086C15.5208 14.1599 15.1993 14.591 14.8777 15.018C14.7141 15.2352 14.5305 15.4355 14.3559 15.6432C13.8136 16.2012 13.2687 16.7498 12.5954 17.1435C11.6493 17.6975 10.6981 17.7749 9.71229 17.2895C9.03836 16.9575 8.49602 16.4327 7.93121 15.9399C7.92351 15.9331 7.91645 15.9263 7.90874 15.9195C7.91516 15.927 7.92222 15.9351 7.92864 15.9426C7.92094 16.0512 7.97549 16.1347 8.0262 16.2216C8.376 16.8197 8.7919 17.3587 9.29702 17.8176C9.91254 18.377 10.6224 18.7287 11.435 18.7789C12.5126 18.8454 13.476 18.5012 14.3104 17.7687L14.3097 17.7694Z" fill="#DCB089"/>
<path d="M14.7948 6.09552C14.2827 5.81582 13.7281 5.69023 13.1678 5.57686C12.6813 5.47842 12.1954 5.45331 11.7051 5.52459C11.5966 5.5402 11.4849 5.54835 11.3803 5.58161C10.9047 5.73164 10.4426 5.53409 9.97406 5.5178C9.02608 5.48386 8.13008 5.67801 7.25784 6.04392C7.22574 6.03917 7.21227 6.0575 7.20777 6.08737L7.20906 6.08601C7.1468 6.09348 7.08454 6.10027 7.02293 6.10977C6.69174 6.15933 6.36313 6.18784 6.06275 5.98079C5.95364 5.26594 5.87983 4.55245 6.11024 3.84642C6.16929 3.66449 6.25979 3.50359 6.39201 3.36986C6.50882 3.25173 6.63334 3.20014 6.79572 3.28432C6.93756 3.35764 7.00431 3.28432 7.02036 3.12614C7.0486 2.84916 7.0839 2.57287 7.16285 2.30539C7.27902 1.91368 7.52291 1.72699 7.90608 1.71613C8.07039 1.71138 8.23534 1.69034 8.39773 1.66318C8.53379 1.6401 8.60632 1.53827 8.65253 1.4025C8.84572 0.828851 9.06395 0.711407 9.64031 0.850575C9.8136 0.892665 9.92913 0.804412 9.99396 0.636052C10.0459 0.500278 10.0979 0.364505 10.1467 0.227373C10.2269 0.0019887 10.3791 -0.0455321 10.5735 0.0461152C10.6711 0.0922783 10.7757 0.128937 10.8547 0.214475C10.9811 0.351606 11.0921 0.314947 11.2231 0.197503C11.6248 -0.162976 11.8264 0.00809855 11.958 0.390981C11.9785 0.450721 12.0035 0.511819 12.0241 0.572239C12.0972 0.785403 12.1832 0.900132 12.456 0.818668C12.9162 0.681536 13.2435 0.896738 13.3854 1.3767C13.4573 1.61973 13.6132 1.69101 13.8161 1.71613C13.911 1.72767 14.008 1.71749 14.1042 1.71817C14.5349 1.72021 14.8115 1.95374 14.9001 2.39975C14.9521 2.66315 15.0009 2.92723 15.0362 3.19335C15.0535 3.32098 15.0927 3.35017 15.1973 3.28975C15.4136 3.16552 15.5933 3.285 15.7165 3.43842C15.8654 3.62375 15.9431 3.86747 15.9963 4.10643C16.0618 4.40106 16.0496 4.70519 16.049 5.00661C16.049 5.31482 16.0945 5.62642 15.9925 5.92716C15.8243 6.05546 15.6376 6.12131 15.4303 6.13828C15.2159 6.15594 15.0079 6.10298 14.7968 6.09416L14.7948 6.09552Z" fill="#240703"/>
<path d="M7.93039 15.9405C8.49456 16.4334 9.03691 16.9588 9.71147 17.2908C10.6973 17.7762 11.6479 17.6988 12.5946 17.1448C13.2678 16.7511 13.8128 16.2026 14.3551 15.6445C14.3577 16.2908 14.3596 16.9371 14.3647 17.5827C14.3647 17.6533 14.3474 17.7137 14.3102 17.7694C13.4758 18.5019 12.5131 18.8461 11.4348 18.7795C10.6222 18.7293 9.91236 18.3777 9.29685 17.8183C8.79173 17.3594 8.37582 16.8203 8.02602 16.2222C7.97532 16.1354 7.92076 16.0519 7.92847 15.9432L7.93103 15.9405H7.93039Z" fill="#BC8866"/>
<path d="M14.7947 6.09547C15.0065 6.10429 15.2145 6.15725 15.4282 6.1396C15.6355 6.12262 15.8223 6.05677 15.9905 5.92847C16.0431 6.28895 16.2235 6.61209 16.2543 6.98139C16.2947 7.47018 16.3525 7.95082 16.3037 8.45046C16.2632 8.8639 16.1984 9.27665 16.1779 9.69347C15.7087 9.70433 15.6452 10.0682 15.5938 10.4436C15.5823 10.5264 15.5694 10.6099 15.5476 10.6901C15.5226 10.7837 15.4584 10.8251 15.3647 10.8116C15.2806 10.7994 15.2293 10.7471 15.2331 10.6602C15.2517 10.2658 15.0746 9.90121 15.081 9.50746C15.0848 9.29634 14.9096 9.12594 14.9392 8.90259C14.9796 8.59574 15.0149 8.28821 15.0547 7.98137C15.1189 7.48647 15.1047 6.99158 15.0123 6.50483C14.9847 6.36023 14.8403 6.25025 14.7935 6.09683L14.7947 6.09547Z" fill="#A3928B"/>
<path d="M6.06198 5.98096C6.36235 6.18801 6.69097 6.1595 7.02216 6.10994C7.08441 6.10044 7.14667 6.09433 7.20829 6.08618C7.18839 6.25047 7.08249 6.3747 7.02986 6.52405C6.87646 6.95513 6.90342 7.40183 6.94064 7.84513C6.97273 8.21919 7.04526 8.58985 7.0735 8.96391C7.09019 9.18929 6.92267 9.3753 6.90919 9.61087C6.89315 9.89328 6.82511 10.173 6.82447 10.4595C6.82447 10.4846 6.82768 10.5124 6.81934 10.5348C6.77633 10.6536 6.78532 10.8491 6.6223 10.8335C6.48559 10.8199 6.45285 10.6556 6.44066 10.5144C6.43167 10.4147 6.40664 10.3169 6.39573 10.2171C6.36556 9.93876 6.23142 9.77108 5.95864 9.74529C5.91692 9.74121 5.88162 9.72696 5.85723 9.68894C5.71796 9.13227 5.71732 8.56202 5.70705 7.99245C5.69421 7.29525 5.76096 6.6157 6.06198 5.98096Z" fill="#A3928B"/>
<path d="M7.20776 6.08741C7.21226 6.05754 7.22573 6.03921 7.25783 6.04396C7.24114 6.05822 7.22445 6.07315 7.20776 6.08741Z" fill="#A3928B"/>
<path d="M7.92786 15.9424C7.92144 15.9352 7.91438 15.9273 7.90796 15.9202C7.91566 15.9267 7.92272 15.9332 7.93042 15.9397L7.92786 15.9424Z" fill="#BC8866"/>
</g>
<defs>
<clipPath id="clip0_2028_187">
<rect width="22" height="26" fill="white"/>
</clipPath>
</defs>
</svg>
