<svg width="17" height="20" viewBox="0 0 17 20" fill="none" xmlns="http://www.w3.org/2000/svg">
<g clip-path="url(#clip0_1_5654)">
<path d="M7.3892 20C7.33415 19.9368 7.26124 19.9645 7.19677 19.9629C6.42307 19.9441 5.65681 19.8559 4.89204 19.7342C3.55047 19.5211 2.23767 19.1885 0.955614 18.7216C0.675893 18.6198 0.402123 18.4997 0.122898 18.3968C0.0212262 18.3592 -0.00357178 18.2966 0.000395895 18.1921C0.0380888 17.1696 0.357983 16.6584 1.31915 16.2521C1.88107 16.0145 2.48763 15.9414 3.07187 15.7837C3.85896 15.5712 4.652 15.3837 5.44057 15.1774C5.55713 15.1471 5.63499 15.1633 5.72079 15.2526C6.44588 16.0025 7.33812 16.4302 8.30474 16.7012C8.50808 16.7581 8.72135 16.7289 8.92667 16.6647C9.746 16.4093 10.5118 16.0469 11.1565 15.4396C11.1654 15.4312 11.1818 15.4281 11.1868 15.4182C11.3494 15.0928 11.5959 15.1617 11.8682 15.2296C12.3225 15.3424 12.7857 15.4354 13.2326 15.5649C13.9974 15.7863 14.7785 15.9341 15.5378 16.1712C16.0174 16.321 16.4548 16.5581 16.7633 16.9963C17.047 17.3984 16.9954 17.8689 16.9954 18.3268C16.9954 18.4193 16.8977 18.4161 16.8402 18.4402C16.1935 18.7154 15.5309 18.9404 14.8598 19.1404C13.9408 19.4146 13.0049 19.6052 12.0626 19.7546C11.5483 19.836 11.029 19.8924 10.5083 19.9337C10.236 19.9551 9.95629 19.9076 9.68896 20H7.38821H7.3892Z" fill="#062240"/>
<path d="M11.0576 13.6688C11.1608 14.1784 10.8166 14.4406 10.519 14.7153C10.0632 15.1351 9.51963 15.3889 8.95275 15.5999C8.74395 15.6777 8.5416 15.7811 8.32388 15.6955C7.67814 15.4411 7.04033 15.1665 6.51214 14.6777C6.43427 14.6056 6.35095 14.5419 6.27556 14.4641C6.00477 14.1842 5.95071 13.8463 5.977 13.4677C5.99634 13.1894 5.96311 12.9069 5.98493 12.6291C6.01469 12.2578 5.8788 11.969 5.65561 11.7016C5.46864 11.4776 5.29902 11.2379 5.12841 10.9992C4.93697 10.7314 4.89085 10.4233 4.86952 10.1089C4.85414 9.88016 4.79215 9.71462 4.60815 9.55796C4.22477 9.23053 3.96935 8.80076 3.9391 8.26393C3.91777 7.88272 4.1107 7.61587 4.46134 7.4895C4.48416 7.48114 4.50449 7.46547 4.52632 7.45294C4.54516 7.48218 4.57194 7.49315 4.60468 7.49628C4.81546 7.51561 4.91912 7.64459 4.94243 7.85922C4.95086 7.93598 4.9702 8.01118 4.97714 8.08794C4.98657 8.19709 5.01236 8.32346 5.1175 8.33338C5.24397 8.34591 5.23653 8.19552 5.26976 8.10361C5.27621 8.08638 5.27373 8.06497 5.27373 8.04565C5.27422 7.82527 5.32679 7.61013 5.33919 7.39289C5.34961 7.21168 5.47955 7.0686 5.46616 6.89522C5.44434 6.60749 5.38829 6.32236 5.36349 6.03463C5.33423 5.69363 5.3134 5.35001 5.43243 5.01841C5.4736 4.90405 5.55543 4.80796 5.57031 4.68159L5.56932 4.68263L5.608 4.64921C6.28201 4.36774 6.97487 4.21839 7.7069 4.2445C8.06895 4.25756 8.42604 4.40952 8.79355 4.29359C8.8739 4.26852 8.96019 4.26174 9.04451 4.24972C9.42342 4.19489 9.79886 4.21421 10.1748 4.28993C10.6078 4.37714 11.0368 4.47375 11.4321 4.6889C11.4683 4.80692 11.5799 4.89152 11.6012 5.00275C11.6726 5.37717 11.6835 5.75786 11.6339 6.13855C11.6032 6.37458 11.5759 6.61114 11.5446 6.84718C11.5218 7.01899 11.6572 7.15006 11.6542 7.31247C11.6488 7.61535 11.7862 7.89577 11.7718 8.19917C11.7688 8.26549 11.8085 8.30623 11.8735 8.31563C11.9459 8.32607 11.995 8.29474 12.0148 8.22215C12.0317 8.16053 12.0416 8.0963 12.0505 8.03259C12.0902 7.74381 12.1388 7.46391 12.5018 7.45555C12.7374 7.54328 12.9413 7.65556 13.0469 7.9271C13.1124 8.09578 13.1282 8.25871 13.0881 8.41902C12.9542 8.95063 12.7166 9.41017 12.239 9.69634C12.1398 9.75587 12.1532 9.89844 12.1398 10.0112C12.1219 10.1637 12.112 10.3183 12.0813 10.4682C11.9935 10.8922 11.745 11.2238 11.4965 11.5523C11.3701 11.7194 11.2282 11.8734 11.0933 12.0332C10.6742 12.4625 10.2532 12.8844 9.7329 13.1873C9.00185 13.6134 8.26684 13.6729 7.50505 13.2996C6.98429 13.0442 6.5652 12.6405 6.12876 12.2614C6.12281 12.2562 6.11735 12.251 6.1114 12.2458C6.11636 12.2515 6.12182 12.2578 6.12678 12.2635C6.12082 12.3471 6.16298 12.4113 6.20216 12.4781C6.47246 12.9382 6.79384 13.3528 7.18416 13.7058C7.65979 14.1361 8.20832 14.4066 8.8362 14.4453C9.66892 14.4965 10.4134 14.2317 11.0581 13.6682L11.0576 13.6688Z" fill="#DCB089"/>
<path d="M11.4322 4.6889C11.0364 4.47375 10.6079 4.37715 10.1749 4.28994C9.79901 4.21422 9.42357 4.1949 9.04465 4.24973C8.96084 4.26174 8.87454 4.268 8.7937 4.29359C8.42619 4.409 8.0691 4.25704 7.70705 4.2445C6.97452 4.21839 6.28216 4.36775 5.60815 4.64922C5.58335 4.64556 5.57294 4.65966 5.56947 4.68264L5.57046 4.68159C5.52235 4.68734 5.47424 4.69256 5.42663 4.69987C5.17071 4.73799 4.91678 4.75992 4.68467 4.60065C4.60036 4.05077 4.54333 3.50193 4.72137 2.95883C4.767 2.81888 4.83693 2.69512 4.9391 2.59224C5.02937 2.50138 5.12558 2.46169 5.25106 2.52644C5.36067 2.58284 5.41225 2.52644 5.42465 2.40477C5.44647 2.19171 5.47375 1.97917 5.53475 1.77342C5.62452 1.47211 5.81298 1.3285 6.10907 1.32015C6.23604 1.31649 6.3635 1.3003 6.48897 1.27941C6.59412 1.26166 6.65016 1.18333 6.68587 1.07889C6.83515 0.637622 7.00378 0.54728 7.44915 0.654333C7.58306 0.68671 7.67233 0.618823 7.72243 0.489316C7.7626 0.384874 7.80277 0.280433 7.84046 0.174947C7.90246 0.00157437 8.02 -0.0349801 8.17028 0.0355178C8.24566 0.0710279 8.3265 0.0992271 8.38751 0.165025C8.48521 0.270511 8.57101 0.242312 8.67219 0.15197C8.98266 -0.125322 9.13839 0.00627425 9.24006 0.300799C9.25593 0.346753 9.27527 0.393752 9.29114 0.440228C9.34768 0.604201 9.41414 0.692454 9.62493 0.629789C9.98053 0.524303 10.2335 0.689843 10.3431 1.05904C10.3986 1.24599 10.5191 1.30082 10.6759 1.32015C10.7493 1.32902 10.8242 1.32119 10.8985 1.32171C11.2313 1.32328 11.4451 1.50292 11.5135 1.84601C11.5537 2.04862 11.5914 2.25176 11.6187 2.45647C11.6321 2.55464 11.6623 2.5771 11.7432 2.53062C11.9103 2.43506 12.0492 2.52697 12.1444 2.64499C12.2595 2.78755 12.3195 2.97502 12.3606 3.15884C12.4112 3.38547 12.4018 3.61942 12.4013 3.85128C12.4013 4.08837 12.4365 4.32806 12.3577 4.5594C12.2277 4.65809 12.0834 4.70875 11.9232 4.7218C11.7576 4.73538 11.5969 4.69465 11.4337 4.68786L11.4322 4.6889Z" fill="#240703"/>
<path d="M6.12803 12.262C6.56398 12.6411 6.98306 13.0453 7.50432 13.3006C8.26611 13.674 9.00063 13.6145 9.73217 13.1883C10.2524 12.8855 10.6735 12.4635 11.0926 12.0343C11.0946 12.5314 11.0961 13.0286 11.1 13.5252C11.1 13.5795 11.0866 13.626 11.0579 13.6688C10.4131 14.2322 9.66918 14.497 8.83597 14.4458C8.20808 14.4072 7.65955 14.1367 7.18393 13.7064C6.79361 13.3534 6.47223 12.9387 6.20193 12.4787C6.16275 12.4118 6.12059 12.3476 6.12654 12.264L6.12853 12.262H6.12803Z" fill="#BC8866"/>
<path d="M11.4321 4.68889C11.5958 4.69568 11.7565 4.73641 11.9217 4.72283C12.0819 4.70978 12.2262 4.65912 12.3561 4.56042C12.3968 4.83772 12.5361 5.08629 12.56 5.37037C12.5912 5.74636 12.6358 6.11608 12.5981 6.50042C12.5669 6.81845 12.5168 7.13595 12.5009 7.45658C12.1384 7.46494 12.0893 7.74484 12.0496 8.03362C12.0407 8.09733 12.0308 8.16156 12.0139 8.22318C11.9946 8.29525 11.945 8.3271 11.8726 8.31666C11.8076 8.30726 11.7679 8.26705 11.7709 8.20021C11.7853 7.8968 11.6484 7.61638 11.6533 7.3135C11.6563 7.15109 11.5209 7.02002 11.5437 6.84821C11.575 6.61218 11.6023 6.37562 11.633 6.13958C11.6826 5.75889 11.6717 5.3782 11.6003 5.00378C11.5789 4.89255 11.4674 4.80795 11.4312 4.68993L11.4321 4.68889Z" fill="#A3928B"/>
<path d="M4.6841 4.60065C4.91621 4.75992 5.17014 4.73799 5.42606 4.69987C5.47416 4.69256 5.52227 4.68786 5.56988 4.68159C5.55451 4.80796 5.47268 4.90353 5.43201 5.01841C5.31347 5.35001 5.3343 5.69363 5.36307 6.03463C5.38787 6.32236 5.44391 6.60749 5.46573 6.89522C5.47863 7.0686 5.34918 7.21168 5.33877 7.39289C5.32637 7.61013 5.2738 7.82528 5.2733 8.04565C5.2733 8.06497 5.27578 8.08638 5.26933 8.10361C5.2361 8.195 5.24305 8.34539 5.11707 8.33338C5.01143 8.32294 4.98614 8.19656 4.97672 8.08794C4.96977 8.01118 4.95043 7.93598 4.942 7.85922C4.91869 7.64511 4.81503 7.51613 4.60425 7.49628C4.57201 7.49315 4.54474 7.48218 4.52589 7.45294C4.41827 7.02473 4.41777 6.58608 4.40984 6.14795C4.39992 5.61164 4.4515 5.08891 4.6841 4.60065Z" fill="#A3928B"/>
<path d="M5.56982 4.68262C5.5733 4.65964 5.58371 4.64554 5.60851 4.6492C5.59561 4.66016 5.58272 4.67165 5.56982 4.68262Z" fill="#A3928B"/>
<path d="M6.12621 12.2633C6.12125 12.2578 6.1158 12.2518 6.11084 12.2463C6.11679 12.2513 6.12225 12.2563 6.1282 12.2613L6.12621 12.2633Z" fill="#BC8866"/>
</g>
<defs>
<clipPath id="clip0_1_5654">
<rect width="17" height="20" fill="white"/>
</clipPath>
</defs>
</svg>
