<svg width="17" height="20" viewBox="0 0 17 20" fill="none" xmlns="http://www.w3.org/2000/svg">
<path fill-rule="evenodd" clip-rule="evenodd" d="M8.55372 0C7.39307 0 6.27996 0.46553 5.45926 1.29418C4.63856 2.12283 4.17749 3.24672 4.17749 4.4186C4.17749 5.59049 4.63856 6.71438 5.45926 7.54303C6.27996 8.37168 7.39307 8.83721 8.55372 8.83721C9.71437 8.83721 10.8275 8.37168 11.6482 7.54303C12.4689 6.71438 12.93 5.59049 12.93 4.4186C12.93 3.24672 12.4689 2.12283 11.6482 1.29418C10.8275 0.46553 9.71437 0 8.55372 0ZM5.55946 4.4186C5.55946 3.61679 5.87492 2.84781 6.43646 2.28084C6.99799 1.71387 7.7596 1.39535 8.55372 1.39535C9.34785 1.39535 10.1095 1.71387 10.671 2.28084C11.2325 2.84781 11.548 3.61679 11.548 4.4186C11.548 5.22042 11.2325 5.9894 10.671 6.55637C10.1095 7.12334 9.34785 7.44186 8.55372 7.44186C7.7596 7.44186 6.99799 7.12334 6.43646 6.55637C5.87492 5.9894 5.55946 5.22042 5.55946 4.4186ZM8.55372 10.2326C6.42273 10.2326 4.45849 10.7219 3.00374 11.5479C1.57017 12.3628 0.492239 13.5963 0.492239 15.1163V15.2112C0.491318 16.2921 0.490396 17.6484 1.66876 18.6177C2.24826 19.094 3.05994 19.4335 4.1563 19.6567C5.2545 19.8819 6.68715 20 8.55372 20C10.4203 20 11.852 19.8819 12.9521 19.6567C14.0484 19.4335 14.8592 19.094 15.4396 18.6177C16.618 17.6484 16.6161 16.2921 16.6152 15.2112V15.1163C16.6152 13.5963 15.5373 12.3628 14.1046 11.5479C12.649 10.7219 10.6856 10.2326 8.55372 10.2326ZM1.87421 15.1163C1.87421 14.3247 2.44726 13.4651 3.6809 12.7647C4.89335 12.0763 6.61436 11.6279 8.55465 11.6279C10.4931 11.6279 12.2141 12.0763 13.4265 12.7647C14.6611 13.4651 15.2332 14.3247 15.2332 15.1163C15.2332 16.333 15.1964 17.0177 14.5662 17.5349C14.2253 17.8158 13.6541 18.0902 12.6775 18.2893C11.7037 18.4884 10.3724 18.6047 8.55372 18.6047C6.73505 18.6047 5.40284 18.4884 4.42993 18.2893C3.45334 18.0902 2.88212 17.8158 2.54124 17.5358C1.91106 17.0177 1.87421 16.333 1.87421 15.1163Z" fill="white"/>
</svg>
