<svg width="20" height="20" viewBox="0 0 20 20" fill="none" xmlns="http://www.w3.org/2000/svg">
<path d="M9.89828 19.569C15.3649 19.569 19.7966 15.1883 19.7966 9.7845C19.7966 4.38067 15.3649 0 9.89828 0C4.43161 0 0 4.38067 0 9.7845C0 15.1883 4.43161 19.569 9.89828 19.569Z" fill="#F59500"/>
<path d="M8.65509 11.7142C7.96306 11.3245 7.20288 11.0327 6.99929 10.1091C6.96172 10.1773 6.92939 10.2489 6.8857 10.3127C6.25221 11.2389 5.61786 12.1651 4.9835 13.0904C4.21283 14.2141 3.43867 15.336 2.67237 16.4623C2.40412 16.8573 2.46005 17.2417 2.79994 17.5039C3.14858 17.773 3.58983 17.7328 3.9009 17.4025C3.99439 17.3029 4.08089 17.198 4.16827 17.0932C5.51562 15.482 6.86298 13.8707 8.20946 12.2586C8.35626 12.083 8.49955 11.9039 8.65509 11.7134V11.7142Z" fill="#062240"/>
<path d="M5.99425 7.58219C6.31405 7.74996 6.60502 7.65908 6.80773 7.32793C6.88287 7.20472 6.95452 7.07977 7.02705 6.95483C7.38704 6.33095 7.74616 5.70795 8.11664 5.06486C8.86371 5.46592 9.58195 5.85562 10.3037 6.23658C10.5291 6.35542 10.7572 6.49085 11.001 6.54939C11.3977 6.64464 11.7708 6.55202 12.0373 6.21561C12.2775 5.91242 12.2863 5.55941 12.0818 5.25272C11.9534 5.05874 11.741 4.88661 11.5278 4.78875C10.4217 4.28196 9.30235 3.80226 8.18916 3.31207C7.65791 3.0779 7.25423 3.23343 7.02093 3.76993C6.97287 3.88002 6.92656 3.99012 6.87851 4.10021C6.49492 4.98971 6.11046 5.87746 5.7295 6.76784C5.57484 7.12958 5.67095 7.41268 5.99338 7.58219H5.99425Z" fill="#062240"/>
<path d="M14.2015 5.17755C15.1059 4.98707 15.6913 4.08359 15.4939 3.18448C15.2973 2.28886 14.4104 1.72353 13.5095 1.91751C12.6043 2.11323 12.0433 2.97652 12.2294 3.88874C12.4112 4.77823 13.3094 5.36541 14.2015 5.17667V5.17755Z" fill="#062240"/>
<path d="M16.9199 7.8583C16.7591 7.60316 16.5197 7.56471 16.2471 7.61015C15.4642 7.73947 14.6786 7.85742 13.8975 7.99985C13.6327 8.04791 13.4353 8.00946 13.2797 7.77879C13.2142 7.68092 12.8192 7.36462 12.5973 7.17064C12.6087 7.15753 12.6209 7.14355 12.6323 7.13045C12.8446 6.88404 13.0158 6.57298 13.1102 6.26192C13.2526 5.79183 12.9748 5.38465 12.4907 5.24048C12.4994 5.28242 12.5064 5.32174 12.516 5.35931C12.6515 5.92377 12.496 6.3956 12.0311 6.73987C11.5732 7.07802 11.0822 7.08239 10.5885 6.80366C10.2276 6.60007 9.86677 6.3956 9.50591 6.19202C9.47707 6.21998 9.45698 6.23396 9.44474 6.25318C8.82699 7.20996 8.20224 8.1615 7.59671 9.12527C7.19915 9.75788 7.45516 10.546 8.13234 10.8658C8.92834 11.2407 9.72173 11.6216 10.5623 12.0218C9.70076 12.5924 8.87592 13.1385 8.05108 13.6855C7.65089 13.9502 7.54953 14.3286 7.77409 14.7183C8.01263 15.1316 8.41631 15.2556 8.83747 15.0258C10.1001 14.3391 11.3618 13.6488 12.62 12.9533C13.264 12.5976 13.3033 11.7352 12.7074 11.2992C11.9394 10.7365 11.1748 10.1685 10.4015 9.59798C10.4688 9.52109 10.5256 9.4538 10.585 9.38915C10.8725 9.07371 11.1626 8.7609 11.4509 8.44722C11.8118 8.76353 12.4025 9.25109 12.6462 9.46953C12.842 9.64516 13.0753 9.71157 13.3374 9.64254C14.1439 9.43021 14.9504 9.21789 15.7569 9.00556C16.0365 8.93216 16.3196 8.87362 16.5939 8.78537C17.0151 8.64906 17.1549 8.23315 16.919 7.85917L16.9199 7.8583Z" fill="#062240"/>
</svg>
