<svg width="14" height="15" viewBox="0 0 14 15" fill="none" xmlns="http://www.w3.org/2000/svg">
<path d="M6.08523 9.26309C5.45436 8.90783 4.76137 8.64178 4.57577 7.79984C4.54152 7.86197 4.51205 7.92728 4.47222 7.98543C3.89472 8.82977 3.31643 9.67411 2.73814 10.5177C2.03558 11.542 1.32984 12.5648 0.631273 13.5915C0.386733 13.9516 0.437713 14.302 0.747569 14.541C1.06539 14.7863 1.46765 14.7497 1.75122 14.4486C1.83645 14.3578 1.91531 14.2622 1.99496 14.1666C3.22324 12.6978 4.45151 11.229 5.67899 9.75934C5.81281 9.59923 5.94344 9.43594 6.08523 9.26229V9.26309Z" fill="#062240"/>
<path d="M3.65978 5.4962C3.95131 5.64913 4.21656 5.56629 4.40136 5.2644C4.46986 5.15209 4.53518 5.03818 4.60129 4.92428C4.92947 4.35554 5.25685 3.7876 5.59459 3.20135C6.27563 3.56696 6.93039 3.92222 7.58834 4.26951C7.79385 4.37784 8.00175 4.50131 8.22399 4.55468C8.58562 4.6415 8.92574 4.55707 9.16869 4.2504C9.38774 3.974 9.39571 3.65219 9.20931 3.3726C9.09222 3.19577 8.89866 3.03885 8.7043 2.94964C7.69588 2.48764 6.6755 2.05034 5.6607 1.60347C5.1764 1.39 4.8084 1.53178 4.59572 2.02086C4.55191 2.12123 4.50969 2.22159 4.46588 2.32196C4.1162 3.13284 3.76572 3.94213 3.41842 4.75381C3.27743 5.08358 3.36505 5.34167 3.65898 5.4962H3.65978Z" fill="#062240"/>
<path d="M11.1418 3.30411C11.9662 3.13047 12.4999 2.30684 12.3199 1.48719C12.1406 0.670731 11.3322 0.155365 10.5109 0.332199C9.68569 0.510625 9.17431 1.29761 9.34397 2.12921C9.50965 2.94009 10.3285 3.47537 11.1418 3.30332V3.30411Z" fill="#062240"/>
<path d="M13.6197 5.7479C13.4732 5.51531 13.2549 5.48026 13.0064 5.52168C12.2927 5.63957 11.5766 5.74711 10.8645 5.87694C10.6231 5.92075 10.4431 5.88571 10.3013 5.67542C10.2416 5.5862 9.88154 5.29785 9.67922 5.12102C9.68957 5.10907 9.70072 5.09633 9.71108 5.08438C9.90464 4.85975 10.0608 4.57618 10.1468 4.29261C10.2766 3.86407 10.0233 3.49288 9.58204 3.36145C9.59 3.39968 9.59637 3.43553 9.60514 3.46978C9.7286 3.98435 9.58682 4.41448 9.16305 4.72832C8.74566 5.03659 8.298 5.04057 7.84796 4.78647C7.51898 4.60088 7.19001 4.41448 6.86104 4.22889C6.83475 4.25438 6.81643 4.26712 6.80528 4.28465C6.24212 5.15687 5.67259 6.0243 5.12058 6.9029C4.75815 7.4796 4.99154 8.19808 5.60886 8.48962C6.33452 8.83133 7.05778 9.17863 7.82406 9.54345C7.03866 10.0636 6.28672 10.5614 5.53478 11.0601C5.16997 11.3014 5.07757 11.6463 5.28228 12.0016C5.49974 12.3784 5.86774 12.4915 6.25168 12.282C7.40269 11.6559 8.5529 11.0266 9.69993 10.3926C10.287 10.0684 10.3228 9.28218 9.77958 8.8847C9.07942 8.37173 8.38244 7.85397 7.6775 7.33383C7.73883 7.26373 7.7906 7.2024 7.84477 7.14345C8.10683 6.8559 8.37129 6.57074 8.63415 6.28478C8.96312 6.57313 9.50159 7.0176 9.72382 7.21673C9.90225 7.37684 10.1149 7.43738 10.3539 7.37445C11.0891 7.18089 11.8243 6.98733 12.5595 6.79377C12.8144 6.72686 13.0725 6.67349 13.3226 6.59304C13.7066 6.46878 13.834 6.08962 13.6189 5.7487L13.6197 5.7479Z" fill="#062240"/>
</svg>
