<svg width="20" height="20" viewBox="0 0 20 20" fill="none" xmlns="http://www.w3.org/2000/svg">
<path fill-rule="evenodd" clip-rule="evenodd" d="M8.47243 1.91074e-08C7.1213 0.000115122 5.78979 0.323327 4.58899 0.942671C3.38819 1.56201 2.35291 2.45953 1.56954 3.56033C0.786164 4.66114 0.277408 5.93332 0.0857136 7.27072C-0.10598 8.60813 0.0249472 9.97199 0.467573 11.2485C0.910199 12.525 1.65169 13.6772 2.63018 14.6089C3.60867 15.5406 4.79578 16.2247 6.09248 16.6043C7.38918 16.9839 8.75786 17.048 10.0843 16.7911C11.4108 16.5341 12.6566 15.9638 13.7178 15.1275L18.3106 19.7202C18.4986 19.9018 18.7505 20.0022 19.0118 20C19.2732 19.9977 19.5232 19.8929 19.708 19.708C19.8929 19.5232 19.9977 19.2732 20 19.0119C20.0022 18.7505 19.9018 18.4987 19.7202 18.3107L15.1273 13.718C16.1122 12.4686 16.7254 10.9672 16.8968 9.38562C17.0682 7.80402 16.7909 6.20612 16.0965 4.77478C15.4021 3.34344 14.3188 2.1365 12.9705 1.29209C11.6222 0.447671 10.0633 -0.000106801 8.47243 1.91074e-08ZM1.99296 8.47282C1.99296 6.75443 2.67562 5.10641 3.89075 3.89133C5.10589 2.67624 6.75396 1.99361 8.47243 1.99361C10.1909 1.99361 11.839 2.67624 13.0541 3.89133C14.2692 5.10641 14.9519 6.75443 14.9519 8.47282C14.9519 10.1912 14.2692 11.8392 13.0541 13.0543C11.839 14.2694 10.1909 14.952 8.47243 14.952C6.75396 14.952 5.10589 14.2694 3.89075 13.0543C2.67562 11.8392 1.99296 10.1912 1.99296 8.47282Z" fill="#062240"/>
</svg>
