<svg width="18" height="18" viewBox="0 0 18 18" fill="none" xmlns="http://www.w3.org/2000/svg">
<path d="M6.38773 9.39203L8.37079 9.22274L10.3538 9.05345L12.101 8.91089H12.3107V8.81289H11.8564L9.89956 8.69706L7.54092 8.56342L5.54912 8.44758L3.5137 8.33175L2.28191 8.2694C2.20329 8.2694 2.17708 8.26938 2.16834 8.16246L0.700667 0.660381C0.700667 0.660381 0.700667 0.598016 0.700667 0.553467L17.4736 8.82181L0.473633 17.5535L0.753134 16.3863L2.11598 10.2117C2.11598 10.087 2.17711 9.95337 2.20332 9.82863C2.20885 9.81306 2.21818 9.79916 2.2304 9.78825C2.24263 9.77734 2.2573 9.76978 2.27317 9.76625L4.19502 9.60588L6.38773 9.41875" fill="white"/>
</svg>
