<svg width="10" height="11" viewBox="0 0 10 11" fill="none" xmlns="http://www.w3.org/2000/svg">
<path d="M4.15791 10.5C3.75984 10.5 3.40498 10.2614 3.25585 9.88462L0.0700438 1.83289C-0.0748211 1.46646 0.00856749 1.06594 0.287341 0.78716C0.566115 0.508381 0.966624 0.42499 1.33305 0.570467L9.38461 3.75634C9.78999 3.91643 10.0359 4.31634 9.99572 4.75033C9.95555 5.18493 9.64087 5.53249 9.21297 5.61589L5.99551 6.24344C5.86768 6.2684 5.76908 6.36701 5.74412 6.49483L5.11658 9.71236C5.03319 10.1403 4.68503 10.455 4.25104 10.4951C4.22 10.4982 4.18956 10.4994 4.15852 10.4994L4.15791 10.5ZM0.97271 1.4135C0.961146 1.4135 0.947146 1.41776 0.932538 1.43237C0.904539 1.46037 0.914277 1.48533 0.919147 1.49689L4.10496 9.54862C4.11165 9.56566 4.122 9.59062 4.16643 9.58636C4.21148 9.5821 4.21635 9.55532 4.22 9.53766L4.84754 6.32014C4.94432 5.82588 5.32596 5.44363 5.82021 5.34745L9.03767 4.7199C9.05532 4.71624 9.0821 4.71137 9.08575 4.66633C9.09002 4.62129 9.06445 4.61155 9.04802 4.60485L0.997057 1.41898C0.991579 1.41654 0.983058 1.4135 0.97271 1.4135Z" fill="white"/>
</svg>
