<svg width="21" height="19" viewBox="0 0 21 19" fill="none" xmlns="http://www.w3.org/2000/svg">
<path d="M11.58 0C11.7274 4.52718e-06 11.871 0.0456052 11.9902 0.130235C12.1093 0.214864 12.1978 0.334156 12.2429 0.470929L13.0088 2.79029C13.3305 2.94364 13.6382 3.116 13.9321 3.31007L16.3774 2.79707C16.5216 2.76707 16.6719 2.78245 16.8065 2.84098C16.9411 2.89951 17.0532 2.99819 17.1266 3.12279L19.0568 6.37857C19.1305 6.5031 19.1617 6.64722 19.1459 6.79015C19.1301 6.93308 19.0682 7.06744 18.969 7.17386L17.291 8.97886C17.3154 9.32497 17.3154 9.67231 17.291 10.0184L18.969 11.8261C19.0682 11.9326 19.1301 12.0669 19.1459 12.2098C19.1617 12.3528 19.1305 12.4969 19.0568 12.6214L17.1266 15.8786C17.053 16.0029 16.9408 16.1013 16.8062 16.1596C16.6716 16.2179 16.5215 16.2331 16.3774 16.2029L13.9321 15.6899C13.6396 15.8826 13.3305 16.0564 13.0102 16.2097L12.2429 18.5291C12.1978 18.6658 12.1093 18.7851 11.9902 18.8698C11.871 18.9544 11.7274 19 11.58 19H7.71979C7.57238 19 7.42877 18.9544 7.30964 18.8698C7.19052 18.7851 7.10203 18.6658 7.05692 18.5291L6.2924 16.2111C5.97159 16.0582 5.66215 15.8836 5.36634 15.6886L2.92236 16.2029C2.77818 16.2329 2.62795 16.2176 2.49331 16.159C2.35867 16.1005 2.24657 16.0018 2.17316 15.8772L0.243046 12.6214C0.169343 12.4969 0.138125 12.3528 0.153892 12.2098C0.16966 12.0669 0.231599 11.9326 0.330778 11.8261L2.00883 10.0184C1.98452 9.67321 1.98452 9.32678 2.00883 8.98157L0.330778 7.17386C0.231599 7.06744 0.16966 6.93308 0.153892 6.79015C0.138125 6.64722 0.169343 6.5031 0.243046 6.37857L2.17316 3.12143C2.24677 2.99708 2.35896 2.89869 2.49359 2.8404C2.62821 2.78212 2.77833 2.76695 2.92236 2.79707L5.36634 3.31143C5.66156 3.11736 5.97071 2.94229 6.2924 2.78893L7.05832 0.470929C7.10328 0.334596 7.19135 0.215621 7.30991 0.131032C7.42847 0.0464433 7.57146 0.000577691 7.7184 0H11.5786H11.58ZM11.0703 1.35714H8.22947L7.43849 3.75521L6.90513 4.009C6.64293 4.13404 6.38982 4.27642 6.14757 4.43514L5.6546 4.76086L3.12568 4.22886L1.70525 6.62829L3.43901 8.49843L3.39723 9.07386C3.37721 9.35762 3.37721 9.64238 3.39723 9.92614L3.43901 10.5016L1.70247 12.3717L3.12429 14.7711L5.65321 14.2405L6.14618 14.5649C6.38843 14.7236 6.64154 14.866 6.90374 14.991L7.4371 15.2448L8.22947 17.6429H11.0731L11.8669 15.2434L12.3988 14.991C12.6608 14.8663 12.9134 14.7239 13.155 14.5649L13.6466 14.2405L16.1769 14.7711L17.5973 12.3717L15.8622 10.5016L15.904 9.92614C15.924 9.64193 15.924 9.35671 15.904 9.0725L15.8622 8.49707L17.5987 6.62829L16.1769 4.22886L13.6466 4.75814L13.155 4.43514C12.9134 4.27613 12.6608 4.13373 12.3988 4.009L11.8669 3.75657L11.0717 1.35714H11.0703ZM9.6499 5.42857C10.7579 5.42857 11.8205 5.85752 12.604 6.62107C13.3875 7.38461 13.8276 8.42019 13.8276 9.5C13.8276 10.5798 13.3875 11.6154 12.604 12.3789C11.8205 13.1425 10.7579 13.5714 9.6499 13.5714C8.5419 13.5714 7.47928 13.1425 6.6958 12.3789C5.91232 11.6154 5.47217 10.5798 5.47217 9.5C5.47217 8.42019 5.91232 7.38461 6.6958 6.62107C7.47928 5.85752 8.5419 5.42857 9.6499 5.42857ZM9.6499 6.78571C8.91123 6.78571 8.20282 7.07168 7.6805 7.58071C7.15818 8.08974 6.86475 8.78013 6.86475 9.5C6.86475 10.2199 7.15818 10.9103 7.6805 11.4193C8.20282 11.9283 8.91123 12.2143 9.6499 12.2143C10.3886 12.2143 11.097 11.9283 11.6193 11.4193C12.1416 10.9103 12.4351 10.2199 12.4351 9.5C12.4351 8.78013 12.1416 8.08974 11.6193 7.58071C11.097 7.07168 10.3886 6.78571 9.6499 6.78571Z" fill="black"/>
<circle cx="16.1499" cy="4" r="4" fill="#E92062"/>
</svg>
