<svg width="14" height="12" viewBox="0 0 14 12" fill="none" xmlns="http://www.w3.org/2000/svg">
<path d="M13.795 5.52866L8.19499 0.195196C8.09709 0.101987 7.97237 0.0385149 7.83661 0.0128026C7.70084 -0.0129097 7.56011 0.00029264 7.43222 0.0507405C7.30433 0.101188 7.19501 0.186617 7.11809 0.296226C7.04117 0.405835 7.0001 0.534704 7.00007 0.66654V3.02993C5.08786 3.19846 3.31049 4.04053 2.0158 5.39134C0.721115 6.74215 0.00229024 8.50447 0 10.3334V11.3335C0.0001105 11.4718 0.0454373 11.6068 0.129693 11.7195C0.213949 11.8323 0.332958 11.9173 0.470213 11.9627C0.607468 12.0081 0.756165 12.0117 0.89568 11.9731C1.0352 11.9344 1.15861 11.8553 1.24881 11.7468C1.93461 10.9701 2.77606 10.3313 3.724 9.86784C4.67194 9.40436 5.70737 9.12545 6.76977 9.04741C6.80477 9.04341 6.89227 9.03674 7.00007 9.03007V11.3335C7.0001 11.4653 7.04117 11.5942 7.11809 11.7038C7.19501 11.8134 7.30433 11.8988 7.43222 11.9493C7.56011 11.9997 7.70084 12.0129 7.83661 11.9872C7.97237 11.9615 8.09709 11.898 8.19499 11.8048L13.795 6.47134C13.9263 6.34632 14 6.17678 14 6C14 5.82322 13.9263 5.65368 13.795 5.52866ZM8.40009 9.72409V8.33339C8.40009 8.15657 8.32634 7.987 8.19506 7.86197C8.06379 7.73695 7.88574 7.66671 7.70008 7.66671C7.52158 7.66671 6.79287 7.70004 6.60667 7.72337C4.72005 7.88893 2.92422 8.57158 1.43642 9.68876C1.60529 8.21834 2.3377 6.85892 3.49343 5.87077C4.64915 4.88262 6.14696 4.33519 7.70008 4.33329C7.88574 4.33329 8.06379 4.26305 8.19506 4.13803C8.32634 4.013 8.40009 3.84343 8.40009 3.66661V2.27591L12.3103 6L8.40009 9.72409Z" fill="black"/>
</svg>
