<svg width="17" height="17" viewBox="0 0 17 17" fill="none" xmlns="http://www.w3.org/2000/svg">
<path d="M3.41962 17.005C3.13963 16.8882 3.04024 16.6801 3.04202 16.3774C3.05045 14.4688 3.04601 12.5598 3.04645 10.6512C3.04645 10.2145 3.22394 10.0365 3.65922 10.0365C4.35053 10.036 5.04184 10.036 5.73315 10.0365C6.15557 10.0365 6.34148 10.222 6.34148 10.6423C6.34148 12.5398 6.33705 14.4377 6.34592 16.3352C6.34725 16.6428 6.26472 16.8718 5.97719 17.005H3.41962Z" fill="#F7931E"/>
<path d="M-0.00150941 3.94788C0.096108 3.7113 0.282025 3.60167 0.526068 3.55152C0.856192 3.48405 1.18321 3.40194 1.50845 3.3145C1.579 3.29541 1.65621 3.23993 1.6957 3.17868C1.89404 2.87242 2.07952 2.55773 2.2712 2.24747C2.51613 1.85155 2.94387 1.84889 3.18792 2.24303C3.38049 2.55329 3.56463 2.86842 3.76341 3.17424C3.80557 3.2386 3.88943 3.29541 3.96486 3.31539C4.32205 3.4117 4.68412 3.49071 5.04265 3.58214C5.46373 3.68911 5.59552 4.09568 5.31731 4.42857C5.07947 4.71308 4.83277 4.99005 4.59982 5.27811C4.55057 5.33892 4.51684 5.43523 4.52128 5.51291C4.53947 5.86089 4.5692 6.20843 4.60292 6.55552C4.65173 7.05619 4.30475 7.32206 3.84195 7.13209C3.50961 6.99582 3.18082 6.85202 2.84626 6.72197C2.77881 6.69578 2.68341 6.69578 2.61597 6.72197C2.28629 6.84935 1.95394 6.97452 1.63713 7.12942C1.20761 7.33981 0.792297 7.04065 0.85708 6.57061C0.904113 6.23151 0.905888 5.88619 0.944048 5.54531C0.957803 5.42147 0.925412 5.3367 0.846874 5.24793C0.626791 4.99937 0.412033 4.74637 0.19905 4.4916C0.125837 4.40416 0.0650479 4.30651 -0.00195312 4.21375C-0.00195312 4.12498 -0.00195312 4.03665 -0.00195312 3.94788H-0.00150941Z" fill="#F7931E"/>
<path d="M10.4947 10.3747C10.5865 10.3747 10.6522 10.3747 10.7178 10.3747C11.4651 10.3747 12.2123 10.3707 12.9595 10.3761C13.9019 10.3827 14.5112 11.1124 14.3523 12.0419C14.1642 13.1431 13.9734 14.2434 13.7795 15.3437C13.626 16.2154 12.9262 16.8137 12.0179 16.8244C10.9002 16.8373 9.78161 16.8302 8.66389 16.8266C8.19266 16.8253 7.77158 16.6761 7.42681 16.3472C7.37845 16.3011 7.34162 16.2172 7.34117 16.1506C7.33674 14.3623 7.33851 12.574 7.33496 10.7853C7.33496 10.685 7.37001 10.6424 7.45831 10.6038C7.91978 10.4009 8.22683 10.0543 8.37858 9.57358C8.59822 8.87806 8.8152 8.18166 9.03262 7.48525C9.20078 6.94597 9.60678 6.76754 10.1184 7.00944C10.7884 7.32591 11.1522 8.07779 10.9623 8.79462C10.8381 9.26466 10.6846 9.72671 10.5448 10.1923C10.5293 10.2447 10.5155 10.2975 10.4947 10.3752V10.3747Z" fill="#F7931E"/>
<path d="M6.62151 4.75296C6.65435 4.3171 6.68896 3.93671 6.70715 3.55544C6.71114 3.47288 6.6752 3.37169 6.62329 3.30644C6.39788 3.02637 6.15872 2.75695 5.92621 2.48265C5.63336 2.13733 5.76692 1.72543 6.20486 1.61891C6.55939 1.5328 6.91525 1.4529 7.26712 1.35659C7.34654 1.33484 7.43218 1.26959 7.47788 1.20035C7.67179 0.9043 7.86968 0.60825 8.03164 0.294888C8.2353 -0.0992541 8.77087 -0.0988102 8.97498 0.299327C9.13871 0.618458 9.34149 0.917616 9.53716 1.21944C9.57666 1.28069 9.65475 1.33573 9.72574 1.35437C10.0834 1.4498 10.4454 1.5288 10.8044 1.62024C11.2428 1.73164 11.3688 2.13999 11.0746 2.48753C10.8421 2.76227 10.6025 3.03081 10.3771 3.31132C10.3252 3.37568 10.2928 3.47866 10.2964 3.56166C10.3123 3.92073 10.3434 4.27981 10.3727 4.638C10.4104 5.09872 10.0647 5.35438 9.63434 5.17906C9.29667 5.04147 8.96211 4.89499 8.62178 4.76494C8.5499 4.73743 8.44873 4.73964 8.37641 4.76761C8.02099 4.90476 7.67267 5.06233 7.31726 5.19992C6.95252 5.34107 6.60465 5.08408 6.62151 4.75385V4.75296Z" fill="#F7931E"/>
<path d="M12.3908 6.67522C12.4236 6.2722 12.46 5.89759 12.48 5.52209C12.4844 5.43953 12.4498 5.33745 12.3974 5.27264C12.1654 4.98414 11.9178 4.70762 11.6804 4.42266C11.4044 4.09155 11.5442 3.68276 11.9648 3.58067C12.3247 3.49368 12.6854 3.41156 13.0426 3.3148C13.1176 3.29439 13.1997 3.23447 13.2418 3.16922C13.4402 2.86296 13.6243 2.54782 13.8169 2.23801C14.0565 1.8523 14.4842 1.8523 14.7243 2.23801C14.9173 2.54782 15.1019 2.86296 15.3007 3.16878C15.3428 3.23402 15.4245 3.29439 15.499 3.31436C15.8562 3.41068 16.2178 3.48968 16.5768 3.58067C17.0081 3.6903 17.1381 4.09288 16.8528 4.43553C16.6154 4.72005 16.3673 4.99612 16.1344 5.28418C16.086 5.3441 16.0594 5.44175 16.0634 5.51987C16.082 5.88428 16.1215 6.24779 16.1415 6.6122C16.1668 7.07957 15.826 7.31349 15.3903 7.13417C15.0531 6.99524 14.7185 6.85055 14.3791 6.71783C14.3161 6.69298 14.2269 6.69298 14.1639 6.71783C13.804 6.85898 13.4508 7.01743 13.091 7.15814C12.7191 7.30328 12.3748 7.04629 12.3912 6.67522H12.3908Z" fill="#F7931E"/>
</svg>
