<svg width="19" height="12" viewBox="0 0 19 12" fill="none" xmlns="http://www.w3.org/2000/svg">
<path d="M18.9998 5.63611C18.9998 7.34245 18.9998 9.05349 18.9998 10.7598C18.9998 11.1641 18.8964 11.2628 18.4922 11.2628C17.4157 11.2628 16.3346 11.2628 15.2581 11.2628C14.8867 11.2628 14.7739 11.1547 14.7739 10.7786C14.7739 7.34715 14.7739 3.91566 14.7739 0.484169C14.7739 0.108115 14.882 0 15.2581 0C16.344 0 17.4298 0 18.511 0C18.887 0 18.9951 0.108115 18.9951 0.484169C18.9951 2.19991 18.9951 3.91566 18.9951 5.63141L18.9998 5.63611Z" fill="#FF5722"/>
<path d="M9.85303 7.04622C9.85303 5.80054 9.85303 4.55486 9.85303 3.30448C9.85303 2.92843 9.96114 2.82031 10.3372 2.82031C11.4278 2.82031 12.523 2.82031 13.6136 2.82031C13.9567 2.82031 14.0742 2.93783 14.0742 3.28098C14.0742 5.78644 14.0742 8.2966 14.0742 10.8021C14.0742 11.1452 13.9567 11.2627 13.6136 11.2627C12.5136 11.2627 11.4137 11.2627 10.3137 11.2627C9.97054 11.2627 9.85303 11.1452 9.85303 10.8021C9.85303 9.54697 9.85303 8.2966 9.85303 7.04152V7.04622Z" fill="#FF5722"/>
<path d="M4.92188 8.08054C4.92188 7.18741 4.92188 6.28959 4.92188 5.39646C4.92188 5.04861 5.03939 4.93579 5.38254 4.93579C6.4825 4.93579 7.58246 4.93579 8.68241 4.93579C9.02556 4.93579 9.14308 5.05331 9.14308 5.39646C9.14308 7.20152 9.14308 9.00187 9.14308 10.8069C9.14308 11.1501 9.02556 11.2676 8.68241 11.2676C7.58246 11.2676 6.4825 11.2676 5.38254 11.2676C5.03939 11.2676 4.92188 11.1501 4.92188 10.8069C4.92188 9.8997 4.92188 8.98777 4.92188 8.08054Z" fill="#FF5722"/>
<path d="M2.0871 11.2675C1.53712 11.2675 0.987141 11.2675 0.437163 11.2675C0.122218 11.2675 0 11.1453 0 10.8304C0 9.83381 0 8.83727 0 7.84073C0 7.52578 0.122218 7.40356 0.437163 7.40356C1.55122 7.40356 2.66528 7.40356 3.77934 7.40356C4.09429 7.40356 4.2165 7.52578 4.2212 7.84073C4.2212 8.83727 4.2212 9.83381 4.2212 10.8304C4.2212 11.1453 4.09899 11.2675 3.78404 11.2722C3.21996 11.2722 2.65588 11.2722 2.0918 11.2722L2.0871 11.2675Z" fill="#FF5722"/>
</svg>
