<svg width="31" height="30" viewBox="0 0 31 30" fill="none" xmlns="http://www.w3.org/2000/svg">
<path d="M15.5029 30C6.94152 30 0 23.2868 0 15C0 6.71321 6.94152 1.90735e-06 15.5029 1.90735e-06C24.0643 1.90735e-06 31 6.71321 31 15C31 23.2868 24.0585 30 15.5029 30ZM16.4503 16.0245V27.1472C19.3333 26.9434 21.5789 25.9868 23.5322 24.4245C21.7134 22.0302 20.5848 19.2792 20.3918 16.0245H16.4503ZM14.5322 16.0245H10.6082C10.4152 19.2792 9.27485 22.0245 7.46199 24.4245C9.40936 25.9925 11.6491 26.9434 14.5322 27.1472V16.0245ZM8.67251 16.0245H2.95906C3.16959 18.8151 4.31579 21.2094 6.07602 23.1396C7.5614 21.0962 8.48538 18.8094 8.66667 16.0245H8.67251ZM14.5322 14.1679V2.86415C11.6491 3.0566 9.41521 4.10378 7.47368 5.6717C9.2807 8.06604 10.4211 10.9132 10.6082 14.1679H14.5322ZM16.4503 14.1679H20.386C20.5789 10.9132 21.7018 8.06604 23.5205 5.6717C21.5731 4.10944 19.3275 3.0566 16.4503 2.86415V14.1679ZM24.924 23.1396C26.6842 21.2094 27.8246 18.8094 28.0409 16.0245H22.3275C22.5088 18.8151 23.4386 21.0962 24.924 23.1396ZM2.95322 14.1679H8.66667C8.47953 11.3717 7.54971 9.09057 6.06433 7.04717C4.30994 8.97736 3.16374 11.3717 2.95322 14.1679ZM24.9298 7.05849C23.4444 9.09623 22.5029 11.3774 22.3216 14.1679H28.0409C27.8246 11.3717 26.6901 8.97736 24.9298 7.05849Z" fill="white"/>
</svg>
